G75*
G70*
%OFA0B0*%
%FSLAX24Y24*%
%IPPOS*%
%LPD*%
%AMOC8*
5,1,8,0,0,1.08239X$1,22.5*
%
%ADD10C,0.0000*%
%ADD11C,0.0110*%
%ADD12C,0.0080*%
%ADD13R,0.0689X0.0689*%
%ADD14R,0.0256X0.0146*%
%ADD15R,0.0146X0.0256*%
%ADD16R,0.0098X0.0236*%
%ADD17R,0.0236X0.0098*%
%ADD18R,0.0315X0.0098*%
%ADD19R,0.0098X0.0315*%
%ADD20R,0.0472X0.0472*%
%ADD21C,0.0600*%
%ADD22R,0.0472X0.0315*%
%ADD23C,0.0100*%
D10*
X000151Y000151D02*
X000151Y008151D01*
X000151Y000151D02*
X023151Y000151D01*
X023151Y008151D01*
D11*
X001596Y006033D02*
X001596Y005640D01*
X001006Y005640D01*
X001006Y005389D02*
X001498Y005389D01*
X001596Y005290D01*
X001596Y005094D01*
X001498Y004995D01*
X001006Y004995D01*
X001203Y004744D02*
X001596Y004744D01*
X001301Y004744D02*
X001301Y004351D01*
X001203Y004351D02*
X001006Y004548D01*
X001203Y004744D01*
X001203Y004351D02*
X001596Y004351D01*
X001498Y004100D02*
X001596Y004001D01*
X001596Y003805D01*
X001498Y003706D01*
X001301Y003805D02*
X001301Y004001D01*
X001399Y004100D01*
X001498Y004100D01*
X001104Y004100D02*
X001006Y004001D01*
X001006Y003805D01*
X001104Y003706D01*
X001203Y003706D01*
X001301Y003805D01*
D12*
X008191Y004761D02*
X008261Y004691D01*
X008331Y004691D01*
X008401Y004761D01*
X008401Y004901D01*
X008471Y004971D01*
X008541Y004971D01*
X008611Y004901D01*
X008611Y004761D01*
X008541Y004691D01*
X008191Y004761D02*
X008191Y004901D01*
X008261Y004971D01*
X008331Y005152D02*
X008191Y005292D01*
X008331Y005432D01*
X008611Y005432D01*
X008401Y005432D02*
X008401Y005152D01*
X008331Y005152D02*
X008611Y005152D01*
X008541Y005612D02*
X008191Y005612D01*
X008541Y005612D02*
X008611Y005682D01*
X008611Y005822D01*
X008541Y005892D01*
X008191Y005892D01*
X008191Y006072D02*
X008611Y006072D01*
X008611Y006352D01*
X009141Y006691D02*
X009141Y006971D01*
X009281Y007112D01*
X009421Y006971D01*
X009421Y006691D01*
X009602Y006691D02*
X009812Y006691D01*
X009882Y006761D01*
X009882Y007041D01*
X009812Y007112D01*
X009602Y007112D01*
X009602Y006691D01*
X010062Y006691D02*
X010342Y007112D01*
X010522Y007112D02*
X010522Y006691D01*
X010802Y006691D01*
X010983Y006761D02*
X011053Y006691D01*
X011193Y006691D01*
X011263Y006761D01*
X011263Y006831D01*
X011193Y006901D01*
X011123Y006901D01*
X011193Y006901D02*
X011263Y006971D01*
X011263Y007041D01*
X011193Y007112D01*
X011053Y007112D01*
X010983Y007041D01*
X011443Y007041D02*
X011513Y007112D01*
X011653Y007112D01*
X011723Y007041D01*
X011723Y006971D01*
X011653Y006901D01*
X011723Y006831D01*
X011723Y006761D01*
X011653Y006691D01*
X011513Y006691D01*
X011443Y006761D01*
X011583Y006901D02*
X011653Y006901D01*
X011903Y006901D02*
X012043Y006971D01*
X012113Y006971D01*
X012184Y006901D01*
X012184Y006761D01*
X012113Y006691D01*
X011973Y006691D01*
X011903Y006761D01*
X011903Y006901D02*
X011903Y007112D01*
X012184Y007112D01*
X010342Y006691D02*
X010062Y007112D01*
X009421Y006901D02*
X009141Y006901D01*
X004870Y006761D02*
X004800Y006691D01*
X004660Y006691D01*
X004589Y006761D01*
X004870Y007041D01*
X004870Y006761D01*
X004589Y006761D02*
X004589Y007041D01*
X004660Y007112D01*
X004800Y007112D01*
X004870Y007041D01*
X004409Y007041D02*
X004129Y006761D01*
X004199Y006691D01*
X004339Y006691D01*
X004409Y006761D01*
X004409Y007041D01*
X004339Y007112D01*
X004199Y007112D01*
X004129Y007041D01*
X004129Y006761D01*
X003949Y006761D02*
X003879Y006691D01*
X003739Y006691D01*
X003669Y006761D01*
X003489Y006691D02*
X003208Y006691D01*
X003208Y006761D01*
X003489Y007041D01*
X003489Y007112D01*
X003208Y007112D01*
X003028Y007041D02*
X002958Y007112D01*
X002818Y007112D01*
X002748Y007041D01*
X002748Y006971D01*
X002818Y006901D01*
X002958Y006901D01*
X003028Y006831D01*
X003028Y006761D01*
X002958Y006691D01*
X002818Y006691D01*
X002748Y006761D01*
X002581Y006691D02*
X002441Y006691D01*
X002511Y006691D02*
X002511Y007112D01*
X002441Y007112D02*
X002581Y007112D01*
X003669Y007112D02*
X003669Y006901D01*
X003809Y006971D01*
X003879Y006971D01*
X003949Y006901D01*
X003949Y006761D01*
X003949Y007112D02*
X003669Y007112D01*
X014941Y006072D02*
X015361Y006072D01*
X015361Y006352D01*
X015291Y005892D02*
X014941Y005892D01*
X015291Y005892D02*
X015361Y005822D01*
X015361Y005682D01*
X015291Y005612D01*
X014941Y005612D01*
X015081Y005432D02*
X015361Y005432D01*
X015151Y005432D02*
X015151Y005152D01*
X015081Y005152D02*
X015361Y005152D01*
X015081Y005152D02*
X014941Y005292D01*
X015081Y005432D01*
X015011Y004971D02*
X014941Y004901D01*
X014941Y004761D01*
X015011Y004691D01*
X015081Y004691D01*
X015151Y004761D01*
X015151Y004901D01*
X015221Y004971D01*
X015291Y004971D01*
X015361Y004901D01*
X015361Y004761D01*
X015291Y004691D01*
X017491Y006691D02*
X017631Y006691D01*
X017561Y006691D02*
X017561Y007112D01*
X017491Y007112D02*
X017631Y007112D01*
X017798Y007112D02*
X018008Y007112D01*
X018078Y007041D01*
X018078Y006761D01*
X018008Y006691D01*
X017798Y006691D01*
X017798Y007112D01*
X018258Y007041D02*
X018258Y006761D01*
X018328Y006691D01*
X018469Y006691D01*
X018539Y006761D01*
X018539Y006901D01*
X018399Y006901D01*
X018539Y007041D02*
X018469Y007112D01*
X018328Y007112D01*
X018258Y007041D01*
X018719Y007112D02*
X018719Y006901D01*
X018859Y006971D01*
X018929Y006971D01*
X018999Y006901D01*
X018999Y006761D01*
X018929Y006691D01*
X018789Y006691D01*
X018719Y006761D01*
X019179Y006761D02*
X019249Y006691D01*
X019389Y006691D01*
X019459Y006761D01*
X019459Y007041D01*
X019179Y006761D01*
X019179Y007041D01*
X019249Y007112D01*
X019389Y007112D01*
X019459Y007041D01*
X019639Y007041D02*
X019710Y007112D01*
X019850Y007112D01*
X019920Y007041D01*
X019639Y006761D01*
X019710Y006691D01*
X019850Y006691D01*
X019920Y006761D01*
X019920Y007041D01*
X019639Y007041D02*
X019639Y006761D01*
X018999Y007112D02*
X018719Y007112D01*
D13*
X010651Y005151D03*
D14*
X009962Y005023D03*
X009962Y004767D03*
X009962Y005279D03*
X009962Y005535D03*
X011340Y005535D03*
X011340Y005279D03*
X011340Y005023D03*
X011340Y004767D03*
D15*
X011035Y004462D03*
X010779Y004462D03*
X010523Y004462D03*
X010267Y004462D03*
X010267Y005840D03*
X010523Y005840D03*
X010779Y005840D03*
X011035Y005840D03*
D16*
X004343Y005909D03*
X004146Y005909D03*
X003950Y005909D03*
X003753Y005909D03*
X003556Y005909D03*
X003359Y005909D03*
X003162Y005909D03*
X002965Y005909D03*
X002965Y004393D03*
X003162Y004393D03*
X003359Y004393D03*
X003556Y004393D03*
X003753Y004393D03*
X003950Y004393D03*
X004146Y004393D03*
X004343Y004393D03*
D17*
X004609Y004659D03*
X004609Y004856D03*
X004609Y005053D03*
X004609Y005250D03*
X004609Y005446D03*
X004609Y005643D03*
X002700Y005643D03*
X002700Y005446D03*
X002700Y005250D03*
X002700Y005053D03*
X002700Y004856D03*
X002700Y004659D03*
D18*
X017700Y004659D03*
X017700Y004856D03*
X017700Y005053D03*
X017700Y005250D03*
X017700Y005446D03*
X017700Y005643D03*
X019609Y005643D03*
X019609Y005446D03*
X019609Y005250D03*
X019609Y005053D03*
X019609Y004856D03*
X019609Y004659D03*
D19*
X019343Y004393D03*
X019146Y004393D03*
X018950Y004393D03*
X018753Y004393D03*
X018556Y004393D03*
X018359Y004393D03*
X018162Y004393D03*
X017965Y004393D03*
X017965Y005909D03*
X018162Y005909D03*
X018359Y005909D03*
X018556Y005909D03*
X018753Y005909D03*
X018950Y005909D03*
X019146Y005909D03*
X019343Y005909D03*
D20*
X018651Y005151D03*
D21*
X018651Y002451D02*
X018651Y001851D01*
X019651Y001851D02*
X019651Y002451D01*
X020651Y002451D02*
X020651Y001851D01*
X021651Y001851D02*
X021651Y002451D01*
X017651Y002451D02*
X017651Y001851D01*
X016651Y001851D02*
X016651Y002451D01*
X015651Y002451D02*
X015651Y001851D01*
X012651Y001851D02*
X012651Y002451D01*
X011651Y002451D02*
X011651Y001851D01*
X010651Y001851D02*
X010651Y002451D01*
X009651Y002451D02*
X009651Y001851D01*
X008651Y001851D02*
X008651Y002451D01*
X005651Y002451D02*
X005651Y001851D01*
X004651Y001851D02*
X004651Y002451D01*
X003651Y002451D02*
X003651Y001851D01*
X002651Y001851D02*
X002651Y002451D01*
X001651Y002451D02*
X001651Y001851D01*
D22*
X005151Y005297D03*
X005151Y006006D03*
X012151Y006006D03*
X012151Y005297D03*
X021151Y005297D03*
X021151Y006006D03*
D23*
X000151Y008151D02*
X000151Y000151D01*
X023151Y000151D01*
X023151Y008151D01*
X000151Y008151D01*
X003162Y005909D02*
X003554Y006301D01*
X004501Y006301D01*
X004797Y006006D01*
X005151Y006006D01*
X005643Y005643D02*
X005651Y005651D01*
X005643Y005643D02*
X005643Y002159D01*
X005651Y002151D01*
X004651Y002151D02*
X004651Y004651D01*
X004643Y004659D01*
X004609Y004659D01*
X003950Y004393D02*
X003950Y002450D01*
X003651Y002151D01*
X002651Y002151D02*
X002651Y002651D01*
X003359Y003359D01*
X003359Y004393D01*
X003359Y004859D01*
X003951Y005451D01*
X004604Y005451D01*
X004609Y005446D01*
X005002Y005446D01*
X005151Y005297D01*
X005643Y005643D02*
X004609Y005643D01*
X003359Y005909D02*
X003162Y005909D01*
X002965Y005909D01*
X002409Y005909D01*
X002151Y005651D01*
X002151Y005151D01*
X002151Y003151D01*
X001651Y003151D01*
X001651Y002151D01*
X002151Y003151D02*
X003162Y004162D01*
X003162Y004393D01*
X002151Y005151D02*
X002446Y005446D01*
X002700Y005446D01*
X008651Y004224D02*
X009962Y005535D01*
X009951Y005546D01*
X009951Y006151D01*
X010501Y006151D01*
X010523Y006129D01*
X010523Y005840D01*
X010523Y006023D01*
X010651Y006151D01*
X012006Y006151D01*
X012151Y006006D01*
X012151Y005297D02*
X012297Y005297D01*
X012151Y005151D01*
X012023Y005279D01*
X011340Y005279D01*
X011340Y005023D01*
X012151Y005151D02*
X012651Y004651D01*
X012651Y002151D01*
X011651Y002151D02*
X011651Y003151D01*
X011035Y003767D01*
X011035Y004462D01*
X010523Y004462D02*
X010523Y002279D01*
X010651Y002151D01*
X009651Y002151D02*
X009651Y004456D01*
X009962Y004767D01*
X009962Y005023D02*
X009962Y005279D01*
X009962Y005535D01*
X008651Y004224D02*
X008651Y002151D01*
X015651Y002151D02*
X015651Y001651D01*
X015951Y001351D01*
X017151Y001351D01*
X018151Y001351D01*
X018162Y001362D01*
X018162Y004393D01*
X018359Y004393D02*
X018359Y004859D01*
X018951Y005451D01*
X019604Y005451D01*
X019609Y005446D01*
X020356Y005446D01*
X020651Y005151D01*
X021006Y005151D01*
X021151Y005297D01*
X020651Y005151D02*
X020651Y002151D01*
X019651Y002151D02*
X019609Y002193D01*
X019609Y004659D01*
X018950Y004393D02*
X018950Y002450D01*
X018651Y002151D01*
X017651Y002151D02*
X017651Y004611D01*
X017700Y004659D01*
X017151Y005151D02*
X017151Y001351D01*
X016651Y002151D02*
X016651Y005651D01*
X016659Y005643D01*
X017700Y005643D01*
X017700Y005446D02*
X017446Y005446D01*
X017151Y005151D01*
X015909Y005909D02*
X015651Y005651D01*
X015651Y002151D01*
X021651Y002151D02*
X021651Y005651D01*
X021643Y005643D01*
X019609Y005643D01*
X019797Y006006D02*
X019451Y006351D01*
X018604Y006351D01*
X018162Y005909D01*
X017965Y005909D01*
X015909Y005909D01*
X018162Y005909D02*
X018359Y005909D01*
X019797Y006006D02*
X021151Y006006D01*
M02*
