G75*
G70*
%OFA0B0*%
%FSLAX24Y24*%
%IPPOS*%
%LPD*%
%AMOC8*
5,1,8,0,0,1.08239X$1,22.5*
%
%ADD10C,0.0100*%
%ADD11C,0.0050*%
%ADD12C,0.0040*%
%ADD13R,0.0060X0.0010*%
%ADD14R,0.0100X0.0010*%
%ADD15R,0.0130X0.0010*%
%ADD16R,0.0150X0.0010*%
%ADD17R,0.0040X0.0010*%
%ADD18R,0.0420X0.0010*%
%ADD19R,0.0340X0.0010*%
%ADD20R,0.0080X0.0010*%
%ADD21R,0.0490X0.0010*%
%ADD22R,0.0470X0.0010*%
%ADD23R,0.0440X0.0010*%
%ADD24R,0.0090X0.0010*%
%ADD25R,0.0540X0.0010*%
%ADD26R,0.0520X0.0010*%
%ADD27R,0.0510X0.0010*%
%ADD28R,0.0570X0.0010*%
%ADD29R,0.0560X0.0010*%
%ADD30R,0.0550X0.0010*%
%ADD31R,0.0590X0.0010*%
%ADD32R,0.0580X0.0010*%
%ADD33R,0.0600X0.0010*%
%ADD34R,0.0110X0.0010*%
%ADD35R,0.0120X0.0010*%
%ADD36R,0.0530X0.0010*%
%ADD37R,0.0140X0.0010*%
%ADD38R,0.0190X0.0010*%
%ADD39R,0.0170X0.0010*%
%ADD40R,0.0610X0.0010*%
%ADD41R,0.0480X0.0010*%
%ADD42R,0.0070X0.0010*%
%ADD43R,0.0310X0.0010*%
%ADD44R,0.0410X0.0010*%
%ADD45R,0.0500X0.0010*%
%ADD46R,0.0630X0.0010*%
%ADD47R,0.0690X0.0010*%
%ADD48R,0.0740X0.0010*%
%ADD49R,0.0800X0.0010*%
%ADD50R,0.0830X0.0010*%
%ADD51R,0.0870X0.0010*%
%ADD52R,0.0920X0.0010*%
%ADD53R,0.0940X0.0010*%
%ADD54R,0.0980X0.0010*%
%ADD55R,0.1010X0.0010*%
%ADD56R,0.1040X0.0010*%
%ADD57R,0.1060X0.0010*%
%ADD58R,0.1090X0.0010*%
%ADD59R,0.1130X0.0010*%
%ADD60R,0.1140X0.0010*%
%ADD61R,0.1160X0.0010*%
%ADD62R,0.1190X0.0010*%
%ADD63R,0.1210X0.0010*%
%ADD64R,0.1230X0.0010*%
%ADD65R,0.1260X0.0010*%
%ADD66R,0.1270X0.0010*%
%ADD67R,0.1290X0.0010*%
%ADD68R,0.1300X0.0010*%
%ADD69R,0.1320X0.0010*%
%ADD70R,0.1330X0.0010*%
%ADD71R,0.1350X0.0010*%
%ADD72R,0.1360X0.0010*%
%ADD73R,0.1380X0.0010*%
%ADD74R,0.1390X0.0010*%
%ADD75R,0.1400X0.0010*%
%ADD76R,0.1420X0.0010*%
%ADD77R,0.1430X0.0010*%
%ADD78R,0.1440X0.0010*%
%ADD79R,0.1450X0.0010*%
%ADD80R,0.1460X0.0010*%
%ADD81R,0.1470X0.0010*%
%ADD82R,0.0280X0.0010*%
%ADD83R,0.0400X0.0010*%
%ADD84R,0.0620X0.0010*%
%ADD85R,0.1410X0.0010*%
%ADD86R,0.0790X0.0010*%
%ADD87R,0.0820X0.0010*%
%ADD88R,0.1370X0.0010*%
%ADD89R,0.0900X0.0010*%
%ADD90R,0.0930X0.0010*%
%ADD91R,0.1340X0.0010*%
%ADD92R,0.0970X0.0010*%
%ADD93R,0.1000X0.0010*%
%ADD94R,0.1310X0.0010*%
%ADD95R,0.1030X0.0010*%
%ADD96R,0.1280X0.0010*%
%ADD97R,0.1070X0.0010*%
%ADD98R,0.1250X0.0010*%
%ADD99R,0.1120X0.0010*%
%ADD100R,0.1200X0.0010*%
%ADD101R,0.1170X0.0010*%
%ADD102R,0.1180X0.0010*%
%ADD103R,0.1220X0.0010*%
%ADD104R,0.1240X0.0010*%
%ADD105R,0.0860X0.0010*%
%ADD106R,0.0810X0.0010*%
%ADD107R,0.0770X0.0010*%
%ADD108R,0.0720X0.0010*%
%ADD109R,0.0660X0.0010*%
%ADD110R,0.0450X0.0010*%
%ADD111R,0.1150X0.0010*%
%ADD112R,0.1110X0.0010*%
%ADD113R,0.1100X0.0010*%
%ADD114R,0.1020X0.0010*%
%ADD115R,0.0990X0.0010*%
%ADD116R,0.0960X0.0010*%
%ADD117R,0.0780X0.0010*%
%ADD118R,0.0730X0.0010*%
%ADD119R,0.0680X0.0010*%
%ADD120R,0.0380X0.0010*%
%ADD121R,0.0260X0.0010*%
%ADD122R,0.0220X0.0010*%
%ADD123R,0.0360X0.0010*%
%ADD124R,0.0460X0.0010*%
%ADD125R,0.0710X0.0010*%
%ADD126R,0.0750X0.0010*%
%ADD127R,0.0880X0.0010*%
%ADD128R,0.0910X0.0010*%
%ADD129R,0.0950X0.0010*%
%ADD130R,0.1050X0.0010*%
%ADD131R,0.0890X0.0010*%
%ADD132R,0.0760X0.0010*%
%ADD133R,0.0160X0.0010*%
%ADD134R,0.0330X0.0010*%
%ADD135R,0.0670X0.0010*%
%ADD136R,0.0430X0.0010*%
%ADD137R,0.0390X0.0010*%
%ADD138R,0.0840X0.0010*%
%ADD139R,0.0850X0.0010*%
%ADD140R,0.0640X0.0010*%
%ADD141R,0.0010X0.0010*%
D10*
X019178Y010487D02*
X019678Y010487D01*
X019178Y010487D02*
X019178Y010987D01*
D11*
X019228Y010987D01*
X019378Y010837D01*
X019528Y010687D02*
X019678Y010537D01*
X019678Y010487D01*
X019678Y010437D01*
X019528Y010287D01*
X019723Y010292D02*
X019903Y010112D01*
X019903Y010292D02*
X019723Y010112D01*
X020078Y009937D02*
X020078Y011437D01*
X018678Y011437D01*
X018678Y009937D01*
X020078Y009937D01*
X019066Y010487D02*
X019068Y010508D01*
X019074Y010527D01*
X019083Y010546D01*
X019095Y010562D01*
X019111Y010576D01*
X019128Y010587D01*
X019147Y010595D01*
X019168Y010599D01*
X019188Y010599D01*
X019209Y010595D01*
X019228Y010587D01*
X019245Y010576D01*
X019261Y010562D01*
X019273Y010546D01*
X019282Y010527D01*
X019288Y010508D01*
X019290Y010487D01*
X019288Y010466D01*
X019282Y010447D01*
X019273Y010428D01*
X019261Y010412D01*
X019245Y010398D01*
X019228Y010387D01*
X019209Y010379D01*
X019188Y010375D01*
X019168Y010375D01*
X019147Y010379D01*
X019128Y010387D01*
X019111Y010398D01*
X019095Y010412D01*
X019083Y010428D01*
X019074Y010447D01*
X019068Y010466D01*
X019066Y010487D01*
X019003Y010342D02*
X018823Y010342D01*
X019003Y010162D01*
X018823Y010162D01*
X018978Y010837D02*
X019128Y010987D01*
X019178Y010987D01*
X019003Y011107D02*
X018958Y011062D01*
X018823Y011062D01*
X018823Y011017D02*
X018823Y011242D01*
X019003Y011242D02*
X019003Y011107D01*
X018913Y010972D02*
X018868Y010972D01*
X018823Y011017D01*
X019067Y004877D02*
X019247Y004877D01*
X019157Y003967D02*
X019157Y003787D01*
X019247Y003877D02*
X019067Y003877D01*
X012203Y015378D02*
X011933Y015378D01*
X012023Y015378D02*
X012023Y015513D01*
X012068Y015558D01*
X012158Y015558D01*
X012203Y015513D01*
X012203Y015378D01*
X012023Y015468D02*
X011933Y015558D01*
X011978Y015672D02*
X011933Y015717D01*
X011933Y015807D01*
X011978Y015853D01*
X012023Y015853D01*
X012068Y015807D01*
X012068Y015717D01*
X012113Y015672D01*
X012158Y015672D01*
X012203Y015717D01*
X012203Y015807D01*
X012158Y015853D01*
X012203Y015967D02*
X012203Y016147D01*
X012203Y016057D02*
X011933Y016057D01*
X011978Y016878D02*
X011933Y016923D01*
X011933Y017013D01*
X011978Y017058D01*
X012068Y017058D01*
X012068Y016968D01*
X012158Y017058D02*
X012203Y017013D01*
X012203Y016923D01*
X012158Y016878D01*
X011978Y016878D01*
X011933Y017172D02*
X012203Y017172D01*
X011933Y017353D01*
X012203Y017353D01*
X012203Y017467D02*
X012203Y017602D01*
X012158Y017647D01*
X011978Y017647D01*
X011933Y017602D01*
X011933Y017467D01*
X012203Y017467D01*
X011203Y017406D02*
X011203Y017316D01*
X011158Y017271D01*
X011113Y017271D01*
X011068Y017316D01*
X011068Y017406D01*
X011023Y017451D01*
X010978Y017451D01*
X010933Y017406D01*
X010933Y017316D01*
X010978Y017271D01*
X010978Y017156D02*
X011158Y017156D01*
X011203Y017111D01*
X011203Y017021D01*
X011158Y016976D01*
X010978Y016976D01*
X010933Y017021D01*
X010933Y017111D01*
X010978Y017156D01*
X011203Y017406D02*
X011158Y017451D01*
X011203Y017565D02*
X011203Y017655D01*
X011203Y017610D02*
X010933Y017610D01*
X010933Y017565D02*
X010933Y017655D01*
X010203Y017602D02*
X010203Y017512D01*
X010158Y017467D01*
X010203Y017353D02*
X010023Y017353D01*
X009933Y017262D01*
X010023Y017172D01*
X010203Y017172D01*
X010158Y017058D02*
X010113Y017058D01*
X010068Y017013D01*
X010023Y017058D01*
X009978Y017058D01*
X009933Y017013D01*
X009933Y016923D01*
X009978Y016878D01*
X010068Y016968D02*
X010068Y017013D01*
X010158Y017058D02*
X010203Y017013D01*
X010203Y016923D01*
X010158Y016878D01*
X010158Y016347D02*
X009978Y016347D01*
X009933Y016302D01*
X009933Y016212D01*
X009978Y016167D01*
X010158Y016167D01*
X010203Y016212D01*
X010203Y016302D01*
X010158Y016347D01*
X010158Y016053D02*
X010203Y016007D01*
X010203Y015917D01*
X010158Y015872D01*
X010113Y015872D01*
X010068Y015917D01*
X010068Y016007D01*
X010023Y016053D01*
X009978Y016053D01*
X009933Y016007D01*
X009933Y015917D01*
X009978Y015872D01*
X009933Y015766D02*
X009933Y015676D01*
X009933Y015721D02*
X010203Y015721D01*
X010203Y015676D02*
X010203Y015766D01*
X010203Y015561D02*
X009933Y015561D01*
X009933Y015381D02*
X010203Y015381D01*
X010113Y015471D01*
X010203Y015561D01*
X010933Y015513D02*
X010933Y015423D01*
X010978Y015378D01*
X011068Y015423D02*
X011068Y015513D01*
X011023Y015558D01*
X010978Y015558D01*
X010933Y015513D01*
X011068Y015423D02*
X011113Y015378D01*
X011158Y015378D01*
X011203Y015423D01*
X011203Y015513D01*
X011158Y015558D01*
X011158Y015672D02*
X010978Y015672D01*
X010933Y015717D01*
X010933Y015807D01*
X010978Y015853D01*
X011023Y015967D02*
X011203Y016147D01*
X011203Y015967D02*
X010933Y015967D01*
X011068Y016012D02*
X010933Y016147D01*
X011158Y015853D02*
X011203Y015807D01*
X011203Y015717D01*
X011158Y015672D01*
X011203Y016681D02*
X010933Y016681D01*
X010933Y016861D02*
X011203Y016861D01*
X011113Y016771D01*
X011203Y016681D01*
X010203Y017602D02*
X010158Y017647D01*
X010113Y017647D01*
X010068Y017602D01*
X010023Y017647D01*
X009978Y017647D01*
X009933Y017602D01*
X009933Y017512D01*
X009978Y017467D01*
X010068Y017557D02*
X010068Y017602D01*
X013283Y017578D02*
X013283Y017713D01*
X013328Y017758D01*
X013508Y017758D01*
X013553Y017713D01*
X013553Y017578D01*
X013283Y017578D01*
X013283Y017962D02*
X013553Y017962D01*
X013553Y017872D02*
X013553Y018053D01*
X013553Y018167D02*
X013553Y018302D01*
X013508Y018347D01*
X013418Y018347D01*
X013373Y018302D01*
X013373Y018167D01*
X013373Y018257D02*
X013283Y018347D01*
X013283Y018167D02*
X013553Y018167D01*
X014383Y018151D02*
X014653Y017971D01*
X014608Y017856D02*
X014518Y017856D01*
X014473Y017811D01*
X014473Y017676D01*
X014473Y017766D02*
X014383Y017856D01*
X014383Y017971D02*
X014653Y018151D01*
X014653Y018265D02*
X014653Y018355D01*
X014653Y018310D02*
X014383Y018310D01*
X014383Y018265D02*
X014383Y018355D01*
X014608Y017856D02*
X014653Y017811D01*
X014653Y017676D01*
X014383Y017676D01*
X015383Y017668D02*
X015653Y017668D01*
X015653Y017578D02*
X015653Y017758D01*
X015653Y017872D02*
X015383Y018053D01*
X015428Y018167D02*
X015383Y018212D01*
X015383Y018302D01*
X015428Y018347D01*
X015608Y018347D01*
X015653Y018302D01*
X015653Y018212D01*
X015608Y018167D01*
X015428Y018167D01*
X015653Y018053D02*
X015383Y017872D01*
X016383Y017962D02*
X016473Y018053D01*
X016653Y018053D01*
X016608Y018167D02*
X016653Y018212D01*
X016653Y018302D01*
X016608Y018347D01*
X016563Y018347D01*
X016518Y018302D01*
X016473Y018347D01*
X016428Y018347D01*
X016383Y018302D01*
X016383Y018212D01*
X016428Y018167D01*
X016518Y018257D02*
X016518Y018302D01*
X016383Y017962D02*
X016473Y017872D01*
X016653Y017872D01*
X016608Y017758D02*
X016563Y017758D01*
X016518Y017713D01*
X016473Y017758D01*
X016428Y017758D01*
X016383Y017713D01*
X016383Y017623D01*
X016428Y017578D01*
X016518Y017668D02*
X016518Y017713D01*
X016608Y017758D02*
X016653Y017713D01*
X016653Y017623D01*
X016608Y017578D01*
X017383Y017623D02*
X017383Y017713D01*
X017428Y017758D01*
X017383Y017623D02*
X017428Y017578D01*
X017608Y017578D01*
X017653Y017623D01*
X017653Y017713D01*
X017608Y017758D01*
X017653Y017872D02*
X017653Y018053D01*
X017653Y017962D02*
X017383Y017962D01*
X017428Y018167D02*
X017383Y018212D01*
X017383Y018302D01*
X017428Y018347D01*
X017473Y018347D01*
X017518Y018302D01*
X017518Y018212D01*
X017563Y018167D01*
X017608Y018167D01*
X017653Y018212D01*
X017653Y018302D01*
X017608Y018347D01*
X018383Y018302D02*
X018383Y018167D01*
X018653Y018167D01*
X018653Y018302D01*
X018608Y018347D01*
X018428Y018347D01*
X018383Y018302D01*
X018383Y018053D02*
X018653Y018053D01*
X018653Y017872D02*
X018383Y017872D01*
X018428Y017758D02*
X018518Y017758D01*
X018518Y017668D01*
X018608Y017758D02*
X018653Y017713D01*
X018653Y017623D01*
X018608Y017578D01*
X018428Y017578D01*
X018383Y017623D01*
X018383Y017713D01*
X018428Y017758D01*
X018653Y017872D02*
X018383Y018053D01*
X005053Y005547D02*
X004783Y005547D01*
X004783Y005367D02*
X005053Y005367D01*
X004963Y005457D01*
X005053Y005547D01*
X005053Y005253D02*
X004783Y005253D01*
X004873Y005162D01*
X004783Y005072D01*
X005053Y005072D01*
X005008Y004958D02*
X004918Y004958D01*
X004873Y004913D01*
X004873Y004778D01*
X004783Y004778D02*
X005053Y004778D01*
X005053Y004913D01*
X005008Y004958D01*
X004003Y005367D02*
X003823Y005367D01*
X003733Y005457D01*
X003823Y005547D01*
X004003Y005547D01*
X003868Y005253D02*
X003868Y005072D01*
X003958Y005162D02*
X003778Y005162D01*
X003053Y005122D02*
X002783Y005303D01*
X003053Y005303D01*
X003053Y005417D02*
X002783Y005417D01*
X002783Y005552D01*
X002828Y005597D01*
X003008Y005597D01*
X003053Y005552D01*
X003053Y005417D01*
X003053Y005122D02*
X002783Y005122D01*
X002828Y005008D02*
X002918Y005008D01*
X002918Y004918D01*
X003008Y005008D02*
X003053Y004963D01*
X003053Y004873D01*
X003008Y004828D01*
X002828Y004828D01*
X002783Y004873D01*
X002783Y004963D01*
X002828Y005008D01*
D12*
X004314Y001057D02*
X004354Y001017D01*
X004394Y001057D02*
X004434Y001017D01*
X004394Y001057D02*
X004394Y001137D01*
X004314Y001137D02*
X004314Y001057D01*
X004523Y000897D02*
X004523Y000857D01*
X004563Y000857D01*
X004563Y000897D01*
X004523Y000897D01*
X004655Y000857D02*
X004695Y000897D01*
X004695Y001057D01*
X004735Y001017D02*
X004655Y001017D01*
X004867Y001017D02*
X004867Y000857D01*
X004907Y000857D02*
X004826Y000857D01*
X004867Y001017D02*
X004907Y001017D01*
X004867Y001097D02*
X004867Y001137D01*
X005262Y000977D02*
X005262Y000937D01*
X005422Y000937D01*
X005422Y000977D02*
X005382Y001017D01*
X005302Y001017D01*
X005262Y000977D01*
X005302Y000857D02*
X005382Y000857D01*
X005422Y000897D01*
X005422Y000977D01*
X005517Y001017D02*
X005637Y000937D01*
X005517Y000857D01*
X005637Y000857D02*
X005637Y001097D01*
X005735Y000977D02*
X005735Y000857D01*
X005855Y000857D01*
X005895Y000897D01*
X005855Y000937D01*
X005735Y000937D01*
X005735Y000977D02*
X005775Y001017D01*
X005855Y001017D01*
X005987Y001017D02*
X006067Y001017D01*
X006027Y001057D02*
X006027Y000897D01*
X005987Y000857D01*
X006416Y000857D02*
X006456Y000897D01*
X006456Y001057D01*
X006496Y001017D02*
X006416Y001017D01*
X006594Y001017D02*
X006594Y000857D01*
X006714Y000857D01*
X006754Y000897D01*
X006754Y001017D01*
X006852Y000977D02*
X006892Y001017D01*
X007012Y001017D01*
X007012Y001097D02*
X007012Y000857D01*
X006892Y000857D01*
X006852Y000897D01*
X006852Y000977D01*
X007368Y000977D02*
X007408Y001017D01*
X007488Y001017D01*
X007528Y000977D01*
X007528Y000897D01*
X007488Y000857D01*
X007408Y000857D01*
X007368Y000897D01*
X007368Y000977D01*
X007625Y001017D02*
X007745Y001017D01*
X007786Y000977D01*
X007786Y000897D01*
X007745Y000857D01*
X007625Y000857D01*
X007625Y001097D01*
X008141Y000977D02*
X008181Y001017D01*
X008261Y001017D01*
X008301Y000977D01*
X008301Y000897D01*
X008261Y000857D01*
X008181Y000857D01*
X008141Y000897D01*
X008141Y000977D01*
X008393Y001017D02*
X008473Y001017D01*
X008433Y001057D02*
X008433Y000897D01*
X008393Y000857D01*
X008823Y000857D02*
X008863Y000897D01*
X008863Y001057D01*
X008903Y001017D02*
X008823Y001017D01*
X009000Y000977D02*
X009000Y000857D01*
X009000Y000977D02*
X009040Y001017D01*
X009121Y001017D01*
X009161Y000977D01*
X009258Y001017D02*
X009258Y000817D01*
X009298Y000777D01*
X009338Y000777D01*
X009378Y000857D02*
X009258Y000857D01*
X009161Y000857D02*
X009161Y001097D01*
X009258Y001017D02*
X009378Y001017D01*
X009418Y000977D01*
X009418Y000897D01*
X009378Y000857D01*
X009516Y000857D02*
X009516Y001017D01*
X009676Y001017D02*
X009676Y000897D01*
X009636Y000857D01*
X009516Y000857D01*
X009774Y000857D02*
X009774Y000977D01*
X009814Y001017D01*
X009894Y001017D01*
X009894Y000937D02*
X009774Y000937D01*
X009774Y000857D02*
X009894Y000857D01*
X009934Y000897D01*
X009894Y000937D01*
X010032Y000977D02*
X010032Y000857D01*
X010032Y000977D02*
X010072Y001017D01*
X010192Y001017D01*
X010192Y000857D01*
X010547Y000937D02*
X010707Y000937D01*
X010707Y000977D02*
X010667Y001017D01*
X010587Y001017D01*
X010547Y000977D01*
X010547Y000937D01*
X010587Y000857D02*
X010667Y000857D01*
X010707Y000897D01*
X010707Y000977D01*
X010805Y001017D02*
X010885Y000857D01*
X010965Y001017D01*
X011063Y000977D02*
X011063Y000857D01*
X011183Y000857D01*
X011223Y000897D01*
X011183Y000937D01*
X011063Y000937D01*
X011063Y000977D02*
X011103Y001017D01*
X011183Y001017D01*
X011321Y000977D02*
X011321Y000857D01*
X011321Y000977D02*
X011361Y001017D01*
X011441Y001017D01*
X011481Y000977D01*
X011481Y001097D02*
X011481Y000857D01*
X011836Y000937D02*
X011997Y000937D01*
X011997Y000977D02*
X011957Y001017D01*
X011876Y001017D01*
X011836Y000977D01*
X011836Y000937D01*
X011876Y000857D02*
X011957Y000857D01*
X011997Y000897D01*
X011997Y000977D01*
X012094Y000857D02*
X012094Y001097D01*
X012254Y001097D02*
X012254Y000857D01*
X012174Y000937D01*
X012094Y000857D01*
X012601Y000857D02*
X012641Y000857D01*
X012641Y000897D01*
X012601Y000897D01*
X012601Y000857D01*
X012739Y000897D02*
X012779Y000857D01*
X012899Y000857D01*
X012899Y000777D02*
X012899Y001017D01*
X012779Y001017D01*
X012739Y000977D01*
X012739Y000897D01*
X012997Y000897D02*
X013037Y000857D01*
X013157Y000857D01*
X013117Y000937D02*
X013157Y000977D01*
X013117Y001017D01*
X012997Y001017D01*
X013037Y000937D02*
X013117Y000937D01*
X013037Y000937D02*
X012997Y000897D01*
X013254Y000937D02*
X013375Y000937D01*
X013415Y000897D01*
X013375Y000857D01*
X013254Y000857D01*
X013254Y000977D01*
X013294Y001017D01*
X013375Y001017D01*
X013509Y001017D02*
X013549Y001017D01*
X013629Y000937D01*
X013629Y000857D02*
X013629Y001017D01*
X013727Y001017D02*
X013727Y000817D01*
X013767Y000777D01*
X013807Y000777D01*
X013847Y000857D02*
X013727Y000857D01*
X013847Y000857D02*
X013887Y000897D01*
X013887Y000977D01*
X013847Y001017D01*
X013727Y001017D01*
X014240Y001017D02*
X014280Y001017D01*
X014360Y000937D01*
X014360Y000857D02*
X014360Y001017D01*
X014458Y001017D02*
X014458Y000857D01*
X014578Y000857D01*
X014618Y000897D01*
X014618Y001017D01*
X014715Y000977D02*
X014755Y001017D01*
X014836Y001017D01*
X014876Y000977D01*
X014876Y000897D01*
X014836Y000857D01*
X014755Y000857D01*
X014715Y000897D01*
X014715Y000977D01*
X015231Y000977D02*
X015231Y000857D01*
X015231Y000977D02*
X015271Y001017D01*
X015391Y001017D01*
X015391Y000857D01*
X015483Y000857D02*
X015563Y000857D01*
X015523Y000857D02*
X015523Y001017D01*
X015563Y001017D01*
X015523Y001097D02*
X015523Y001137D01*
X015661Y000977D02*
X015661Y000857D01*
X015661Y000977D02*
X015701Y001017D01*
X015781Y001017D01*
X015821Y000977D01*
X015913Y001017D02*
X015993Y001017D01*
X015953Y001057D02*
X015953Y000897D01*
X015913Y000857D01*
X015821Y000857D02*
X015821Y001097D01*
X016125Y001097D02*
X016125Y001137D01*
X016125Y001017D02*
X016125Y000857D01*
X016165Y000857D02*
X016085Y000857D01*
X016125Y001017D02*
X016165Y001017D01*
X016262Y001017D02*
X016262Y000897D01*
X016302Y000857D01*
X016342Y000897D01*
X016382Y000857D01*
X016422Y000897D01*
X016422Y001017D01*
X016778Y001017D02*
X016898Y001017D01*
X016938Y000977D01*
X016898Y000937D01*
X016818Y000937D01*
X016778Y000897D01*
X016818Y000857D01*
X016938Y000857D01*
X017030Y000857D02*
X017110Y000857D01*
X017070Y000857D02*
X017070Y001017D01*
X017110Y001017D01*
X017070Y001097D02*
X017070Y001137D01*
X017466Y001017D02*
X017466Y000817D01*
X017506Y000777D01*
X017546Y000777D01*
X017586Y000857D02*
X017466Y000857D01*
X017586Y000857D02*
X017626Y000897D01*
X017626Y000977D01*
X017586Y001017D01*
X017466Y001017D01*
X017723Y000977D02*
X017723Y000857D01*
X017723Y000977D02*
X017763Y001017D01*
X017883Y001017D01*
X017883Y000857D01*
X017975Y000857D02*
X018055Y000857D01*
X018015Y000857D02*
X018015Y001017D01*
X018055Y001017D01*
X018015Y001097D02*
X018015Y001137D01*
X018153Y001017D02*
X018153Y000817D01*
X018193Y000777D01*
X018233Y000777D01*
X018273Y000857D02*
X018153Y000857D01*
X018273Y000857D02*
X018313Y000897D01*
X018313Y001017D01*
X018445Y001097D02*
X018445Y000857D01*
X018485Y000857D02*
X018405Y000857D01*
X018663Y000977D02*
X018743Y000977D01*
X018743Y001097D02*
X018583Y001097D01*
X018485Y001097D02*
X018445Y001097D01*
X018743Y001097D02*
X018743Y000857D01*
X018878Y001017D02*
X018838Y001057D01*
X018838Y001137D01*
X018918Y001137D02*
X018918Y001057D01*
X018958Y001017D01*
D13*
X013673Y001607D03*
X012723Y001967D03*
X011313Y001647D03*
D14*
X011183Y001787D03*
X011173Y001797D03*
X011163Y001807D03*
X011153Y001817D03*
X011143Y001827D03*
X011133Y001837D03*
X011123Y001847D03*
X011113Y001857D03*
X011103Y001867D03*
X011093Y001877D03*
X011083Y001887D03*
X011073Y001897D03*
X011063Y001907D03*
X010953Y001907D03*
X010943Y001897D03*
X010933Y001887D03*
X010923Y001877D03*
X010913Y001867D03*
X010903Y001857D03*
X010893Y001847D03*
X010763Y001727D03*
X010753Y001717D03*
X010743Y001707D03*
X010733Y001697D03*
X010723Y001687D03*
X010713Y001677D03*
X010703Y001667D03*
X009283Y001707D03*
X009283Y001907D03*
X012213Y001707D03*
X012713Y001707D03*
X013653Y001907D03*
X013683Y001617D03*
X014163Y001707D03*
X014163Y001907D03*
D15*
X013688Y001627D03*
X011008Y001947D03*
X009298Y001917D03*
D16*
X011008Y001937D03*
X013708Y001637D03*
D17*
X010693Y001637D03*
X009423Y003457D03*
D18*
X013873Y001647D03*
D19*
X013903Y001967D03*
X012473Y001647D03*
X012383Y003867D03*
X011363Y005027D03*
D20*
X011003Y001967D03*
X011243Y001727D03*
X011253Y001717D03*
X011263Y001707D03*
X011273Y001697D03*
X011283Y001687D03*
X011293Y001677D03*
X011303Y001667D03*
X011313Y001657D03*
X010693Y001647D03*
X009273Y001727D03*
X009273Y001737D03*
X009273Y001747D03*
X009273Y001757D03*
X009273Y001767D03*
X009273Y001777D03*
X009273Y001787D03*
X009273Y001797D03*
X009273Y001807D03*
X009273Y001817D03*
X009273Y001827D03*
X009273Y001837D03*
X009273Y001847D03*
X009273Y001857D03*
X009273Y001867D03*
X009273Y001877D03*
X009273Y001887D03*
X012723Y001957D03*
X013643Y001717D03*
D21*
X010998Y001767D03*
X009598Y001647D03*
X009438Y003487D03*
D22*
X013898Y001657D03*
D23*
X012473Y001657D03*
X011353Y005017D03*
D24*
X012198Y001957D03*
X012198Y001947D03*
X012198Y001937D03*
X012198Y001927D03*
X012198Y001917D03*
X012198Y001907D03*
X012198Y001897D03*
X012198Y001887D03*
X012198Y001877D03*
X012198Y001867D03*
X012198Y001857D03*
X012198Y001847D03*
X012198Y001837D03*
X012198Y001827D03*
X012198Y001817D03*
X012198Y001807D03*
X012198Y001797D03*
X012198Y001787D03*
X012198Y001777D03*
X012198Y001767D03*
X012198Y001757D03*
X012198Y001747D03*
X012198Y001737D03*
X012198Y001727D03*
X012208Y001717D03*
X012718Y001717D03*
X012728Y001727D03*
X012728Y001737D03*
X012728Y001747D03*
X012728Y001757D03*
X012728Y001767D03*
X012728Y001777D03*
X012728Y001787D03*
X012728Y001797D03*
X012728Y001807D03*
X012728Y001817D03*
X012728Y001827D03*
X012728Y001837D03*
X012728Y001847D03*
X012728Y001857D03*
X012728Y001867D03*
X012728Y001877D03*
X012728Y001887D03*
X012728Y001897D03*
X012728Y001907D03*
X012728Y001917D03*
X012728Y001927D03*
X012728Y001937D03*
X012728Y001947D03*
X013638Y001887D03*
X013638Y001877D03*
X013638Y001867D03*
X013638Y001857D03*
X013638Y001847D03*
X013638Y001837D03*
X013638Y001827D03*
X013638Y001817D03*
X013638Y001807D03*
X013638Y001797D03*
X013638Y001787D03*
X013638Y001777D03*
X013638Y001767D03*
X013638Y001757D03*
X013638Y001747D03*
X013638Y001737D03*
X013638Y001727D03*
X013648Y001707D03*
X013648Y001897D03*
X014168Y001897D03*
X014168Y001887D03*
X014168Y001877D03*
X014168Y001867D03*
X014168Y001857D03*
X014168Y001847D03*
X014168Y001837D03*
X014168Y001827D03*
X014168Y001817D03*
X014168Y001807D03*
X014168Y001797D03*
X014168Y001787D03*
X014168Y001777D03*
X014168Y001767D03*
X014168Y001757D03*
X014168Y001747D03*
X014168Y001737D03*
X014168Y001727D03*
X014168Y001717D03*
X010698Y001657D03*
X009808Y001697D03*
X009808Y001707D03*
X009808Y001717D03*
X009808Y001727D03*
X009808Y001737D03*
X009808Y001747D03*
X009808Y001757D03*
X009808Y001767D03*
X009808Y001777D03*
X009808Y001787D03*
X009808Y001797D03*
X009808Y001807D03*
X009808Y001817D03*
X009808Y001827D03*
X009808Y001837D03*
X009808Y001847D03*
X009808Y001857D03*
X009808Y001867D03*
X009808Y001877D03*
X009808Y001887D03*
X009808Y001897D03*
X009808Y001907D03*
X009808Y001917D03*
X009278Y001897D03*
X009278Y001717D03*
D25*
X009583Y001657D03*
X011333Y005007D03*
D26*
X010933Y004687D03*
X013903Y001667D03*
D27*
X012468Y001667D03*
X010998Y001757D03*
D28*
X009568Y001667D03*
X012468Y001687D03*
D29*
X013903Y001677D03*
X013903Y001937D03*
X013553Y004697D03*
X009843Y004187D03*
X009443Y003497D03*
D30*
X009578Y001957D03*
X010998Y001737D03*
X012468Y001677D03*
X013898Y004267D03*
D31*
X011328Y004997D03*
X009558Y001677D03*
D32*
X009563Y001947D03*
X010943Y004697D03*
X012613Y002937D03*
X013903Y001927D03*
X013903Y001687D03*
D33*
X012393Y003837D03*
X009553Y001937D03*
X009553Y001687D03*
D34*
X010818Y001777D03*
X010828Y001787D03*
X010838Y001797D03*
X010848Y001807D03*
X010858Y001817D03*
X010868Y001827D03*
X010878Y001837D03*
X011008Y001957D03*
X011188Y001777D03*
X012228Y001697D03*
X014148Y001697D03*
D35*
X014143Y001917D03*
X013663Y001697D03*
X012703Y001697D03*
X009303Y001697D03*
D36*
X010998Y001747D03*
X012388Y003847D03*
X013908Y001947D03*
D37*
X013673Y001917D03*
D38*
X011008Y001917D03*
X011378Y005037D03*
D39*
X012378Y003877D03*
X011008Y001927D03*
D40*
X009548Y001927D03*
X013888Y004277D03*
D41*
X013543Y004707D03*
X013903Y001957D03*
X009853Y004197D03*
X009603Y001967D03*
D42*
X012198Y001967D03*
D43*
X012618Y002907D03*
D44*
X012618Y002917D03*
D45*
X012613Y002927D03*
D46*
X012608Y002947D03*
X010958Y004707D03*
D47*
X009458Y003517D03*
X012608Y002957D03*
D48*
X012603Y002967D03*
X009463Y003527D03*
D49*
X012603Y002977D03*
X013593Y004647D03*
D50*
X013598Y004637D03*
X013848Y004327D03*
X012598Y002987D03*
D51*
X012598Y002997D03*
X011058Y004787D03*
X009478Y003557D03*
D52*
X011113Y004827D03*
X011123Y004837D03*
X011133Y004847D03*
X011153Y004857D03*
X011163Y004867D03*
X012593Y003007D03*
X013623Y004607D03*
D53*
X013633Y004597D03*
X012593Y003017D03*
D54*
X012593Y003027D03*
X013793Y004397D03*
D55*
X013778Y004417D03*
X013668Y004557D03*
X012588Y003037D03*
D56*
X012583Y003047D03*
X012413Y003737D03*
X013693Y004517D03*
X013713Y004497D03*
X013753Y004447D03*
X013763Y004437D03*
X009773Y004067D03*
X009513Y003617D03*
D57*
X012583Y003057D03*
D58*
X012578Y003067D03*
X012418Y003717D03*
X009528Y003637D03*
D59*
X009538Y003657D03*
X009748Y004027D03*
X012578Y003077D03*
D60*
X012573Y003087D03*
X012423Y003697D03*
D61*
X012573Y003097D03*
X009543Y003667D03*
D62*
X009728Y003987D03*
X012428Y003677D03*
X012568Y003107D03*
D63*
X012568Y003117D03*
X009568Y003707D03*
D64*
X009578Y003727D03*
X009718Y003967D03*
X012438Y003657D03*
X012568Y003127D03*
D65*
X012563Y003137D03*
X009693Y003927D03*
X009593Y003757D03*
D66*
X009598Y003767D03*
X009608Y003777D03*
X009688Y003917D03*
X012438Y003637D03*
X012558Y003147D03*
D67*
X012558Y003157D03*
X009668Y003877D03*
X009658Y003867D03*
X009648Y003847D03*
X009638Y003827D03*
X009628Y003817D03*
X009628Y003807D03*
X009618Y003797D03*
D68*
X009643Y003837D03*
X009653Y003857D03*
X012443Y003617D03*
X012553Y003167D03*
D69*
X012553Y003177D03*
D70*
X012548Y003187D03*
X012448Y003597D03*
D71*
X012548Y003197D03*
D72*
X012543Y003207D03*
X012543Y003217D03*
X012453Y003577D03*
D73*
X012463Y003547D03*
X012543Y003227D03*
D74*
X012538Y003237D03*
D75*
X012533Y003247D03*
X012533Y003257D03*
X012463Y003537D03*
D76*
X012473Y003507D03*
X012473Y003497D03*
X012533Y003267D03*
D77*
X012528Y003277D03*
X012528Y003287D03*
X012478Y003477D03*
D78*
X012473Y003487D03*
X012483Y003467D03*
X012523Y003307D03*
X012523Y003297D03*
D79*
X012518Y003317D03*
X012518Y003327D03*
X012488Y003437D03*
X012488Y003447D03*
X012478Y003457D03*
D80*
X012493Y003427D03*
X012493Y003417D03*
X012493Y003407D03*
X012503Y003377D03*
X012503Y003367D03*
X012513Y003347D03*
X012513Y003337D03*
D81*
X012508Y003357D03*
X012498Y003387D03*
X012498Y003397D03*
D82*
X009423Y003467D03*
D83*
X009433Y003477D03*
D84*
X009453Y003507D03*
X009843Y004177D03*
X013563Y004687D03*
D85*
X012468Y003527D03*
X012468Y003517D03*
D86*
X013858Y004317D03*
X011268Y004947D03*
X011008Y004747D03*
X009468Y003537D03*
D87*
X009473Y003547D03*
X009813Y004137D03*
X011253Y004937D03*
D88*
X012458Y003567D03*
X012458Y003557D03*
D89*
X012403Y003777D03*
X011083Y004807D03*
X009803Y004117D03*
X009483Y003567D03*
D90*
X009488Y003577D03*
X009798Y004107D03*
X012408Y003767D03*
X013818Y004367D03*
D91*
X012453Y003587D03*
D92*
X012408Y003757D03*
X013648Y004577D03*
X013798Y004387D03*
X009498Y003587D03*
D93*
X009503Y003597D03*
X012413Y003747D03*
X013783Y004407D03*
D94*
X012448Y003607D03*
D95*
X013688Y004527D03*
X013768Y004427D03*
X009508Y003607D03*
D96*
X009613Y003787D03*
X009673Y003887D03*
X009673Y003897D03*
X009683Y003907D03*
X012443Y003627D03*
D97*
X012418Y003727D03*
X009768Y004057D03*
X009518Y003627D03*
D98*
X009588Y003747D03*
X009698Y003937D03*
X012438Y003647D03*
D99*
X012423Y003707D03*
X009533Y003647D03*
D100*
X009563Y003697D03*
X009723Y003977D03*
X012433Y003667D03*
D101*
X012428Y003687D03*
X009738Y004007D03*
X009548Y003677D03*
D102*
X009553Y003687D03*
X009733Y003997D03*
D103*
X009573Y003717D03*
D104*
X009583Y003737D03*
X009703Y003947D03*
X009713Y003957D03*
D105*
X009813Y004127D03*
X011043Y004777D03*
X011223Y004917D03*
X012403Y003787D03*
X013613Y004627D03*
X013843Y004337D03*
D106*
X012398Y003797D03*
X011018Y004757D03*
D107*
X011278Y004957D03*
X012398Y003807D03*
D108*
X012393Y003817D03*
X011293Y004967D03*
X010983Y004727D03*
D109*
X012393Y003827D03*
X013883Y004287D03*
D110*
X012388Y003857D03*
D111*
X009748Y004017D03*
D112*
X009758Y004037D03*
D113*
X009763Y004047D03*
D114*
X009783Y004077D03*
X013673Y004547D03*
X013683Y004537D03*
D115*
X013658Y004567D03*
X009788Y004087D03*
D116*
X009793Y004097D03*
X013643Y004587D03*
D117*
X009823Y004147D03*
D118*
X009828Y004157D03*
D119*
X009833Y004167D03*
X010973Y004717D03*
X011303Y004977D03*
D120*
X009853Y004207D03*
D121*
X009863Y004217D03*
X013533Y004727D03*
D122*
X013923Y004237D03*
D123*
X013913Y004247D03*
D124*
X013903Y004257D03*
D125*
X013878Y004297D03*
X013578Y004667D03*
D126*
X013868Y004307D03*
D127*
X013833Y004347D03*
X011213Y004907D03*
D128*
X011188Y004887D03*
X011178Y004877D03*
X011098Y004817D03*
X013828Y004357D03*
D129*
X013808Y004377D03*
D130*
X013748Y004457D03*
X013738Y004467D03*
X013728Y004477D03*
X013718Y004487D03*
X013708Y004507D03*
D131*
X013618Y004617D03*
X011198Y004897D03*
X011068Y004797D03*
D132*
X010993Y004737D03*
X013583Y004657D03*
D133*
X010893Y004657D03*
D134*
X010908Y004667D03*
D135*
X013568Y004677D03*
D136*
X010918Y004677D03*
D137*
X013538Y004717D03*
D138*
X011033Y004767D03*
D139*
X011238Y004927D03*
D140*
X011313Y004987D03*
D141*
X011488Y005037D03*
M02*
