G75*
G70*
%OFA0B0*%
%FSLAX24Y24*%
%IPPOS*%
%LPD*%
%AMOC8*
5,1,8,0,0,1.08239X$1,22.5*
%
%ADD10R,0.0866X0.0236*%
%ADD11R,0.0472X0.0315*%
%ADD12R,0.0472X0.0472*%
%ADD13R,0.0512X0.0591*%
%ADD14R,0.0220X0.0500*%
%ADD15R,0.0500X0.0220*%
%ADD16R,0.0906X0.0630*%
%ADD17R,0.0433X0.0748*%
%ADD18R,0.0315X0.0472*%
%ADD19C,0.0740*%
%ADD20R,0.0600X0.0600*%
%ADD21OC8,0.0600*%
%ADD22R,0.0689X0.0689*%
%ADD23R,0.0256X0.0146*%
%ADD24R,0.0146X0.0256*%
%ADD25R,0.0098X0.0236*%
%ADD26R,0.0236X0.0098*%
%ADD27R,0.0591X0.0512*%
%ADD28R,0.0315X0.0098*%
%ADD29R,0.0098X0.0315*%
%ADD30C,0.0600*%
%ADD31C,0.0594*%
%ADD32R,0.0177X0.0591*%
%ADD33R,0.0472X0.0709*%
%ADD34R,0.0335X0.0276*%
%ADD35R,0.0394X0.0709*%
%ADD36R,0.1634X0.0748*%
%ADD37C,0.0100*%
%ADD38C,0.0320*%
%ADD39C,0.0080*%
D10*
X010154Y001087D03*
X010154Y001587D03*
X010154Y002087D03*
X010154Y002587D03*
X012201Y002587D03*
X012201Y002087D03*
X012201Y001587D03*
X012201Y001087D03*
X015154Y001087D03*
X015154Y001587D03*
X015154Y002087D03*
X015154Y002587D03*
X017201Y002587D03*
X017201Y002087D03*
X017201Y001587D03*
X017201Y001087D03*
D11*
X018283Y001292D03*
X018283Y002001D03*
X018278Y002582D03*
X018278Y003291D03*
X017383Y005178D03*
X017383Y005887D03*
X016588Y005886D03*
X016588Y005177D03*
X016578Y007382D03*
X015878Y007382D03*
X015878Y008091D03*
X016578Y008091D03*
X017478Y008091D03*
X017478Y007382D03*
X020583Y008935D03*
X020583Y009644D03*
X016272Y010680D03*
X016272Y011389D03*
X015466Y011389D03*
X015466Y010680D03*
X012778Y010482D03*
X012778Y011191D03*
X012722Y009191D03*
X012722Y008482D03*
X010723Y012077D03*
X010723Y012786D03*
X009823Y012786D03*
X009823Y012077D03*
X008923Y012077D03*
X008923Y012786D03*
X007923Y012786D03*
X007923Y012077D03*
X013478Y017182D03*
X013478Y017891D03*
X013278Y003791D03*
X013278Y003082D03*
X012378Y003082D03*
X012378Y003791D03*
X014038Y001791D03*
X014038Y001082D03*
X009078Y001082D03*
X009078Y001791D03*
D12*
X010764Y003437D03*
X011591Y003437D03*
X007996Y004952D03*
X007169Y004952D03*
X015764Y003437D03*
X016591Y003437D03*
X019578Y007337D03*
D13*
X017499Y006682D03*
X016830Y006682D03*
X016812Y008937D03*
X016143Y008937D03*
X011487Y006679D03*
X010818Y006679D03*
X010830Y005732D03*
X011499Y005732D03*
X011512Y004852D03*
X010843Y004852D03*
X009912Y004847D03*
X009243Y004847D03*
X009238Y003432D03*
X009907Y003432D03*
X008097Y006702D03*
X007428Y006702D03*
X014068Y003443D03*
X014737Y003443D03*
D14*
X010225Y007842D03*
X009910Y007842D03*
X009595Y007842D03*
X009280Y007842D03*
X008965Y007842D03*
X008650Y007842D03*
X008335Y007842D03*
X008020Y007842D03*
X008020Y011222D03*
X008335Y011222D03*
X008650Y011222D03*
X008965Y011222D03*
X009280Y011222D03*
X009595Y011222D03*
X009910Y011222D03*
X010225Y011222D03*
D15*
X010813Y010634D03*
X010813Y010319D03*
X010813Y010004D03*
X010813Y009689D03*
X010813Y009374D03*
X010813Y009059D03*
X010813Y008744D03*
X010813Y008429D03*
X007433Y008429D03*
X007433Y008744D03*
X007433Y009059D03*
X007433Y009374D03*
X007433Y009689D03*
X007433Y010004D03*
X007433Y010319D03*
X007433Y010634D03*
D16*
X011948Y012992D03*
X014428Y012992D03*
D17*
X007275Y013260D03*
X006370Y013260D03*
X006370Y011803D03*
X007275Y011803D03*
D18*
X009208Y006692D03*
X009917Y006692D03*
X009917Y005737D03*
X009208Y005737D03*
X012623Y006337D03*
X013332Y006337D03*
X013332Y005037D03*
X012623Y005037D03*
X017723Y008937D03*
X018432Y008937D03*
X019266Y009162D03*
X019975Y009162D03*
X015532Y012037D03*
X014823Y012037D03*
D19*
X014478Y019037D03*
X013478Y019037D03*
X015478Y019037D03*
X016478Y019037D03*
X017478Y019037D03*
X018478Y019037D03*
D20*
X010078Y018237D03*
D21*
X010078Y019237D03*
X011078Y019237D03*
X012078Y019237D03*
X012078Y018237D03*
X011078Y018237D03*
D22*
X014778Y005637D03*
D23*
X015467Y005765D03*
X015467Y006021D03*
X015467Y005509D03*
X015467Y005253D03*
X014089Y005253D03*
X014089Y005509D03*
X014089Y005765D03*
X014089Y006021D03*
D24*
X014394Y006326D03*
X014650Y006326D03*
X014906Y006326D03*
X015162Y006326D03*
X015162Y004948D03*
X014906Y004948D03*
X014650Y004948D03*
X014394Y004948D03*
D25*
X017486Y009879D03*
X017682Y009879D03*
X017879Y009879D03*
X018076Y009879D03*
X018273Y009879D03*
X018470Y009879D03*
X018667Y009879D03*
X018864Y009879D03*
X018864Y011395D03*
X018667Y011395D03*
X018470Y011395D03*
X018273Y011395D03*
X018076Y011395D03*
X017879Y011395D03*
X017682Y011395D03*
X017486Y011395D03*
D26*
X017220Y011129D03*
X017220Y010932D03*
X017220Y010735D03*
X017220Y010538D03*
X017220Y010341D03*
X017220Y010145D03*
X019129Y010145D03*
X019129Y010341D03*
X019129Y010538D03*
X019129Y010735D03*
X019129Y010932D03*
X019129Y011129D03*
D27*
X013878Y011171D03*
X013878Y010502D03*
X014478Y017202D03*
X014478Y017871D03*
X015478Y017871D03*
X015478Y017202D03*
X005038Y017396D03*
X005038Y018065D03*
X005038Y018796D03*
X005038Y019465D03*
X005038Y016645D03*
X005038Y015976D03*
X005038Y015245D03*
X005038Y014576D03*
D28*
X018620Y007829D03*
X018620Y007632D03*
X018620Y007435D03*
X018620Y007238D03*
X018620Y007041D03*
X018620Y006845D03*
X020529Y006845D03*
X020529Y007041D03*
X020529Y007238D03*
X020529Y007435D03*
X020529Y007632D03*
X020529Y007829D03*
D29*
X020264Y008095D03*
X020067Y008095D03*
X019870Y008095D03*
X019673Y008095D03*
X019476Y008095D03*
X019279Y008095D03*
X019082Y008095D03*
X018886Y008095D03*
X018886Y006579D03*
X019082Y006579D03*
X019279Y006579D03*
X019476Y006579D03*
X019673Y006579D03*
X019870Y006579D03*
X020067Y006579D03*
X020264Y006579D03*
D30*
X020348Y004887D02*
X019748Y004887D01*
X019748Y003887D02*
X020348Y003887D01*
X017578Y012937D02*
X016978Y012937D01*
X016978Y013937D02*
X017578Y013937D01*
X017578Y014937D02*
X016978Y014937D01*
X016978Y015937D02*
X017578Y015937D01*
X017578Y016937D02*
X016978Y016937D01*
X019778Y016937D02*
X020378Y016937D01*
X020378Y015937D02*
X019778Y015937D01*
X019778Y014937D02*
X020378Y014937D01*
X020378Y013937D02*
X019778Y013937D01*
X004878Y012437D02*
X004878Y011837D01*
X003878Y011837D02*
X003878Y012437D01*
X002878Y012437D02*
X002878Y011837D01*
X002878Y010537D02*
X002878Y009937D01*
X003878Y009937D02*
X003878Y010537D01*
X004878Y010537D02*
X004878Y009937D01*
X004878Y008637D02*
X004878Y008037D01*
X003878Y008037D02*
X003878Y008637D01*
X002878Y008637D02*
X002878Y008037D01*
X002878Y006837D02*
X002878Y006237D01*
X003878Y006237D02*
X003878Y006837D01*
X004878Y006837D02*
X004878Y006237D01*
X003598Y013637D02*
X002998Y013637D01*
X002998Y014637D02*
X003598Y014637D01*
X003598Y015637D02*
X002998Y015637D01*
X002998Y016637D02*
X003598Y016637D01*
D31*
X006578Y018240D02*
X006578Y018834D01*
X007578Y018834D02*
X007578Y018240D01*
X008578Y018240D02*
X008578Y018834D01*
D32*
X013403Y009396D03*
X013653Y009396D03*
X013903Y009396D03*
X014153Y009396D03*
X014403Y009396D03*
X014653Y009396D03*
X014903Y009396D03*
X015153Y009396D03*
X015153Y007278D03*
X014903Y007278D03*
X014653Y007278D03*
X014403Y007278D03*
X014153Y007278D03*
X013903Y007278D03*
X013653Y007278D03*
X013403Y007278D03*
D33*
X003727Y004637D03*
X002428Y004637D03*
D34*
X004323Y004837D03*
X004953Y004837D03*
D35*
X003529Y003337D03*
X002427Y003337D03*
D36*
X004990Y002517D03*
X007746Y002517D03*
D37*
X002327Y003437D02*
X002278Y003437D01*
X002778Y003937D01*
X004278Y003937D01*
X004953Y004612D01*
X004953Y004837D01*
X004323Y004837D02*
X003878Y004837D01*
X003878Y004787D01*
X003727Y004637D01*
X003878Y004837D02*
X003778Y004937D01*
X004323Y004837D02*
X004323Y006091D01*
X003878Y006537D01*
X002878Y006537D02*
X002428Y006087D01*
X002428Y004637D01*
X002327Y003437D02*
X002427Y003337D01*
X003529Y003337D02*
X004178Y003337D01*
X004029Y002837D02*
X004670Y002837D01*
X004990Y002517D01*
X006424Y001082D01*
X009078Y001082D01*
X009578Y001082D01*
X009578Y002437D01*
X009728Y002587D01*
X010154Y002587D01*
X010154Y002087D02*
X011178Y002087D01*
X011178Y002637D01*
X010893Y002922D01*
X009323Y002922D01*
X009323Y003347D01*
X009238Y003432D01*
X009238Y003431D01*
X009323Y002922D02*
X009065Y002664D01*
X009065Y002502D01*
X009065Y001804D01*
X009078Y001791D01*
X009065Y002502D02*
X009050Y002517D01*
X009034Y002517D01*
X009040Y002511D01*
X009046Y002511D01*
X009034Y002517D02*
X007746Y002517D01*
X008653Y003872D02*
X007996Y004528D01*
X007996Y004952D01*
X007428Y005210D02*
X007169Y004952D01*
X007428Y005210D02*
X007428Y006702D01*
X007978Y006582D02*
X007978Y006037D01*
X007978Y006582D02*
X008097Y006702D01*
X008020Y006779D01*
X008020Y007842D01*
X008335Y007842D02*
X008335Y007565D01*
X008775Y007125D01*
X008617Y006967D01*
X008617Y004488D01*
X009024Y004081D01*
X011739Y004081D01*
X012043Y003777D01*
X011711Y003445D01*
X011591Y003445D01*
X011591Y003437D01*
X012043Y003777D02*
X012363Y003777D01*
X012378Y003791D01*
X012822Y003791D01*
X012823Y003792D01*
X012823Y003791D01*
X013278Y003791D01*
X012823Y003792D02*
X012823Y002237D01*
X013378Y002237D01*
X012823Y002237D02*
X012823Y001587D01*
X012823Y001282D01*
X012578Y001037D01*
X012251Y001037D01*
X012201Y001087D01*
X012201Y001587D02*
X012823Y001587D01*
X013373Y001082D02*
X013128Y000837D01*
X011578Y000837D01*
X011328Y001087D01*
X010154Y001087D01*
X009543Y001087D01*
X009578Y001082D02*
X010150Y001082D01*
X010154Y001087D01*
X010154Y001587D02*
X010154Y002087D01*
X011178Y002087D02*
X012201Y002087D01*
X012206Y002582D02*
X012201Y002587D01*
X012206Y002582D02*
X012428Y002582D01*
X012378Y002632D01*
X012378Y003082D01*
X013278Y003082D02*
X013423Y003082D01*
X013778Y003437D01*
X014062Y003437D01*
X014068Y003443D01*
X014062Y003437D02*
X014038Y003412D01*
X014038Y002977D01*
X014078Y002937D01*
X015778Y002937D01*
X015978Y002737D01*
X015978Y002146D01*
X015939Y002107D01*
X015933Y002101D01*
X015933Y002087D01*
X015938Y002092D01*
X015933Y002087D02*
X015154Y002087D01*
X015154Y001587D01*
X015104Y001137D02*
X014678Y001137D01*
X014528Y001287D01*
X014323Y001082D01*
X014038Y001082D01*
X013373Y001082D01*
X014038Y001791D02*
X014038Y002977D01*
X014478Y002337D02*
X014478Y001337D01*
X014528Y001287D01*
X015104Y001137D02*
X015154Y001087D01*
X015933Y002087D02*
X017201Y002087D01*
X018197Y002087D01*
X018283Y002001D01*
X018278Y002582D02*
X018273Y002587D01*
X017201Y002587D01*
X017128Y003291D02*
X016988Y003432D01*
X016596Y003432D01*
X016591Y003437D01*
X017128Y003291D02*
X018278Y003291D01*
X018223Y003291D01*
X017878Y003637D01*
X018278Y003291D02*
X018643Y003291D01*
X018813Y003122D01*
X018813Y001467D01*
X018628Y001282D01*
X018293Y001282D01*
X018283Y001292D01*
X017496Y001292D01*
X017407Y001292D01*
X017201Y001087D01*
X017496Y001292D02*
X017201Y001587D01*
X015764Y003437D02*
X014743Y003437D01*
X014737Y003443D01*
X014728Y002587D02*
X014478Y002337D01*
X014728Y002587D02*
X015154Y002587D01*
X013978Y004429D02*
X013370Y005037D01*
X013332Y005037D01*
X013832Y005537D01*
X014061Y005537D01*
X014089Y005509D01*
X014089Y005765D01*
X014394Y006326D02*
X014383Y006337D01*
X014383Y007258D01*
X014403Y007278D01*
X014648Y007273D02*
X014653Y007278D01*
X014648Y007273D02*
X014648Y006791D01*
X014889Y006550D01*
X014906Y006550D01*
X014906Y006537D01*
X014976Y006607D01*
X015788Y006607D01*
X016508Y005886D01*
X016588Y005886D01*
X016535Y006210D02*
X015928Y006817D01*
X014997Y006817D01*
X014903Y006911D01*
X014903Y007278D01*
X015153Y007278D02*
X015379Y007052D01*
X016044Y007052D01*
X016414Y006682D01*
X016830Y006682D01*
X017060Y006210D02*
X016535Y006210D01*
X017060Y006210D02*
X017383Y005887D01*
X017379Y005887D01*
X017028Y005537D01*
X016178Y005537D01*
X015714Y006001D01*
X015714Y006021D01*
X015467Y006021D01*
X015467Y005765D02*
X015467Y005509D01*
X015467Y005253D01*
X015467Y004726D01*
X015378Y004637D01*
X014978Y004637D01*
X014878Y004737D01*
X014878Y004920D01*
X014906Y004948D01*
X015467Y005253D02*
X015994Y005253D01*
X015992Y005255D01*
X015909Y005255D01*
X015994Y005253D02*
X016135Y005253D01*
X016210Y005178D01*
X016587Y005178D01*
X016588Y005177D01*
X016589Y005178D01*
X017383Y005178D01*
X018270Y005429D02*
X018270Y004429D01*
X013978Y004429D01*
X012623Y005037D02*
X012623Y006337D01*
X012623Y005694D01*
X012620Y005691D01*
X012278Y005634D02*
X011944Y005300D01*
X011015Y005300D01*
X010829Y005486D01*
X010829Y005730D01*
X010830Y005732D01*
X010818Y005744D01*
X010818Y006679D01*
X010818Y007832D01*
X010263Y008388D01*
X008970Y008388D01*
X008961Y008397D01*
X008538Y008397D01*
X008538Y010597D01*
X008678Y010737D01*
X008678Y011194D01*
X008678Y011537D01*
X008778Y011637D01*
X009573Y011637D01*
X009578Y011632D01*
X009983Y011632D01*
X010033Y011682D01*
X009668Y012046D01*
X009668Y012077D01*
X009823Y012077D01*
X010033Y011682D02*
X010428Y012077D01*
X010723Y012077D01*
X011195Y011454D02*
X011195Y013220D01*
X011078Y013337D01*
X010312Y013337D01*
X005583Y018065D01*
X005038Y018065D01*
X005038Y018796D01*
X005066Y019437D02*
X005038Y019465D01*
X005109Y019537D01*
X008178Y019537D01*
X008578Y019137D01*
X008578Y018537D01*
X009178Y018937D02*
X009178Y017437D01*
X009478Y017137D01*
X011078Y017137D01*
X011578Y016637D01*
X011948Y017182D02*
X011948Y018237D01*
X012078Y018237D01*
X011948Y017182D02*
X011948Y012992D01*
X011948Y012507D01*
X011678Y012237D01*
X011195Y011454D02*
X010778Y011037D01*
X010778Y010669D01*
X010813Y010634D01*
X010784Y010663D01*
X010830Y010337D02*
X010813Y010319D01*
X010815Y010322D01*
X010830Y010337D02*
X011278Y010337D01*
X011460Y010519D01*
X011460Y011292D01*
X012903Y012735D01*
X012903Y013306D01*
X014478Y014881D01*
X014478Y017202D01*
X014478Y017871D02*
X014478Y019037D01*
X013478Y019037D02*
X013478Y017891D01*
X013478Y017182D02*
X011948Y017182D01*
X010078Y019237D02*
X009478Y019237D01*
X009178Y018937D01*
X005278Y015237D02*
X005678Y014837D01*
X005678Y014237D01*
X005390Y013949D01*
X005045Y013949D01*
X004419Y013323D01*
X004419Y011496D01*
X004578Y011337D01*
X005447Y011337D01*
X006762Y010022D01*
X007537Y010022D01*
X007519Y010004D01*
X007433Y010004D01*
X007433Y010319D02*
X006957Y010319D01*
X005135Y012142D01*
X004883Y012142D01*
X004878Y012137D01*
X003978Y013037D02*
X003478Y013037D01*
X003389Y012948D01*
X003389Y011352D01*
X003718Y011023D01*
X005284Y011023D01*
X006617Y009689D01*
X007433Y009689D01*
X007427Y009380D02*
X005735Y009380D01*
X004878Y010237D01*
X005600Y009059D02*
X004878Y008337D01*
X004881Y008340D01*
X005600Y009059D02*
X007433Y009059D01*
X007433Y008744D02*
X006785Y008744D01*
X006278Y008237D01*
X006278Y007137D01*
X005478Y007137D01*
X004878Y006537D01*
X007278Y007637D02*
X007278Y008274D01*
X007433Y008429D01*
X008278Y008137D02*
X008278Y008037D01*
X008378Y007937D01*
X008278Y008137D02*
X008538Y008397D01*
X008961Y008397D02*
X008961Y007846D01*
X008965Y007842D01*
X008965Y007269D01*
X008798Y007102D01*
X008775Y007125D01*
X008798Y007102D02*
X009208Y006692D01*
X009210Y006197D02*
X009261Y006146D01*
X009489Y006146D01*
X009917Y006574D01*
X009917Y006692D01*
X009917Y006774D01*
X009306Y007386D01*
X009306Y007816D01*
X009280Y007842D01*
X009910Y007842D02*
X009910Y007441D01*
X010312Y007040D01*
X010312Y006131D01*
X009917Y005737D01*
X009917Y004851D01*
X009912Y004847D01*
X010838Y004847D01*
X010843Y004852D01*
X011512Y004852D02*
X011763Y004852D01*
X012478Y004137D01*
X018178Y004137D01*
X018428Y003887D01*
X020048Y003887D01*
X018289Y005426D02*
X018278Y005437D01*
X018270Y005429D01*
X018444Y005737D02*
X017499Y006682D01*
X017903Y006920D02*
X017978Y006845D01*
X018620Y006845D01*
X018620Y007041D02*
X018273Y007041D01*
X018178Y007137D01*
X017903Y006920D02*
X017903Y007755D01*
X017160Y007755D01*
X017078Y007837D01*
X017078Y008671D01*
X016812Y008937D01*
X016178Y008902D02*
X016178Y008537D01*
X016578Y008137D01*
X016578Y008091D01*
X015878Y008091D02*
X015502Y008091D01*
X015153Y007742D01*
X015153Y007278D01*
X014906Y006537D02*
X014906Y006326D01*
X014383Y006337D02*
X013332Y006337D01*
X012278Y005634D02*
X012278Y008837D01*
X012632Y009191D01*
X012722Y009191D01*
X013198Y009191D01*
X013403Y009396D01*
X013650Y009393D02*
X013653Y009396D01*
X013650Y009393D02*
X013650Y008799D01*
X013333Y008482D01*
X013333Y008483D01*
X013335Y008485D01*
X013333Y008482D02*
X012722Y008482D01*
X012785Y007950D02*
X012786Y007949D01*
X013430Y007949D01*
X013903Y008422D01*
X013903Y009396D01*
X014153Y009396D02*
X014153Y009715D01*
X013871Y009997D01*
X013288Y009997D01*
X013278Y009987D01*
X012328Y009987D01*
X011525Y009184D01*
X011329Y009380D01*
X010818Y009380D01*
X010813Y009374D01*
X010865Y009637D02*
X010813Y009689D01*
X010865Y009637D02*
X011278Y009637D01*
X011378Y009737D01*
X011478Y009737D01*
X011562Y010021D02*
X011678Y010137D01*
X011678Y011158D01*
X013256Y012736D01*
X013256Y013275D01*
X015478Y015497D01*
X015478Y017202D01*
X015478Y017871D02*
X015478Y019037D01*
X011578Y014537D02*
X010578Y014537D01*
X010723Y012786D02*
X009823Y012786D01*
X008923Y012786D01*
X007923Y012786D01*
X007846Y012863D01*
X007846Y013479D01*
X008323Y012432D02*
X006923Y012432D01*
X006423Y012932D01*
X006423Y013207D01*
X006370Y013260D01*
X007549Y012077D02*
X007275Y011803D01*
X007549Y012077D02*
X007923Y012077D01*
X008020Y011980D01*
X008020Y011222D01*
X008328Y011229D02*
X008335Y011222D01*
X008328Y011229D02*
X008328Y011587D01*
X008677Y011936D01*
X008677Y012077D01*
X008323Y012432D01*
X008677Y012077D02*
X008923Y012077D01*
X009373Y011632D02*
X009278Y011537D01*
X009278Y011224D01*
X009280Y011222D01*
X009283Y011224D01*
X009595Y011222D02*
X009598Y011222D01*
X009598Y010757D01*
X009378Y010537D01*
X008978Y010537D01*
X008965Y010549D01*
X008965Y011222D01*
X008965Y010715D01*
X008678Y011194D02*
X008650Y011222D01*
X008673Y011244D01*
X008650Y011222D02*
X008651Y011221D01*
X009373Y011632D02*
X009578Y011632D01*
X009910Y011222D02*
X009928Y011204D01*
X009928Y009187D01*
X010228Y009937D02*
X010228Y011219D01*
X010225Y011222D01*
X010829Y010021D02*
X011562Y010021D01*
X010829Y010021D02*
X010813Y010004D01*
X011525Y009184D02*
X011975Y008734D01*
X011975Y006059D01*
X011648Y005732D01*
X011499Y005732D01*
X011487Y006679D02*
X011487Y007462D01*
X011487Y008747D01*
X011179Y009056D01*
X010816Y009056D01*
X010813Y009059D01*
X012778Y010482D02*
X013858Y010482D01*
X013878Y010502D01*
X013878Y010377D01*
X014358Y009897D01*
X014898Y009897D01*
X014898Y009401D01*
X014903Y009396D01*
X015153Y009396D02*
X015684Y009396D01*
X016143Y008937D01*
X016178Y008902D01*
X017089Y010019D02*
X015171Y010019D01*
X015053Y010137D01*
X014678Y010137D01*
X014478Y010337D01*
X014478Y010737D01*
X014043Y011171D01*
X013878Y011171D01*
X014429Y011643D02*
X014888Y011184D01*
X014888Y010381D01*
X014894Y010375D01*
X015159Y010375D01*
X015284Y010250D01*
X016185Y010250D01*
X016277Y010341D01*
X016277Y010675D01*
X016272Y010680D01*
X016574Y011033D02*
X016578Y011037D01*
X016878Y011037D01*
X016978Y011137D01*
X017212Y011137D01*
X017220Y011129D01*
X016735Y011389D02*
X016735Y011739D01*
X016728Y011747D01*
X016735Y011389D02*
X016272Y011389D01*
X015466Y011389D01*
X015466Y011389D01*
X015466Y011394D01*
X014823Y012037D01*
X014429Y012271D02*
X014429Y011643D01*
X014429Y012271D02*
X014649Y012491D01*
X015856Y012491D01*
X016010Y012337D01*
X018078Y012337D01*
X018478Y011937D01*
X018578Y011937D01*
X019578Y011937D01*
X019719Y011796D01*
X019719Y009978D01*
X019719Y009614D01*
X019266Y009162D01*
X018991Y009437D01*
X018878Y009437D01*
X018906Y009837D02*
X018864Y009879D01*
X018667Y009879D01*
X018470Y009879D01*
X018480Y009869D01*
X018480Y009628D01*
X018469Y009628D01*
X018278Y009437D01*
X018480Y009628D02*
X017789Y008937D01*
X017723Y008937D01*
X018432Y008937D02*
X018783Y008937D01*
X019279Y008440D01*
X019279Y008095D01*
X019870Y008095D02*
X019870Y008345D01*
X019278Y008937D01*
X019278Y009150D01*
X019266Y009162D01*
X019378Y009837D02*
X018906Y009837D01*
X019129Y010341D02*
X019473Y010341D01*
X019478Y010337D01*
X019478Y011537D01*
X019278Y011737D01*
X018778Y011737D01*
X018667Y011626D01*
X018667Y011395D01*
X018470Y011395D02*
X018467Y011398D01*
X018467Y011826D01*
X018578Y011937D01*
X017879Y011635D02*
X017879Y011395D01*
X017879Y011635D02*
X017478Y012037D01*
X015532Y012037D01*
X015233Y012992D02*
X014428Y012992D01*
X012778Y011342D01*
X012778Y011191D01*
X015233Y012992D02*
X015278Y013037D01*
X017278Y012937D02*
X019478Y012937D01*
X020078Y012337D01*
X020078Y013937D01*
X016574Y011033D02*
X015470Y011033D01*
X015470Y010685D01*
X015466Y010680D01*
X017089Y010019D02*
X017215Y010145D01*
X017220Y010145D01*
X017478Y008091D02*
X018358Y008091D01*
X018620Y007829D01*
X017478Y007382D02*
X016578Y007382D01*
X017023Y007382D01*
X017028Y007387D01*
X016578Y007382D02*
X015878Y007382D01*
X018444Y005737D02*
X020578Y005737D01*
X020778Y005937D01*
X020778Y006712D01*
X020648Y006842D01*
X020532Y006842D01*
X020529Y006845D01*
X020529Y007041D02*
X020882Y007041D01*
X020978Y007137D01*
X020978Y009437D01*
X020778Y009637D01*
X020590Y009637D01*
X020583Y009644D01*
X019968Y009644D01*
X019975Y009637D01*
X019975Y009162D01*
X020067Y009070D01*
X020067Y008648D01*
X020078Y008637D01*
X020067Y008648D02*
X020067Y008095D01*
X020529Y007829D02*
X020583Y007882D01*
X020583Y008935D01*
X019719Y009978D02*
X019753Y010012D01*
X019478Y009937D02*
X019378Y009837D01*
X019478Y009937D02*
X019478Y010337D01*
X019870Y006579D02*
X020067Y006579D01*
X020264Y006579D01*
X020264Y006114D01*
X020253Y006103D01*
X010764Y003437D02*
X009912Y003437D01*
X009907Y003432D01*
X009243Y004847D02*
X009208Y004881D01*
X009208Y005737D01*
X009208Y006195D01*
X009210Y006197D01*
X009207Y006196D02*
X009207Y005738D01*
X009208Y005737D01*
X007433Y009374D02*
X007427Y009380D01*
X008178Y010337D02*
X007880Y010634D01*
X007433Y010634D01*
X004120Y013179D02*
X004120Y014009D01*
X003992Y014137D01*
X002578Y014137D01*
X002378Y014337D01*
X002378Y015237D01*
X002778Y015637D01*
X003298Y015637D01*
X003298Y016637D02*
X003306Y016645D01*
X005038Y016645D01*
X005038Y017396D01*
X005038Y015976D02*
X005038Y015245D01*
X005046Y015237D01*
X005278Y015237D01*
X005038Y015245D02*
X005038Y015246D01*
X004977Y014637D02*
X005038Y014576D01*
X004977Y014637D02*
X003298Y014637D01*
X004120Y013179D02*
X003978Y013037D01*
X005049Y019454D02*
X005038Y019465D01*
X003529Y003337D02*
X004029Y002837D01*
D38*
X004178Y003337D03*
X006278Y007137D03*
X007278Y007637D03*
X007978Y006037D03*
X009210Y006197D03*
X008653Y003872D03*
X009046Y002511D03*
X012620Y005691D03*
X011487Y007462D03*
X012785Y007950D03*
X013335Y008485D03*
X013278Y009987D03*
X011478Y009737D03*
X010228Y009937D03*
X009928Y009187D03*
X008978Y010537D03*
X008178Y010337D03*
X007846Y013479D03*
X010578Y014537D03*
X011578Y014537D03*
X011578Y016637D03*
X015278Y013037D03*
X016728Y011747D03*
X018278Y009437D03*
X018878Y009437D03*
X020078Y008637D03*
X018178Y007137D03*
X017028Y007387D03*
X018278Y005437D03*
X017878Y003637D03*
X015939Y002107D03*
X013378Y002237D03*
X015909Y005255D03*
X020253Y006103D03*
X020078Y012337D03*
X011678Y012237D03*
D39*
X016277Y010341D02*
X017220Y010341D01*
M02*
