G75*
G70*
%OFA0B0*%
%FSLAX24Y24*%
%IPPOS*%
%LPD*%
%AMOC8*
5,1,8,0,0,1.08239X$1,22.5*
%
%ADD10C,0.1615*%
%ADD11C,0.0780*%
%ADD12R,0.0640X0.0640*%
%ADD13OC8,0.0640*%
%ADD14C,0.0640*%
%ADD15C,0.0634*%
D10*
X003078Y001662D03*
X020078Y001737D03*
X020178Y018837D03*
X003078Y018837D03*
D11*
X013478Y019037D03*
X014478Y019037D03*
X015478Y019037D03*
X016478Y019037D03*
X017478Y019037D03*
X018478Y019037D03*
D12*
X010078Y018237D03*
D13*
X010078Y019237D03*
X011078Y019237D03*
X012078Y019237D03*
X012078Y018237D03*
X011078Y018237D03*
D14*
X016978Y016937D02*
X017578Y016937D01*
X017578Y015937D02*
X016978Y015937D01*
X016978Y014937D02*
X017578Y014937D01*
X017578Y013937D02*
X016978Y013937D01*
X016978Y012937D02*
X017578Y012937D01*
X019778Y013937D02*
X020378Y013937D01*
X020378Y014937D02*
X019778Y014937D01*
X019778Y015937D02*
X020378Y015937D01*
X020378Y016937D02*
X019778Y016937D01*
X019748Y004887D02*
X020348Y004887D01*
X020348Y003887D02*
X019748Y003887D01*
X004878Y006237D02*
X004878Y006837D01*
X003878Y006837D02*
X003878Y006237D01*
X002878Y006237D02*
X002878Y006837D01*
X002878Y008037D02*
X002878Y008637D01*
X003878Y008637D02*
X003878Y008037D01*
X004878Y008037D02*
X004878Y008637D01*
X004878Y009937D02*
X004878Y010537D01*
X003878Y010537D02*
X003878Y009937D01*
X002878Y009937D02*
X002878Y010537D01*
X002878Y011837D02*
X002878Y012437D01*
X003878Y012437D02*
X003878Y011837D01*
X004878Y011837D02*
X004878Y012437D01*
X003598Y013637D02*
X002998Y013637D01*
X002998Y014637D02*
X003598Y014637D01*
X003598Y015637D02*
X002998Y015637D01*
X002998Y016637D02*
X003598Y016637D01*
D15*
X006578Y018240D02*
X006578Y018834D01*
X007578Y018834D02*
X007578Y018240D01*
X008578Y018240D02*
X008578Y018834D01*
M02*
