G75*
G70*
%OFA0B0*%
%FSLAX24Y24*%
%IPPOS*%
%LPD*%
%AMOC8*
5,1,8,0,0,1.08239X$1,22.5*
%
%ADD10C,0.1615*%
%ADD11R,0.0906X0.0276*%
%ADD12R,0.0512X0.0355*%
%ADD13R,0.0512X0.0512*%
%ADD14R,0.0552X0.0631*%
%ADD15R,0.0260X0.0540*%
%ADD16R,0.0540X0.0260*%
%ADD17R,0.0946X0.0670*%
%ADD18R,0.0473X0.0788*%
%ADD19R,0.0355X0.0512*%
%ADD20C,0.0780*%
%ADD21R,0.0640X0.0640*%
%ADD22OC8,0.0640*%
%ADD23R,0.0729X0.0729*%
%ADD24R,0.0296X0.0186*%
%ADD25R,0.0186X0.0296*%
%ADD26R,0.0138X0.0276*%
%ADD27R,0.0276X0.0138*%
%ADD28R,0.0631X0.0552*%
%ADD29R,0.0355X0.0138*%
%ADD30R,0.0138X0.0355*%
%ADD31R,0.0472X0.0472*%
%ADD32C,0.0640*%
%ADD33C,0.0634*%
%ADD34R,0.0217X0.0631*%
%ADD35R,0.0512X0.0749*%
%ADD36R,0.0375X0.0316*%
%ADD37R,0.0434X0.0749*%
%ADD38R,0.1674X0.0788*%
D10*
X003078Y001662D03*
X020078Y001737D03*
X020178Y018837D03*
X003078Y018837D03*
D11*
X010154Y002587D03*
X010154Y002087D03*
X010154Y001587D03*
X010154Y001087D03*
X012201Y001087D03*
X012201Y001587D03*
X012201Y002087D03*
X012201Y002587D03*
X015154Y002587D03*
X015154Y002087D03*
X015154Y001587D03*
X015154Y001087D03*
X017201Y001087D03*
X017201Y001587D03*
X017201Y002087D03*
X017201Y002587D03*
D12*
X018278Y002582D03*
X018283Y002001D03*
X018283Y001292D03*
X018278Y003291D03*
X017383Y005178D03*
X017383Y005887D03*
X016588Y005886D03*
X016588Y005177D03*
X016578Y007382D03*
X015878Y007382D03*
X015878Y008091D03*
X016578Y008091D03*
X017478Y008091D03*
X017478Y007382D03*
X020583Y008935D03*
X020583Y009644D03*
X016272Y010680D03*
X016272Y011389D03*
X015466Y011389D03*
X015466Y010680D03*
X012778Y010482D03*
X012778Y011191D03*
X012722Y009191D03*
X012722Y008482D03*
X010723Y012077D03*
X010723Y012786D03*
X009823Y012786D03*
X009823Y012077D03*
X008923Y012077D03*
X008923Y012786D03*
X007923Y012786D03*
X007923Y012077D03*
X013478Y017182D03*
X013478Y017891D03*
X013278Y003791D03*
X013278Y003082D03*
X012378Y003082D03*
X012378Y003791D03*
X014038Y001791D03*
X014038Y001082D03*
X009078Y001082D03*
X009078Y001791D03*
D13*
X010764Y003437D03*
X011591Y003437D03*
X007996Y004952D03*
X007169Y004952D03*
X015764Y003437D03*
X016591Y003437D03*
D14*
X014737Y003443D03*
X014068Y003443D03*
X011512Y004852D03*
X010843Y004852D03*
X010830Y005732D03*
X011499Y005732D03*
X011487Y006679D03*
X010818Y006679D03*
X009912Y004847D03*
X009243Y004847D03*
X009238Y003432D03*
X009907Y003432D03*
X008097Y006702D03*
X007428Y006702D03*
X016143Y008937D03*
X016812Y008937D03*
X016830Y006682D03*
X017499Y006682D03*
D15*
X010225Y007842D03*
X009910Y007842D03*
X009595Y007842D03*
X009280Y007842D03*
X008965Y007842D03*
X008650Y007842D03*
X008335Y007842D03*
X008020Y007842D03*
X008020Y011222D03*
X008335Y011222D03*
X008650Y011222D03*
X008965Y011222D03*
X009280Y011222D03*
X009595Y011222D03*
X009910Y011222D03*
X010225Y011222D03*
D16*
X010813Y010634D03*
X010813Y010319D03*
X010813Y010004D03*
X010813Y009689D03*
X010813Y009374D03*
X010813Y009059D03*
X010813Y008744D03*
X010813Y008429D03*
X007433Y008429D03*
X007433Y008744D03*
X007433Y009059D03*
X007433Y009374D03*
X007433Y009689D03*
X007433Y010004D03*
X007433Y010319D03*
X007433Y010634D03*
D17*
X011948Y012992D03*
X014428Y012992D03*
D18*
X007275Y013260D03*
X006370Y013260D03*
X006370Y011803D03*
X007275Y011803D03*
D19*
X009208Y006692D03*
X009917Y006692D03*
X009917Y005737D03*
X009208Y005737D03*
X012623Y006337D03*
X013332Y006337D03*
X013332Y005037D03*
X012623Y005037D03*
X017723Y008937D03*
X018432Y008937D03*
X019266Y009162D03*
X019975Y009162D03*
X015532Y012037D03*
X014823Y012037D03*
D20*
X014478Y019037D03*
X013478Y019037D03*
X015478Y019037D03*
X016478Y019037D03*
X017478Y019037D03*
X018478Y019037D03*
D21*
X010078Y018237D03*
D22*
X010078Y019237D03*
X011078Y019237D03*
X012078Y019237D03*
X012078Y018237D03*
X011078Y018237D03*
D23*
X014778Y005637D03*
D24*
X015467Y005765D03*
X015467Y006021D03*
X015467Y005509D03*
X015467Y005253D03*
X014089Y005253D03*
X014089Y005509D03*
X014089Y005765D03*
X014089Y006021D03*
D25*
X014394Y006326D03*
X014650Y006326D03*
X014906Y006326D03*
X015162Y006326D03*
X015162Y004948D03*
X014906Y004948D03*
X014650Y004948D03*
X014394Y004948D03*
D26*
X017486Y009879D03*
X017682Y009879D03*
X017879Y009879D03*
X018076Y009879D03*
X018273Y009879D03*
X018470Y009879D03*
X018667Y009879D03*
X018864Y009879D03*
X018864Y011395D03*
X018667Y011395D03*
X018470Y011395D03*
X018273Y011395D03*
X018076Y011395D03*
X017879Y011395D03*
X017682Y011395D03*
X017486Y011395D03*
D27*
X017220Y011129D03*
X017220Y010932D03*
X017220Y010735D03*
X017220Y010538D03*
X017220Y010341D03*
X017220Y010145D03*
X019129Y010145D03*
X019129Y010341D03*
X019129Y010538D03*
X019129Y010735D03*
X019129Y010932D03*
X019129Y011129D03*
D28*
X013878Y011171D03*
X013878Y010502D03*
X014478Y017202D03*
X014478Y017871D03*
X015478Y017871D03*
X015478Y017202D03*
X005038Y017396D03*
X005038Y018065D03*
X005038Y018796D03*
X005038Y019465D03*
X005038Y016645D03*
X005038Y015976D03*
X005038Y015245D03*
X005038Y014576D03*
D29*
X018620Y007829D03*
X018620Y007632D03*
X018620Y007435D03*
X018620Y007238D03*
X018620Y007041D03*
X018620Y006845D03*
X020529Y006845D03*
X020529Y007041D03*
X020529Y007238D03*
X020529Y007435D03*
X020529Y007632D03*
X020529Y007829D03*
D30*
X020264Y008095D03*
X020067Y008095D03*
X019870Y008095D03*
X019673Y008095D03*
X019476Y008095D03*
X019279Y008095D03*
X019082Y008095D03*
X018886Y008095D03*
X018886Y006579D03*
X019082Y006579D03*
X019279Y006579D03*
X019476Y006579D03*
X019673Y006579D03*
X019870Y006579D03*
X020067Y006579D03*
X020264Y006579D03*
D31*
X019578Y007337D03*
D32*
X019748Y004887D02*
X020348Y004887D01*
X020348Y003887D02*
X019748Y003887D01*
X017578Y012937D02*
X016978Y012937D01*
X016978Y013937D02*
X017578Y013937D01*
X017578Y014937D02*
X016978Y014937D01*
X016978Y015937D02*
X017578Y015937D01*
X017578Y016937D02*
X016978Y016937D01*
X019778Y016937D02*
X020378Y016937D01*
X020378Y015937D02*
X019778Y015937D01*
X019778Y014937D02*
X020378Y014937D01*
X020378Y013937D02*
X019778Y013937D01*
X004878Y012437D02*
X004878Y011837D01*
X003878Y011837D02*
X003878Y012437D01*
X002878Y012437D02*
X002878Y011837D01*
X002878Y010537D02*
X002878Y009937D01*
X003878Y009937D02*
X003878Y010537D01*
X004878Y010537D02*
X004878Y009937D01*
X004878Y008637D02*
X004878Y008037D01*
X003878Y008037D02*
X003878Y008637D01*
X002878Y008637D02*
X002878Y008037D01*
X002878Y006837D02*
X002878Y006237D01*
X003878Y006237D02*
X003878Y006837D01*
X004878Y006837D02*
X004878Y006237D01*
X003598Y013637D02*
X002998Y013637D01*
X002998Y014637D02*
X003598Y014637D01*
X003598Y015637D02*
X002998Y015637D01*
X002998Y016637D02*
X003598Y016637D01*
D33*
X006578Y018240D02*
X006578Y018834D01*
X007578Y018834D02*
X007578Y018240D01*
X008578Y018240D02*
X008578Y018834D01*
D34*
X013403Y009396D03*
X013653Y009396D03*
X013903Y009396D03*
X014153Y009396D03*
X014403Y009396D03*
X014653Y009396D03*
X014903Y009396D03*
X015153Y009396D03*
X015153Y007278D03*
X014903Y007278D03*
X014653Y007278D03*
X014403Y007278D03*
X014153Y007278D03*
X013903Y007278D03*
X013653Y007278D03*
X013403Y007278D03*
D35*
X003727Y004637D03*
X002428Y004637D03*
D36*
X004323Y004837D03*
X004953Y004837D03*
D37*
X003529Y003337D03*
X002427Y003337D03*
D38*
X004990Y002517D03*
X007746Y002517D03*
M02*
