G75*
G70*
%OFA0B0*%
%FSLAX24Y24*%
%IPPOS*%
%LPD*%
%AMOC8*
5,1,8,0,0,1.08239X$1,22.5*
%
%ADD10C,0.0740*%
%ADD11R,0.0600X0.0600*%
%ADD12OC8,0.0600*%
%ADD13C,0.0600*%
%ADD14C,0.0594*%
%ADD15C,0.0100*%
%ADD16C,0.0320*%
D10*
X013478Y019037D03*
X014478Y019037D03*
X015478Y019037D03*
X016478Y019037D03*
X017478Y019037D03*
X018478Y019037D03*
D11*
X010078Y018237D03*
D12*
X010078Y019237D03*
X011078Y019237D03*
X012078Y019237D03*
X012078Y018237D03*
X011078Y018237D03*
D13*
X016978Y016937D02*
X017578Y016937D01*
X017578Y015937D02*
X016978Y015937D01*
X016978Y014937D02*
X017578Y014937D01*
X017578Y013937D02*
X016978Y013937D01*
X016978Y012937D02*
X017578Y012937D01*
X019778Y013937D02*
X020378Y013937D01*
X020378Y014937D02*
X019778Y014937D01*
X019778Y015937D02*
X020378Y015937D01*
X020378Y016937D02*
X019778Y016937D01*
X019748Y004887D02*
X020348Y004887D01*
X020348Y003887D02*
X019748Y003887D01*
X004878Y006237D02*
X004878Y006837D01*
X003878Y006837D02*
X003878Y006237D01*
X002878Y006237D02*
X002878Y006837D01*
X002878Y008037D02*
X002878Y008637D01*
X003878Y008637D02*
X003878Y008037D01*
X004878Y008037D02*
X004878Y008637D01*
X004878Y009937D02*
X004878Y010537D01*
X003878Y010537D02*
X003878Y009937D01*
X002878Y009937D02*
X002878Y010537D01*
X002878Y011837D02*
X002878Y012437D01*
X003878Y012437D02*
X003878Y011837D01*
X004878Y011837D02*
X004878Y012437D01*
X003598Y013637D02*
X002998Y013637D01*
X002998Y014637D02*
X003598Y014637D01*
X003598Y015637D02*
X002998Y015637D01*
X002998Y016637D02*
X003598Y016637D01*
D14*
X006578Y018240D02*
X006578Y018834D01*
X007578Y018834D02*
X007578Y018240D01*
X008578Y018240D02*
X008578Y018834D01*
D15*
X001939Y001373D02*
X002029Y001095D01*
X002201Y000860D01*
X002436Y000688D01*
X002714Y000598D01*
X002859Y000587D01*
X020334Y000587D01*
X020487Y000599D01*
X020779Y000693D01*
X021026Y000873D01*
X021206Y001121D01*
X021301Y001412D01*
X021313Y001565D01*
X021313Y019096D01*
X021302Y019233D01*
X021217Y019494D01*
X021056Y019715D01*
X020835Y019876D01*
X020574Y019961D01*
X020437Y019972D01*
X002766Y019972D01*
X002635Y019961D01*
X002385Y019880D01*
X002173Y019726D01*
X002019Y019514D01*
X001938Y019265D01*
X001928Y019134D01*
X001928Y001518D01*
X001939Y001373D01*
X001935Y001422D02*
X002163Y001422D01*
X002140Y001475D02*
X002283Y001131D01*
X002547Y000867D01*
X002891Y000724D01*
X003264Y000724D01*
X003609Y000867D01*
X003872Y001131D01*
X004015Y001475D01*
X004015Y001848D01*
X003872Y002193D01*
X003609Y002456D01*
X003264Y002599D01*
X002891Y002599D01*
X002547Y002456D01*
X002283Y002193D01*
X002140Y001848D01*
X002140Y001475D01*
X002140Y001520D02*
X001928Y001520D01*
X001928Y001619D02*
X002140Y001619D01*
X002140Y001717D02*
X001928Y001717D01*
X001928Y001816D02*
X002140Y001816D01*
X002168Y001914D02*
X001928Y001914D01*
X001928Y002013D02*
X002208Y002013D01*
X002249Y002111D02*
X001928Y002111D01*
X001928Y002210D02*
X002300Y002210D01*
X002399Y002308D02*
X001928Y002308D01*
X001928Y002407D02*
X002497Y002407D01*
X002665Y002505D02*
X001928Y002505D01*
X001928Y002604D02*
X013462Y002604D01*
X013405Y002547D02*
X013316Y002547D01*
X013202Y002499D01*
X013115Y002412D01*
X013068Y002298D01*
X013068Y002175D01*
X013115Y002061D01*
X013202Y001974D01*
X013316Y001927D01*
X013439Y001927D01*
X013553Y001974D01*
X013641Y002061D01*
X013688Y002175D01*
X013688Y002264D01*
X014061Y002637D01*
X019801Y002637D01*
X019547Y002531D01*
X019283Y002268D01*
X019140Y001923D01*
X019140Y001550D01*
X019283Y001206D01*
X019547Y000942D01*
X019891Y000799D01*
X020264Y000799D01*
X020609Y000942D01*
X020872Y001206D01*
X021015Y001550D01*
X021015Y001923D01*
X020872Y002268D01*
X020609Y002531D01*
X020354Y002637D01*
X020661Y002637D01*
X020778Y002754D01*
X021061Y003037D01*
X021178Y003154D01*
X021178Y011020D01*
X020278Y011920D01*
X020278Y012098D01*
X020341Y012161D01*
X020388Y012275D01*
X020388Y012398D01*
X020341Y012512D01*
X020253Y012599D01*
X020139Y012647D01*
X020016Y012647D01*
X019902Y012599D01*
X019815Y012512D01*
X019768Y012398D01*
X019768Y012275D01*
X019815Y012161D01*
X019878Y012098D01*
X019878Y011754D01*
X019995Y011637D01*
X020778Y010854D01*
X020778Y005019D01*
X020765Y005059D01*
X020733Y005123D01*
X020691Y005180D01*
X020641Y005230D01*
X020584Y005272D01*
X020520Y005304D01*
X020453Y005326D01*
X020383Y005337D01*
X020098Y005337D01*
X020098Y004937D01*
X019998Y004937D01*
X019998Y005337D01*
X019712Y005337D01*
X019642Y005326D01*
X019575Y005304D01*
X019512Y005272D01*
X019455Y005230D01*
X019404Y005180D01*
X019363Y005123D01*
X019331Y005059D01*
X019309Y004992D01*
X019300Y004937D01*
X019998Y004937D01*
X019998Y004837D01*
X020098Y004837D01*
X020098Y004437D01*
X020383Y004437D01*
X020453Y004448D01*
X020520Y004470D01*
X020584Y004502D01*
X020641Y004543D01*
X020691Y004594D01*
X020733Y004651D01*
X020765Y004714D01*
X020778Y004754D01*
X020778Y004024D01*
X020729Y004142D01*
X020603Y004268D01*
X020437Y004337D01*
X019658Y004337D01*
X019493Y004268D01*
X019366Y004142D01*
X019298Y003976D01*
X019298Y003797D01*
X019366Y003632D01*
X019493Y003505D01*
X019658Y003437D01*
X020437Y003437D01*
X020603Y003505D01*
X020729Y003632D01*
X020778Y003749D01*
X020778Y003320D01*
X020495Y003037D01*
X013895Y003037D01*
X013405Y002547D01*
X013216Y002505D02*
X003491Y002505D01*
X003658Y002407D02*
X013113Y002407D01*
X013072Y002308D02*
X003757Y002308D01*
X003855Y002210D02*
X013068Y002210D01*
X013094Y002111D02*
X003906Y002111D01*
X003947Y002013D02*
X013163Y002013D01*
X013378Y002237D02*
X013978Y002837D01*
X020578Y002837D01*
X020978Y003237D01*
X020978Y010937D01*
X020078Y011837D01*
X020078Y012337D01*
X020301Y012552D02*
X021313Y012552D01*
X021313Y012454D02*
X020365Y012454D01*
X020388Y012355D02*
X021313Y012355D01*
X021313Y012257D02*
X020380Y012257D01*
X020338Y012158D02*
X021313Y012158D01*
X021313Y012060D02*
X020278Y012060D01*
X020278Y011961D02*
X021313Y011961D01*
X021313Y011863D02*
X020335Y011863D01*
X020433Y011764D02*
X021313Y011764D01*
X021313Y011666D02*
X020532Y011666D01*
X020630Y011567D02*
X021313Y011567D01*
X021313Y011469D02*
X020729Y011469D01*
X020827Y011370D02*
X021313Y011370D01*
X021313Y011272D02*
X020926Y011272D01*
X021024Y011173D02*
X021313Y011173D01*
X021313Y011075D02*
X021123Y011075D01*
X021178Y010976D02*
X021313Y010976D01*
X021313Y010878D02*
X021178Y010878D01*
X021178Y010779D02*
X021313Y010779D01*
X021313Y010681D02*
X021178Y010681D01*
X021178Y010582D02*
X021313Y010582D01*
X021313Y010484D02*
X021178Y010484D01*
X021178Y010385D02*
X021313Y010385D01*
X021313Y010287D02*
X021178Y010287D01*
X021178Y010188D02*
X021313Y010188D01*
X021313Y010090D02*
X021178Y010090D01*
X021178Y009991D02*
X021313Y009991D01*
X021313Y009893D02*
X021178Y009893D01*
X021178Y009794D02*
X021313Y009794D01*
X021313Y009696D02*
X021178Y009696D01*
X021178Y009597D02*
X021313Y009597D01*
X021313Y009499D02*
X021178Y009499D01*
X021178Y009400D02*
X021313Y009400D01*
X021313Y009302D02*
X021178Y009302D01*
X021178Y009203D02*
X021313Y009203D01*
X021313Y009105D02*
X021178Y009105D01*
X021178Y009006D02*
X021313Y009006D01*
X021313Y008908D02*
X021178Y008908D01*
X021178Y008809D02*
X021313Y008809D01*
X021313Y008711D02*
X021178Y008711D01*
X021178Y008612D02*
X021313Y008612D01*
X021313Y008514D02*
X021178Y008514D01*
X021178Y008415D02*
X021313Y008415D01*
X021313Y008317D02*
X021178Y008317D01*
X021178Y008218D02*
X021313Y008218D01*
X021313Y008120D02*
X021178Y008120D01*
X021178Y008021D02*
X021313Y008021D01*
X021313Y007923D02*
X021178Y007923D01*
X021178Y007824D02*
X021313Y007824D01*
X021313Y007726D02*
X021178Y007726D01*
X021178Y007627D02*
X021313Y007627D01*
X021313Y007529D02*
X021178Y007529D01*
X021178Y007430D02*
X021313Y007430D01*
X021313Y007332D02*
X021178Y007332D01*
X021178Y007233D02*
X021313Y007233D01*
X021313Y007135D02*
X021178Y007135D01*
X021178Y007036D02*
X021313Y007036D01*
X021313Y006938D02*
X021178Y006938D01*
X021178Y006839D02*
X021313Y006839D01*
X021313Y006741D02*
X021178Y006741D01*
X021178Y006642D02*
X021313Y006642D01*
X021313Y006544D02*
X021178Y006544D01*
X021178Y006445D02*
X021313Y006445D01*
X021313Y006347D02*
X021178Y006347D01*
X021178Y006248D02*
X021313Y006248D01*
X021313Y006150D02*
X021178Y006150D01*
X021178Y006051D02*
X021313Y006051D01*
X021313Y005953D02*
X021178Y005953D01*
X021178Y005854D02*
X021313Y005854D01*
X021313Y005756D02*
X021178Y005756D01*
X021178Y005657D02*
X021313Y005657D01*
X021313Y005559D02*
X021178Y005559D01*
X021178Y005460D02*
X021313Y005460D01*
X021313Y005362D02*
X021178Y005362D01*
X021178Y005263D02*
X021313Y005263D01*
X021313Y005165D02*
X021178Y005165D01*
X021178Y005066D02*
X021313Y005066D01*
X021313Y004968D02*
X021178Y004968D01*
X021178Y004869D02*
X021313Y004869D01*
X021313Y004771D02*
X021178Y004771D01*
X021178Y004672D02*
X021313Y004672D01*
X021313Y004574D02*
X021178Y004574D01*
X021178Y004475D02*
X021313Y004475D01*
X021313Y004377D02*
X021178Y004377D01*
X021178Y004278D02*
X021313Y004278D01*
X021313Y004180D02*
X021178Y004180D01*
X021178Y004081D02*
X021313Y004081D01*
X021313Y003983D02*
X021178Y003983D01*
X021178Y003884D02*
X021313Y003884D01*
X021313Y003786D02*
X021178Y003786D01*
X021178Y003687D02*
X021313Y003687D01*
X021313Y003589D02*
X021178Y003589D01*
X021178Y003490D02*
X021313Y003490D01*
X021313Y003392D02*
X021178Y003392D01*
X021178Y003293D02*
X021313Y003293D01*
X021313Y003195D02*
X021178Y003195D01*
X021120Y003096D02*
X021313Y003096D01*
X021313Y002998D02*
X021022Y002998D01*
X021061Y003037D02*
X021061Y003037D01*
X020923Y002899D02*
X021313Y002899D01*
X021313Y002801D02*
X020825Y002801D01*
X020726Y002702D02*
X021313Y002702D01*
X021313Y002604D02*
X020434Y002604D01*
X020635Y002505D02*
X021313Y002505D01*
X021313Y002407D02*
X020733Y002407D01*
X020832Y002308D02*
X021313Y002308D01*
X021313Y002210D02*
X020896Y002210D01*
X020937Y002111D02*
X021313Y002111D01*
X021313Y002013D02*
X020978Y002013D01*
X021015Y001914D02*
X021313Y001914D01*
X021313Y001816D02*
X021015Y001816D01*
X021015Y001717D02*
X021313Y001717D01*
X021313Y001619D02*
X021015Y001619D01*
X021003Y001520D02*
X021309Y001520D01*
X021301Y001422D02*
X020962Y001422D01*
X020921Y001323D02*
X021272Y001323D01*
X021240Y001225D02*
X020880Y001225D01*
X020793Y001126D02*
X021208Y001126D01*
X021138Y001028D02*
X020694Y001028D01*
X020578Y000929D02*
X021067Y000929D01*
X020968Y000831D02*
X020340Y000831D01*
X020595Y000634D02*
X002604Y000634D01*
X002634Y000831D02*
X002240Y000831D01*
X002150Y000929D02*
X002485Y000929D01*
X002386Y001028D02*
X002078Y001028D01*
X002019Y001126D02*
X002288Y001126D01*
X002244Y001225D02*
X001987Y001225D01*
X001955Y001323D02*
X002203Y001323D01*
X002376Y000732D02*
X002872Y000732D01*
X003283Y000732D02*
X020832Y000732D01*
X019815Y000831D02*
X003521Y000831D01*
X003671Y000929D02*
X019578Y000929D01*
X019461Y001028D02*
X003769Y001028D01*
X003868Y001126D02*
X019363Y001126D01*
X019275Y001225D02*
X003911Y001225D01*
X003952Y001323D02*
X019234Y001323D01*
X019194Y001422D02*
X003993Y001422D01*
X004015Y001520D02*
X019153Y001520D01*
X019140Y001619D02*
X004015Y001619D01*
X004015Y001717D02*
X019140Y001717D01*
X019140Y001816D02*
X004015Y001816D01*
X003988Y001914D02*
X019140Y001914D01*
X019177Y002013D02*
X013592Y002013D01*
X013661Y002111D02*
X019218Y002111D01*
X019259Y002210D02*
X013688Y002210D01*
X013732Y002308D02*
X019324Y002308D01*
X019422Y002407D02*
X013831Y002407D01*
X013929Y002505D02*
X019521Y002505D01*
X019721Y002604D02*
X014028Y002604D01*
X013757Y002899D02*
X001928Y002899D01*
X001928Y002801D02*
X013659Y002801D01*
X013560Y002702D02*
X001928Y002702D01*
X001928Y002998D02*
X013856Y002998D01*
X010880Y005756D02*
X017978Y005756D01*
X017978Y005854D02*
X010978Y005854D01*
X010978Y007354D01*
X011199Y007575D01*
X011177Y007523D01*
X011177Y007400D01*
X011225Y007286D01*
X011312Y007199D01*
X011426Y007152D01*
X011549Y007152D01*
X011663Y007199D01*
X011750Y007286D01*
X011797Y007400D01*
X011797Y007489D01*
X012058Y007750D01*
X012546Y007750D01*
X012609Y007687D01*
X012723Y007640D01*
X012846Y007640D01*
X012960Y007687D01*
X013010Y007737D01*
X014561Y007737D01*
X014678Y007854D01*
X019478Y012654D01*
X019478Y013600D01*
X019523Y013555D01*
X019688Y013487D01*
X020467Y013487D01*
X020633Y013555D01*
X020759Y013682D01*
X020828Y013847D01*
X020828Y014026D01*
X020759Y014192D01*
X020633Y014318D01*
X020467Y014387D01*
X019688Y014387D01*
X019523Y014318D01*
X019478Y014273D01*
X019478Y014354D01*
X019633Y014509D01*
X019688Y014487D01*
X020467Y014487D01*
X020633Y014555D01*
X020759Y014682D01*
X020828Y014847D01*
X020828Y015026D01*
X020759Y015192D01*
X020633Y015318D01*
X020467Y015387D01*
X019688Y015387D01*
X019523Y015318D01*
X019396Y015192D01*
X019328Y015026D01*
X019328Y014847D01*
X019350Y014792D01*
X019195Y014637D01*
X019078Y014520D01*
X019078Y012820D01*
X014395Y008137D01*
X013036Y008137D01*
X012960Y008213D01*
X012846Y008260D01*
X012723Y008260D01*
X012609Y008213D01*
X012546Y008150D01*
X011893Y008150D01*
X011515Y007772D01*
X011426Y007772D01*
X011374Y007750D01*
X012978Y009354D01*
X012978Y009901D01*
X013015Y009811D01*
X013102Y009724D01*
X013216Y009677D01*
X013339Y009677D01*
X013453Y009724D01*
X013516Y009787D01*
X015611Y009787D01*
X017361Y011537D01*
X017561Y011537D01*
X017678Y011654D01*
X019078Y013054D01*
X019078Y015737D01*
X019373Y015737D01*
X019396Y015682D01*
X019523Y015555D01*
X019688Y015487D01*
X020467Y015487D01*
X020633Y015555D01*
X020759Y015682D01*
X020828Y015847D01*
X020828Y016026D01*
X020759Y016192D01*
X020633Y016318D01*
X020467Y016387D01*
X019688Y016387D01*
X019523Y016318D01*
X019396Y016192D01*
X019373Y016137D01*
X018795Y016137D01*
X018678Y016020D01*
X018678Y013220D01*
X017395Y011937D01*
X017195Y011937D01*
X015445Y010187D01*
X013516Y010187D01*
X013453Y010249D01*
X013339Y010297D01*
X013216Y010297D01*
X013102Y010249D01*
X013015Y010162D01*
X012978Y010072D01*
X012978Y010354D01*
X013861Y011237D01*
X014361Y011237D01*
X014478Y011354D01*
X016701Y013577D01*
X016723Y013555D01*
X016888Y013487D01*
X017667Y013487D01*
X017833Y013555D01*
X017959Y013682D01*
X018028Y013847D01*
X018028Y014026D01*
X017959Y014192D01*
X017833Y014318D01*
X017667Y014387D01*
X016888Y014387D01*
X016723Y014318D01*
X016596Y014192D01*
X016528Y014026D01*
X016528Y013970D01*
X014195Y011637D01*
X013695Y011637D01*
X012695Y010637D01*
X012578Y010520D01*
X012578Y009520D01*
X010695Y007637D01*
X010578Y007520D01*
X010578Y006020D01*
X009195Y004637D01*
X007361Y004637D01*
X006978Y005020D01*
X006978Y006654D01*
X007061Y006737D01*
X007195Y006737D01*
X007078Y006620D01*
X007078Y005854D01*
X007195Y005737D01*
X007695Y005237D01*
X009361Y005237D01*
X009478Y005354D01*
X009928Y005804D01*
X009928Y007054D01*
X012478Y009604D01*
X012478Y010854D01*
X016361Y014737D01*
X016573Y014737D01*
X016596Y014682D01*
X016723Y014555D01*
X016888Y014487D01*
X017667Y014487D01*
X017833Y014555D01*
X017959Y014682D01*
X018028Y014847D01*
X018028Y015026D01*
X017959Y015192D01*
X017833Y015318D01*
X017667Y015387D01*
X016888Y015387D01*
X016723Y015318D01*
X016596Y015192D01*
X016573Y015137D01*
X016195Y015137D01*
X012195Y011137D01*
X012078Y011020D01*
X012078Y009770D01*
X009645Y007337D01*
X009528Y007220D01*
X009528Y005970D01*
X009195Y005637D01*
X007861Y005637D01*
X007478Y006020D01*
X007478Y006454D01*
X009901Y008877D01*
X009989Y008877D01*
X010103Y008924D01*
X010191Y009011D01*
X010238Y009125D01*
X010238Y009248D01*
X010191Y009362D01*
X010103Y009449D01*
X009989Y009497D01*
X009866Y009497D01*
X009752Y009449D01*
X009665Y009362D01*
X009618Y009248D01*
X009618Y009160D01*
X009478Y009020D01*
X009478Y009454D01*
X009761Y009737D01*
X009989Y009737D01*
X010052Y009674D01*
X010166Y009627D01*
X010289Y009627D01*
X010403Y009674D01*
X010491Y009761D01*
X010538Y009875D01*
X010538Y009998D01*
X010491Y010112D01*
X010403Y010199D01*
X010289Y010247D01*
X010166Y010247D01*
X010052Y010199D01*
X009989Y010137D01*
X009595Y010137D01*
X009195Y009737D01*
X009078Y009620D01*
X009078Y009020D01*
X007556Y007497D01*
X007588Y007575D01*
X007588Y007698D01*
X007541Y007812D01*
X007453Y007899D01*
X007339Y007947D01*
X007216Y007947D01*
X007102Y007899D01*
X007039Y007837D01*
X006878Y007837D01*
X006878Y010554D01*
X010278Y013954D01*
X010278Y014451D01*
X010315Y014361D01*
X010378Y014298D01*
X010378Y013620D01*
X007978Y011220D01*
X007978Y010575D01*
X007915Y010512D01*
X007868Y010398D01*
X007868Y010275D01*
X007915Y010161D01*
X008002Y010074D01*
X008116Y010027D01*
X008239Y010027D01*
X008353Y010074D01*
X008441Y010161D01*
X008488Y010275D01*
X008488Y010398D01*
X008441Y010512D01*
X008378Y010575D01*
X008378Y011054D01*
X010778Y013454D01*
X010778Y014298D01*
X010841Y014361D01*
X010878Y014451D01*
X010878Y009220D01*
X008005Y006347D01*
X007478Y006347D01*
X007478Y006445D02*
X008103Y006445D01*
X008005Y006347D02*
X007916Y006347D01*
X007802Y006299D01*
X007715Y006212D01*
X007668Y006098D01*
X007668Y005975D01*
X007715Y005861D01*
X007802Y005774D01*
X007916Y005727D01*
X008039Y005727D01*
X008153Y005774D01*
X008241Y005861D01*
X008288Y005975D01*
X008288Y006064D01*
X011278Y009054D01*
X011278Y009498D01*
X011302Y009474D01*
X011416Y009427D01*
X011539Y009427D01*
X011653Y009474D01*
X011741Y009561D01*
X011788Y009675D01*
X011788Y009764D01*
X011878Y009854D01*
X011878Y011998D01*
X011941Y012061D01*
X011988Y012175D01*
X011988Y012298D01*
X011941Y012412D01*
X011853Y012499D01*
X011739Y012547D01*
X011616Y012547D01*
X011502Y012499D01*
X011415Y012412D01*
X011368Y012298D01*
X011368Y012175D01*
X011415Y012061D01*
X011478Y011998D01*
X011478Y010047D01*
X011416Y010047D01*
X011302Y009999D01*
X011278Y009975D01*
X011278Y014451D01*
X011315Y014361D01*
X011402Y014274D01*
X011516Y014227D01*
X011278Y014227D01*
X011278Y014325D02*
X011351Y014325D01*
X011289Y014424D02*
X011278Y014424D01*
X011278Y014622D02*
X011278Y016551D01*
X011315Y016461D01*
X011402Y016374D01*
X011516Y016327D01*
X011639Y016327D01*
X011753Y016374D01*
X011816Y016437D01*
X015961Y016437D01*
X016361Y016837D01*
X016478Y016954D01*
X016478Y017454D01*
X016661Y017637D01*
X017895Y017637D01*
X018078Y017454D01*
X018078Y013320D01*
X017955Y013196D01*
X017833Y013318D01*
X017667Y013387D01*
X016888Y013387D01*
X016723Y013318D01*
X016596Y013192D01*
X016528Y013026D01*
X016528Y012847D01*
X016596Y012682D01*
X016723Y012555D01*
X016888Y012487D01*
X017667Y012487D01*
X017833Y012555D01*
X017959Y012682D01*
X017982Y012737D01*
X018061Y012737D01*
X018178Y012854D01*
X018478Y013154D01*
X018478Y017620D01*
X018361Y017737D01*
X018061Y018037D01*
X016495Y018037D01*
X016378Y017920D01*
X016078Y017620D01*
X016078Y017120D01*
X015795Y016837D01*
X011816Y016837D01*
X011753Y016899D01*
X011639Y016947D01*
X011516Y016947D01*
X011402Y016899D01*
X011315Y016812D01*
X011278Y016722D01*
X011278Y017800D01*
X011528Y018050D01*
X011528Y018423D01*
X011264Y018687D01*
X010891Y018687D01*
X010628Y018423D01*
X010628Y018050D01*
X010878Y017800D01*
X010878Y014622D01*
X010841Y014712D01*
X010753Y014799D01*
X010639Y014847D01*
X010516Y014847D01*
X010402Y014799D01*
X010315Y014712D01*
X010278Y014622D01*
X010278Y017787D01*
X010440Y017787D01*
X010528Y017875D01*
X010528Y018537D01*
X010661Y018537D01*
X010778Y018654D01*
X010911Y018787D01*
X011264Y018787D01*
X011528Y019050D01*
X011528Y019423D01*
X011264Y019687D01*
X010891Y019687D01*
X010628Y019423D01*
X010628Y019070D01*
X010495Y018937D01*
X010414Y018937D01*
X010528Y019050D01*
X010528Y019423D01*
X010264Y019687D01*
X009891Y019687D01*
X009628Y019423D01*
X009628Y019050D01*
X009741Y018937D01*
X009595Y018937D01*
X009395Y018737D01*
X009278Y018620D01*
X009278Y014320D01*
X006195Y011237D01*
X006078Y011120D01*
X006078Y007375D01*
X006015Y007312D01*
X005978Y007222D01*
X005978Y014754D01*
X006778Y015554D01*
X006778Y017839D01*
X006831Y017861D01*
X006957Y017987D01*
X007025Y018151D01*
X007025Y018922D01*
X006957Y019087D01*
X006831Y019212D01*
X006667Y019280D01*
X006489Y019280D01*
X006325Y019212D01*
X006199Y019087D01*
X006131Y018922D01*
X006131Y018151D01*
X006199Y017987D01*
X006325Y017861D01*
X006378Y017839D01*
X006378Y015720D01*
X005578Y014920D01*
X004495Y013837D01*
X004002Y013837D01*
X003979Y013892D01*
X003853Y014018D01*
X003687Y014087D01*
X002908Y014087D01*
X002743Y014018D01*
X002616Y013892D01*
X002548Y013726D01*
X002548Y013547D01*
X002616Y013382D01*
X002743Y013255D01*
X002908Y013187D01*
X003687Y013187D01*
X003853Y013255D01*
X003979Y013382D01*
X004002Y013437D01*
X004661Y013437D01*
X004778Y013554D01*
X005578Y014354D01*
X005578Y005020D01*
X004205Y003647D01*
X004116Y003647D01*
X004002Y003599D01*
X003915Y003512D01*
X003868Y003398D01*
X003868Y003275D01*
X003915Y003161D01*
X004002Y003074D01*
X004116Y003027D01*
X004239Y003027D01*
X004353Y003074D01*
X004441Y003161D01*
X004488Y003275D01*
X004488Y003364D01*
X005861Y004737D01*
X005978Y004854D01*
X005978Y007051D01*
X006015Y006961D01*
X006102Y006874D01*
X006216Y006827D01*
X006339Y006827D01*
X006453Y006874D01*
X006541Y006961D01*
X006588Y007075D01*
X006588Y007198D01*
X006541Y007312D01*
X006478Y007375D01*
X006478Y010954D01*
X009561Y014037D01*
X009678Y014154D01*
X009678Y017825D01*
X009716Y017787D01*
X009878Y017787D01*
X009878Y014120D01*
X006595Y010837D01*
X006478Y010720D01*
X006478Y007654D01*
X006578Y007554D01*
X006695Y007437D01*
X007039Y007437D01*
X007102Y007374D01*
X007216Y007327D01*
X007339Y007327D01*
X007417Y007359D01*
X007195Y007137D01*
X006895Y007137D01*
X006695Y006937D01*
X006578Y006820D01*
X006578Y004854D01*
X006695Y004737D01*
X007195Y004237D01*
X009361Y004237D01*
X009478Y004354D01*
X010978Y005854D01*
X010978Y005953D02*
X017978Y005953D01*
X017978Y006051D02*
X010978Y006051D01*
X010978Y006150D02*
X017978Y006150D01*
X017978Y006248D02*
X010978Y006248D01*
X010978Y006347D02*
X017978Y006347D01*
X017978Y006445D02*
X010978Y006445D01*
X010978Y006544D02*
X017978Y006544D01*
X017978Y006642D02*
X010978Y006642D01*
X010978Y006741D02*
X017978Y006741D01*
X017978Y006839D02*
X010978Y006839D01*
X010978Y006938D02*
X017938Y006938D01*
X017915Y006961D02*
X017978Y006898D01*
X017978Y005522D01*
X017968Y005498D01*
X017968Y005410D01*
X017678Y005120D01*
X017678Y003875D01*
X017615Y003812D01*
X017568Y003698D01*
X017568Y003575D01*
X017615Y003461D01*
X017702Y003374D01*
X017816Y003327D01*
X017939Y003327D01*
X018053Y003374D01*
X018141Y003461D01*
X018188Y003575D01*
X018188Y003698D01*
X018141Y003812D01*
X018078Y003875D01*
X018078Y004954D01*
X018251Y005127D01*
X018339Y005127D01*
X018453Y005174D01*
X018541Y005261D01*
X018588Y005375D01*
X018588Y005498D01*
X018541Y005612D01*
X018453Y005699D01*
X018378Y005731D01*
X018378Y006898D01*
X018441Y006961D01*
X018488Y007075D01*
X018488Y007198D01*
X018441Y007312D01*
X018378Y007375D01*
X018378Y008654D01*
X018851Y009127D01*
X018939Y009127D01*
X019053Y009174D01*
X019141Y009261D01*
X019188Y009375D01*
X019188Y009498D01*
X019141Y009612D01*
X019053Y009699D01*
X018939Y009747D01*
X018816Y009747D01*
X018702Y009699D01*
X018615Y009612D01*
X018568Y009498D01*
X018568Y009410D01*
X017978Y008820D01*
X017978Y007375D01*
X017915Y007312D01*
X017868Y007198D01*
X017868Y007075D01*
X017915Y006961D01*
X017884Y007036D02*
X010978Y007036D01*
X010978Y007135D02*
X017868Y007135D01*
X017882Y007233D02*
X011697Y007233D01*
X011769Y007332D02*
X017934Y007332D01*
X017978Y007430D02*
X011797Y007430D01*
X011837Y007529D02*
X017978Y007529D01*
X017978Y007627D02*
X011936Y007627D01*
X012034Y007726D02*
X012570Y007726D01*
X012785Y007950D02*
X011975Y007950D01*
X011487Y007462D01*
X011277Y007233D02*
X010978Y007233D01*
X010978Y007332D02*
X011206Y007332D01*
X011177Y007430D02*
X011054Y007430D01*
X011153Y007529D02*
X011180Y007529D01*
X010784Y007726D02*
X010600Y007726D01*
X010685Y007627D02*
X010501Y007627D01*
X010587Y007529D02*
X010403Y007529D01*
X010304Y007430D02*
X010578Y007430D01*
X010578Y007332D02*
X010206Y007332D01*
X010107Y007233D02*
X010578Y007233D01*
X010578Y007135D02*
X010009Y007135D01*
X009928Y007036D02*
X010578Y007036D01*
X010578Y006938D02*
X009928Y006938D01*
X009928Y006839D02*
X010578Y006839D01*
X010578Y006741D02*
X009928Y006741D01*
X009928Y006642D02*
X010578Y006642D01*
X010578Y006544D02*
X009928Y006544D01*
X009928Y006445D02*
X010578Y006445D01*
X010578Y006347D02*
X009928Y006347D01*
X009928Y006248D02*
X010578Y006248D01*
X010578Y006150D02*
X009928Y006150D01*
X009928Y006051D02*
X010578Y006051D01*
X010511Y005953D02*
X009928Y005953D01*
X009928Y005854D02*
X010412Y005854D01*
X010314Y005756D02*
X009880Y005756D01*
X009781Y005657D02*
X010215Y005657D01*
X010117Y005559D02*
X009683Y005559D01*
X009584Y005460D02*
X010018Y005460D01*
X009920Y005362D02*
X009486Y005362D01*
X009387Y005263D02*
X009821Y005263D01*
X009723Y005165D02*
X006978Y005165D01*
X006978Y005263D02*
X007668Y005263D01*
X007570Y005362D02*
X006978Y005362D01*
X006978Y005460D02*
X007471Y005460D01*
X007373Y005559D02*
X006978Y005559D01*
X006978Y005657D02*
X007274Y005657D01*
X007176Y005756D02*
X006978Y005756D01*
X006978Y005854D02*
X007078Y005854D01*
X007078Y005953D02*
X006978Y005953D01*
X006978Y006051D02*
X007078Y006051D01*
X007078Y006150D02*
X006978Y006150D01*
X006978Y006248D02*
X007078Y006248D01*
X007078Y006347D02*
X006978Y006347D01*
X006978Y006445D02*
X007078Y006445D01*
X007078Y006544D02*
X006978Y006544D01*
X006978Y006642D02*
X007100Y006642D01*
X007278Y006537D02*
X009928Y009187D01*
X010216Y009302D02*
X010878Y009302D01*
X010878Y009400D02*
X010153Y009400D01*
X010238Y009203D02*
X010861Y009203D01*
X010763Y009105D02*
X010229Y009105D01*
X010186Y009006D02*
X010664Y009006D01*
X010566Y008908D02*
X010064Y008908D01*
X009833Y008809D02*
X010467Y008809D01*
X010369Y008711D02*
X009735Y008711D01*
X009636Y008612D02*
X010270Y008612D01*
X010172Y008514D02*
X009538Y008514D01*
X009439Y008415D02*
X010073Y008415D01*
X009975Y008317D02*
X009341Y008317D01*
X009242Y008218D02*
X009876Y008218D01*
X009778Y008120D02*
X009144Y008120D01*
X009045Y008021D02*
X009679Y008021D01*
X009581Y007923D02*
X008947Y007923D01*
X008848Y007824D02*
X009482Y007824D01*
X009384Y007726D02*
X008750Y007726D01*
X008651Y007627D02*
X009285Y007627D01*
X009187Y007529D02*
X008553Y007529D01*
X008454Y007430D02*
X009088Y007430D01*
X008990Y007332D02*
X008356Y007332D01*
X008257Y007233D02*
X008891Y007233D01*
X008793Y007135D02*
X008159Y007135D01*
X008060Y007036D02*
X008694Y007036D01*
X008596Y006938D02*
X007962Y006938D01*
X007863Y006839D02*
X008497Y006839D01*
X008399Y006741D02*
X007765Y006741D01*
X007666Y006642D02*
X008300Y006642D01*
X008202Y006544D02*
X007568Y006544D01*
X007278Y006537D02*
X007278Y005937D01*
X007778Y005437D01*
X009278Y005437D01*
X009728Y005887D01*
X009728Y007137D01*
X012278Y009687D01*
X012278Y010937D01*
X016278Y014937D01*
X017278Y014937D01*
X017753Y014522D02*
X018078Y014522D01*
X018078Y014424D02*
X016048Y014424D01*
X016146Y014522D02*
X016802Y014522D01*
X016657Y014621D02*
X016245Y014621D01*
X016343Y014719D02*
X016581Y014719D01*
X016740Y014325D02*
X015949Y014325D01*
X015851Y014227D02*
X016631Y014227D01*
X016570Y014128D02*
X015752Y014128D01*
X015654Y014030D02*
X016529Y014030D01*
X016489Y013931D02*
X015555Y013931D01*
X015457Y013833D02*
X016391Y013833D01*
X016292Y013734D02*
X015358Y013734D01*
X015260Y013636D02*
X016194Y013636D01*
X016095Y013537D02*
X015161Y013537D01*
X015063Y013439D02*
X015997Y013439D01*
X015898Y013340D02*
X014964Y013340D01*
X014866Y013242D02*
X015800Y013242D01*
X015701Y013143D02*
X014767Y013143D01*
X014669Y013045D02*
X015603Y013045D01*
X015478Y013037D02*
X015278Y013037D01*
X015406Y012848D02*
X014472Y012848D01*
X014570Y012946D02*
X015504Y012946D01*
X015307Y012749D02*
X014373Y012749D01*
X014275Y012651D02*
X015209Y012651D01*
X015110Y012552D02*
X014176Y012552D01*
X014078Y012454D02*
X015012Y012454D01*
X014913Y012355D02*
X013979Y012355D01*
X013881Y012257D02*
X014815Y012257D01*
X014716Y012158D02*
X013782Y012158D01*
X013684Y012060D02*
X014618Y012060D01*
X014519Y011961D02*
X013585Y011961D01*
X013487Y011863D02*
X014421Y011863D01*
X014322Y011764D02*
X013388Y011764D01*
X013290Y011666D02*
X014224Y011666D01*
X014278Y011437D02*
X013778Y011437D01*
X012778Y010437D01*
X012778Y009437D01*
X010778Y007437D01*
X010778Y005937D01*
X009278Y004437D01*
X007278Y004437D01*
X006778Y004937D01*
X006778Y006737D01*
X006978Y006937D01*
X007278Y006937D01*
X009278Y008937D01*
X009278Y009537D01*
X009678Y009937D01*
X010228Y009937D01*
X010504Y009794D02*
X010878Y009794D01*
X010878Y009696D02*
X010425Y009696D01*
X010538Y009893D02*
X010878Y009893D01*
X010878Y009991D02*
X010538Y009991D01*
X010500Y010090D02*
X010878Y010090D01*
X010878Y010188D02*
X010415Y010188D01*
X010041Y010188D02*
X008452Y010188D01*
X008488Y010287D02*
X010878Y010287D01*
X010878Y010385D02*
X008488Y010385D01*
X008452Y010484D02*
X010878Y010484D01*
X010878Y010582D02*
X008378Y010582D01*
X008378Y010681D02*
X010878Y010681D01*
X010878Y010779D02*
X008378Y010779D01*
X008378Y010878D02*
X010878Y010878D01*
X010878Y010976D02*
X008378Y010976D01*
X008399Y011075D02*
X010878Y011075D01*
X010878Y011173D02*
X008497Y011173D01*
X008596Y011272D02*
X010878Y011272D01*
X010878Y011370D02*
X008694Y011370D01*
X008793Y011469D02*
X010878Y011469D01*
X010878Y011567D02*
X008891Y011567D01*
X008990Y011666D02*
X010878Y011666D01*
X010878Y011764D02*
X009088Y011764D01*
X009187Y011863D02*
X010878Y011863D01*
X010878Y011961D02*
X009285Y011961D01*
X009384Y012060D02*
X010878Y012060D01*
X010878Y012158D02*
X009482Y012158D01*
X009581Y012257D02*
X010878Y012257D01*
X010878Y012355D02*
X009679Y012355D01*
X009778Y012454D02*
X010878Y012454D01*
X010878Y012552D02*
X009876Y012552D01*
X009975Y012651D02*
X010878Y012651D01*
X010878Y012749D02*
X010073Y012749D01*
X010172Y012848D02*
X010878Y012848D01*
X010878Y012946D02*
X010270Y012946D01*
X010369Y013045D02*
X010878Y013045D01*
X010878Y013143D02*
X010467Y013143D01*
X010566Y013242D02*
X010878Y013242D01*
X010878Y013340D02*
X010664Y013340D01*
X010763Y013439D02*
X010878Y013439D01*
X010878Y013537D02*
X010778Y013537D01*
X010778Y013636D02*
X010878Y013636D01*
X010878Y013734D02*
X010778Y013734D01*
X010778Y013833D02*
X010878Y013833D01*
X010878Y013931D02*
X010778Y013931D01*
X010778Y014030D02*
X010878Y014030D01*
X010878Y014128D02*
X010778Y014128D01*
X010778Y014227D02*
X010878Y014227D01*
X010878Y014325D02*
X010805Y014325D01*
X010866Y014424D02*
X010878Y014424D01*
X010578Y014537D02*
X010578Y013537D01*
X008178Y011137D01*
X008178Y010337D01*
X008369Y010090D02*
X009548Y010090D01*
X009449Y009991D02*
X006878Y009991D01*
X006878Y009893D02*
X009351Y009893D01*
X009252Y009794D02*
X006878Y009794D01*
X006878Y009696D02*
X009154Y009696D01*
X009078Y009597D02*
X006878Y009597D01*
X006878Y009499D02*
X009078Y009499D01*
X009078Y009400D02*
X006878Y009400D01*
X006878Y009302D02*
X009078Y009302D01*
X009078Y009203D02*
X006878Y009203D01*
X006878Y009105D02*
X009078Y009105D01*
X009064Y009006D02*
X006878Y009006D01*
X006878Y008908D02*
X008966Y008908D01*
X008867Y008809D02*
X006878Y008809D01*
X006878Y008711D02*
X008769Y008711D01*
X008670Y008612D02*
X006878Y008612D01*
X006878Y008514D02*
X008572Y008514D01*
X008473Y008415D02*
X006878Y008415D01*
X006878Y008317D02*
X008375Y008317D01*
X008276Y008218D02*
X006878Y008218D01*
X006878Y008120D02*
X008178Y008120D01*
X008079Y008021D02*
X006878Y008021D01*
X006878Y007923D02*
X007158Y007923D01*
X007397Y007923D02*
X007981Y007923D01*
X007882Y007824D02*
X007529Y007824D01*
X007576Y007726D02*
X007784Y007726D01*
X007685Y007627D02*
X007588Y007627D01*
X007587Y007529D02*
X007569Y007529D01*
X007390Y007332D02*
X007352Y007332D01*
X007291Y007233D02*
X006573Y007233D01*
X006588Y007135D02*
X006893Y007135D01*
X006794Y007036D02*
X006572Y007036D01*
X006517Y006938D02*
X006696Y006938D01*
X006597Y006839D02*
X006370Y006839D01*
X006186Y006839D02*
X005978Y006839D01*
X005978Y006741D02*
X006578Y006741D01*
X006578Y006642D02*
X005978Y006642D01*
X005978Y006544D02*
X006578Y006544D01*
X006578Y006445D02*
X005978Y006445D01*
X005978Y006347D02*
X006578Y006347D01*
X006578Y006248D02*
X005978Y006248D01*
X005978Y006150D02*
X006578Y006150D01*
X006578Y006051D02*
X005978Y006051D01*
X005978Y005953D02*
X006578Y005953D01*
X006578Y005854D02*
X005978Y005854D01*
X005978Y005756D02*
X006578Y005756D01*
X006578Y005657D02*
X005978Y005657D01*
X005978Y005559D02*
X006578Y005559D01*
X006578Y005460D02*
X005978Y005460D01*
X005978Y005362D02*
X006578Y005362D01*
X006578Y005263D02*
X005978Y005263D01*
X005978Y005165D02*
X006578Y005165D01*
X006578Y005066D02*
X005978Y005066D01*
X005978Y004968D02*
X006578Y004968D01*
X006578Y004869D02*
X005978Y004869D01*
X005895Y004771D02*
X006661Y004771D01*
X006695Y004737D02*
X006695Y004737D01*
X006759Y004672D02*
X005796Y004672D01*
X005698Y004574D02*
X006858Y004574D01*
X006956Y004475D02*
X005599Y004475D01*
X005501Y004377D02*
X007055Y004377D01*
X007153Y004278D02*
X005402Y004278D01*
X005304Y004180D02*
X017678Y004180D01*
X017678Y004278D02*
X009402Y004278D01*
X009501Y004377D02*
X017678Y004377D01*
X017678Y004475D02*
X009599Y004475D01*
X009698Y004574D02*
X017678Y004574D01*
X017678Y004672D02*
X009796Y004672D01*
X009895Y004771D02*
X017678Y004771D01*
X017678Y004869D02*
X009993Y004869D01*
X010092Y004968D02*
X017678Y004968D01*
X017678Y005066D02*
X010190Y005066D01*
X010289Y005165D02*
X017723Y005165D01*
X017821Y005263D02*
X010387Y005263D01*
X010486Y005362D02*
X017920Y005362D01*
X017968Y005460D02*
X010584Y005460D01*
X010683Y005559D02*
X017978Y005559D01*
X017978Y005657D02*
X010781Y005657D01*
X009624Y005066D02*
X006978Y005066D01*
X007030Y004968D02*
X009526Y004968D01*
X009427Y004869D02*
X007128Y004869D01*
X007227Y004771D02*
X009329Y004771D01*
X009230Y004672D02*
X007325Y004672D01*
X008349Y004168D02*
X008353Y004168D01*
X007840Y005657D02*
X009215Y005657D01*
X009314Y005756D02*
X008109Y005756D01*
X008234Y005854D02*
X009412Y005854D01*
X009511Y005953D02*
X008278Y005953D01*
X008288Y006051D02*
X009528Y006051D01*
X009528Y006150D02*
X008374Y006150D01*
X008472Y006248D02*
X009528Y006248D01*
X009528Y006347D02*
X008571Y006347D01*
X008669Y006445D02*
X009528Y006445D01*
X009528Y006544D02*
X008768Y006544D01*
X008866Y006642D02*
X009528Y006642D01*
X009528Y006741D02*
X008965Y006741D01*
X009063Y006839D02*
X009528Y006839D01*
X009528Y006938D02*
X009162Y006938D01*
X009260Y007036D02*
X009528Y007036D01*
X009528Y007135D02*
X009359Y007135D01*
X009457Y007233D02*
X009541Y007233D01*
X009556Y007332D02*
X009640Y007332D01*
X009654Y007430D02*
X009738Y007430D01*
X009753Y007529D02*
X009837Y007529D01*
X009851Y007627D02*
X009935Y007627D01*
X009950Y007726D02*
X010034Y007726D01*
X010048Y007824D02*
X010132Y007824D01*
X010147Y007923D02*
X010231Y007923D01*
X010245Y008021D02*
X010329Y008021D01*
X010344Y008120D02*
X010428Y008120D01*
X010442Y008218D02*
X010526Y008218D01*
X010541Y008317D02*
X010625Y008317D01*
X010639Y008415D02*
X010723Y008415D01*
X010738Y008514D02*
X010822Y008514D01*
X010836Y008612D02*
X010920Y008612D01*
X010935Y008711D02*
X011019Y008711D01*
X011033Y008809D02*
X011117Y008809D01*
X011132Y008908D02*
X011216Y008908D01*
X011230Y009006D02*
X011314Y009006D01*
X011278Y009105D02*
X011413Y009105D01*
X011511Y009203D02*
X011278Y009203D01*
X011278Y009302D02*
X011610Y009302D01*
X011708Y009400D02*
X011278Y009400D01*
X011078Y009137D02*
X007978Y006037D01*
X007751Y006248D02*
X007478Y006248D01*
X007478Y006150D02*
X007689Y006150D01*
X007668Y006051D02*
X007478Y006051D01*
X007545Y005953D02*
X007677Y005953D01*
X007643Y005854D02*
X007722Y005854D01*
X007742Y005756D02*
X007846Y005756D01*
X009210Y006187D02*
X009210Y006197D01*
X010698Y007824D02*
X010882Y007824D01*
X010797Y007923D02*
X010981Y007923D01*
X010895Y008021D02*
X011079Y008021D01*
X010994Y008120D02*
X011178Y008120D01*
X011092Y008218D02*
X011276Y008218D01*
X011191Y008317D02*
X011375Y008317D01*
X011289Y008415D02*
X011473Y008415D01*
X011388Y008514D02*
X011572Y008514D01*
X011486Y008612D02*
X011670Y008612D01*
X011585Y008711D02*
X011769Y008711D01*
X011683Y008809D02*
X011867Y008809D01*
X011782Y008908D02*
X011966Y008908D01*
X011880Y009006D02*
X012064Y009006D01*
X011979Y009105D02*
X012163Y009105D01*
X012077Y009203D02*
X012261Y009203D01*
X012176Y009302D02*
X012360Y009302D01*
X012274Y009400D02*
X012458Y009400D01*
X012373Y009499D02*
X012557Y009499D01*
X012578Y009597D02*
X012471Y009597D01*
X012478Y009696D02*
X012578Y009696D01*
X012578Y009794D02*
X012478Y009794D01*
X012478Y009893D02*
X012578Y009893D01*
X012578Y009991D02*
X012478Y009991D01*
X012478Y010090D02*
X012578Y010090D01*
X012578Y010188D02*
X012478Y010188D01*
X012478Y010287D02*
X012578Y010287D01*
X012578Y010385D02*
X012478Y010385D01*
X012478Y010484D02*
X012578Y010484D01*
X012640Y010582D02*
X012478Y010582D01*
X012478Y010681D02*
X012739Y010681D01*
X012837Y010779D02*
X012478Y010779D01*
X012502Y010878D02*
X012936Y010878D01*
X013034Y010976D02*
X012600Y010976D01*
X012699Y011075D02*
X013133Y011075D01*
X013231Y011173D02*
X012797Y011173D01*
X012896Y011272D02*
X013330Y011272D01*
X013428Y011370D02*
X012994Y011370D01*
X013093Y011469D02*
X013527Y011469D01*
X013625Y011567D02*
X013191Y011567D01*
X012921Y011863D02*
X011878Y011863D01*
X011878Y011961D02*
X013019Y011961D01*
X013118Y012060D02*
X011939Y012060D01*
X011981Y012158D02*
X013216Y012158D01*
X013315Y012257D02*
X011988Y012257D01*
X011964Y012355D02*
X013413Y012355D01*
X013512Y012454D02*
X011899Y012454D01*
X011678Y012237D02*
X011678Y009937D01*
X011478Y009737D01*
X011755Y009597D02*
X011905Y009597D01*
X011807Y009499D02*
X011678Y009499D01*
X011788Y009696D02*
X012004Y009696D01*
X012078Y009794D02*
X011818Y009794D01*
X011878Y009893D02*
X012078Y009893D01*
X012078Y009991D02*
X011878Y009991D01*
X011878Y010090D02*
X012078Y010090D01*
X012078Y010188D02*
X011878Y010188D01*
X011878Y010287D02*
X012078Y010287D01*
X012078Y010385D02*
X011878Y010385D01*
X011878Y010484D02*
X012078Y010484D01*
X012078Y010582D02*
X011878Y010582D01*
X011878Y010681D02*
X012078Y010681D01*
X012078Y010779D02*
X011878Y010779D01*
X011878Y010878D02*
X012078Y010878D01*
X012078Y010976D02*
X011878Y010976D01*
X011878Y011075D02*
X012133Y011075D01*
X012231Y011173D02*
X011878Y011173D01*
X011878Y011272D02*
X012330Y011272D01*
X012428Y011370D02*
X011878Y011370D01*
X011878Y011469D02*
X012527Y011469D01*
X012625Y011567D02*
X011878Y011567D01*
X011878Y011666D02*
X012724Y011666D01*
X012822Y011764D02*
X011878Y011764D01*
X011478Y011764D02*
X011278Y011764D01*
X011278Y011666D02*
X011478Y011666D01*
X011478Y011567D02*
X011278Y011567D01*
X011278Y011469D02*
X011478Y011469D01*
X011478Y011370D02*
X011278Y011370D01*
X011278Y011272D02*
X011478Y011272D01*
X011478Y011173D02*
X011278Y011173D01*
X011278Y011075D02*
X011478Y011075D01*
X011478Y010976D02*
X011278Y010976D01*
X011278Y010878D02*
X011478Y010878D01*
X011478Y010779D02*
X011278Y010779D01*
X011278Y010681D02*
X011478Y010681D01*
X011478Y010582D02*
X011278Y010582D01*
X011278Y010484D02*
X011478Y010484D01*
X011478Y010385D02*
X011278Y010385D01*
X011278Y010287D02*
X011478Y010287D01*
X011478Y010188D02*
X011278Y010188D01*
X011278Y010090D02*
X011478Y010090D01*
X011294Y009991D02*
X011278Y009991D01*
X010878Y009597D02*
X009621Y009597D01*
X009523Y009499D02*
X010878Y009499D01*
X011078Y009137D02*
X011078Y018237D01*
X011390Y018561D02*
X011765Y018561D01*
X011667Y018462D02*
X011489Y018462D01*
X011528Y018364D02*
X011628Y018364D01*
X011628Y018423D02*
X011628Y018050D01*
X011891Y017787D01*
X012264Y017787D01*
X012528Y018050D01*
X012528Y018423D01*
X012264Y018687D01*
X011891Y018687D01*
X011628Y018423D01*
X011628Y018265D02*
X011528Y018265D01*
X011528Y018167D02*
X011628Y018167D01*
X011628Y018068D02*
X011528Y018068D01*
X011447Y017970D02*
X011708Y017970D01*
X011807Y017871D02*
X011349Y017871D01*
X011278Y017773D02*
X016231Y017773D01*
X016329Y017871D02*
X012349Y017871D01*
X012447Y017970D02*
X016428Y017970D01*
X016578Y017837D02*
X017978Y017837D01*
X018278Y017537D01*
X018278Y013237D01*
X017978Y012937D01*
X017278Y012937D01*
X017779Y013340D02*
X018078Y013340D01*
X018078Y013439D02*
X016563Y013439D01*
X016661Y013537D02*
X016766Y013537D01*
X016776Y013340D02*
X016464Y013340D01*
X016366Y013242D02*
X016646Y013242D01*
X016576Y013143D02*
X016267Y013143D01*
X016169Y013045D02*
X016535Y013045D01*
X016528Y012946D02*
X016070Y012946D01*
X015972Y012848D02*
X016528Y012848D01*
X016568Y012749D02*
X015873Y012749D01*
X015775Y012651D02*
X016627Y012651D01*
X016730Y012552D02*
X015676Y012552D01*
X015578Y012454D02*
X017912Y012454D01*
X017825Y012552D02*
X018010Y012552D01*
X017928Y012651D02*
X018109Y012651D01*
X018073Y012749D02*
X018207Y012749D01*
X018172Y012848D02*
X018306Y012848D01*
X018270Y012946D02*
X018404Y012946D01*
X018369Y013045D02*
X018503Y013045D01*
X018467Y013143D02*
X018601Y013143D01*
X018678Y013242D02*
X018478Y013242D01*
X018478Y013340D02*
X018678Y013340D01*
X018678Y013439D02*
X018478Y013439D01*
X018478Y013537D02*
X018678Y013537D01*
X018678Y013636D02*
X018478Y013636D01*
X018478Y013734D02*
X018678Y013734D01*
X018678Y013833D02*
X018478Y013833D01*
X018478Y013931D02*
X018678Y013931D01*
X018678Y014030D02*
X018478Y014030D01*
X018478Y014128D02*
X018678Y014128D01*
X018678Y014227D02*
X018478Y014227D01*
X018478Y014325D02*
X018678Y014325D01*
X018678Y014424D02*
X018478Y014424D01*
X018478Y014522D02*
X018678Y014522D01*
X018678Y014621D02*
X018478Y014621D01*
X018478Y014719D02*
X018678Y014719D01*
X018678Y014818D02*
X018478Y014818D01*
X018478Y014916D02*
X018678Y014916D01*
X018678Y015015D02*
X018478Y015015D01*
X018478Y015113D02*
X018678Y015113D01*
X018678Y015212D02*
X018478Y015212D01*
X018478Y015310D02*
X018678Y015310D01*
X018678Y015409D02*
X018478Y015409D01*
X018478Y015507D02*
X018678Y015507D01*
X018678Y015606D02*
X018478Y015606D01*
X018478Y015704D02*
X018678Y015704D01*
X018678Y015803D02*
X018478Y015803D01*
X018478Y015901D02*
X018678Y015901D01*
X018678Y016000D02*
X018478Y016000D01*
X018478Y016098D02*
X018756Y016098D01*
X018878Y015937D02*
X018878Y013137D01*
X017478Y011737D01*
X017278Y011737D01*
X015528Y009987D01*
X013278Y009987D01*
X013515Y010188D02*
X015446Y010188D01*
X015545Y010287D02*
X013363Y010287D01*
X013192Y010287D02*
X012978Y010287D01*
X012978Y010188D02*
X013041Y010188D01*
X012985Y010090D02*
X012978Y010090D01*
X012978Y009893D02*
X012981Y009893D01*
X012978Y009794D02*
X013032Y009794D01*
X012978Y009696D02*
X013170Y009696D01*
X013385Y009696D02*
X015954Y009696D01*
X016052Y009794D02*
X015618Y009794D01*
X015717Y009893D02*
X016151Y009893D01*
X016249Y009991D02*
X015815Y009991D01*
X015914Y010090D02*
X016348Y010090D01*
X016446Y010188D02*
X016012Y010188D01*
X016111Y010287D02*
X016545Y010287D01*
X016643Y010385D02*
X016209Y010385D01*
X016308Y010484D02*
X016742Y010484D01*
X016840Y010582D02*
X016406Y010582D01*
X016505Y010681D02*
X016939Y010681D01*
X017037Y010779D02*
X016603Y010779D01*
X016702Y010878D02*
X017136Y010878D01*
X017234Y010976D02*
X016800Y010976D01*
X016899Y011075D02*
X017333Y011075D01*
X017431Y011173D02*
X016997Y011173D01*
X017096Y011272D02*
X017530Y011272D01*
X017628Y011370D02*
X017194Y011370D01*
X017293Y011469D02*
X017727Y011469D01*
X017825Y011567D02*
X017591Y011567D01*
X017690Y011666D02*
X017924Y011666D01*
X018022Y011764D02*
X017788Y011764D01*
X017887Y011863D02*
X018121Y011863D01*
X018219Y011961D02*
X017985Y011961D01*
X018084Y012060D02*
X018318Y012060D01*
X018416Y012158D02*
X018182Y012158D01*
X018281Y012257D02*
X018515Y012257D01*
X018613Y012355D02*
X018379Y012355D01*
X018478Y012454D02*
X018712Y012454D01*
X018810Y012552D02*
X018576Y012552D01*
X018675Y012651D02*
X018909Y012651D01*
X019007Y012749D02*
X018773Y012749D01*
X018872Y012848D02*
X019078Y012848D01*
X019078Y012946D02*
X018970Y012946D01*
X019069Y013045D02*
X019078Y013045D01*
X019078Y013143D02*
X019078Y013143D01*
X019078Y013242D02*
X019078Y013242D01*
X019078Y013340D02*
X019078Y013340D01*
X019078Y013439D02*
X019078Y013439D01*
X019078Y013537D02*
X019078Y013537D01*
X019078Y013636D02*
X019078Y013636D01*
X019078Y013734D02*
X019078Y013734D01*
X019078Y013833D02*
X019078Y013833D01*
X019078Y013931D02*
X019078Y013931D01*
X019078Y014030D02*
X019078Y014030D01*
X019078Y014128D02*
X019078Y014128D01*
X019078Y014227D02*
X019078Y014227D01*
X019078Y014325D02*
X019078Y014325D01*
X019078Y014424D02*
X019078Y014424D01*
X019078Y014522D02*
X019080Y014522D01*
X019078Y014621D02*
X019179Y014621D01*
X019277Y014719D02*
X019078Y014719D01*
X019078Y014818D02*
X019340Y014818D01*
X019328Y014916D02*
X019078Y014916D01*
X019078Y015015D02*
X019328Y015015D01*
X019364Y015113D02*
X019078Y015113D01*
X019078Y015212D02*
X019416Y015212D01*
X019515Y015310D02*
X019078Y015310D01*
X019078Y015409D02*
X021313Y015409D01*
X021313Y015507D02*
X020517Y015507D01*
X020683Y015606D02*
X021313Y015606D01*
X021313Y015704D02*
X020769Y015704D01*
X020809Y015803D02*
X021313Y015803D01*
X021313Y015901D02*
X020828Y015901D01*
X020828Y016000D02*
X021313Y016000D01*
X021313Y016098D02*
X020798Y016098D01*
X020754Y016197D02*
X021313Y016197D01*
X021313Y016295D02*
X020656Y016295D01*
X020550Y016520D02*
X020614Y016552D01*
X020671Y016593D01*
X020721Y016644D01*
X020763Y016701D01*
X020795Y016764D01*
X020817Y016831D01*
X020825Y016887D01*
X020128Y016887D01*
X020128Y016987D01*
X020028Y016987D01*
X020028Y017387D01*
X019742Y017387D01*
X019672Y017376D01*
X019605Y017354D01*
X019542Y017322D01*
X019485Y017280D01*
X018478Y017280D01*
X018478Y017182D02*
X019400Y017182D01*
X019393Y017173D02*
X019361Y017109D01*
X019339Y017042D01*
X019330Y016987D01*
X020028Y016987D01*
X020028Y016887D01*
X020128Y016887D01*
X020128Y016487D01*
X020413Y016487D01*
X020483Y016498D01*
X020550Y016520D01*
X020448Y016492D02*
X021313Y016492D01*
X021313Y016394D02*
X018478Y016394D01*
X018478Y016492D02*
X019707Y016492D01*
X019672Y016498D02*
X019742Y016487D01*
X020028Y016487D01*
X020028Y016887D01*
X019330Y016887D01*
X019339Y016831D01*
X019361Y016764D01*
X019393Y016701D01*
X019434Y016644D01*
X019485Y016593D01*
X019542Y016552D01*
X019605Y016520D01*
X019672Y016498D01*
X019488Y016591D02*
X018478Y016591D01*
X018478Y016689D02*
X019401Y016689D01*
X019353Y016788D02*
X018478Y016788D01*
X018478Y016886D02*
X019330Y016886D01*
X019352Y017083D02*
X018478Y017083D01*
X018478Y016985D02*
X020028Y016985D01*
X020028Y017083D02*
X020128Y017083D01*
X020128Y016987D02*
X020128Y017387D01*
X020413Y017387D01*
X020483Y017376D01*
X020550Y017354D01*
X020614Y017322D01*
X020671Y017280D01*
X020721Y017230D01*
X020763Y017173D01*
X020795Y017109D01*
X020817Y017042D01*
X020825Y016987D01*
X020128Y016987D01*
X020128Y016985D02*
X021313Y016985D01*
X021313Y017083D02*
X020803Y017083D01*
X020756Y017182D02*
X021313Y017182D01*
X021313Y017280D02*
X020670Y017280D01*
X020463Y017379D02*
X021313Y017379D01*
X021313Y017477D02*
X018478Y017477D01*
X018478Y017379D02*
X019692Y017379D01*
X019485Y017280D02*
X019434Y017230D01*
X019393Y017173D01*
X020028Y017182D02*
X020128Y017182D01*
X020128Y017280D02*
X020028Y017280D01*
X020028Y017379D02*
X020128Y017379D01*
X020128Y016886D02*
X020028Y016886D01*
X020028Y016788D02*
X020128Y016788D01*
X020128Y016689D02*
X020028Y016689D01*
X020028Y016591D02*
X020128Y016591D01*
X020128Y016492D02*
X020028Y016492D01*
X020667Y016591D02*
X021313Y016591D01*
X021313Y016689D02*
X020754Y016689D01*
X020802Y016788D02*
X021313Y016788D01*
X021313Y016886D02*
X020825Y016886D01*
X021313Y017576D02*
X018478Y017576D01*
X018423Y017674D02*
X021313Y017674D01*
X021313Y017773D02*
X018325Y017773D01*
X018226Y017871D02*
X021313Y017871D01*
X021313Y017970D02*
X020534Y017970D01*
X020364Y017899D02*
X020709Y018042D01*
X020972Y018306D01*
X021115Y018650D01*
X021115Y019023D01*
X020972Y019368D01*
X020709Y019631D01*
X020364Y019774D01*
X019991Y019774D01*
X019647Y019631D01*
X019383Y019368D01*
X019240Y019023D01*
X019240Y018650D01*
X019383Y018306D01*
X019647Y018042D01*
X019991Y017899D01*
X020364Y017899D01*
X020735Y018068D02*
X021313Y018068D01*
X021313Y018167D02*
X020833Y018167D01*
X020932Y018265D02*
X021313Y018265D01*
X021313Y018364D02*
X020996Y018364D01*
X021037Y018462D02*
X021313Y018462D01*
X021313Y018561D02*
X021078Y018561D01*
X021115Y018659D02*
X021313Y018659D01*
X021313Y018758D02*
X021115Y018758D01*
X021115Y018856D02*
X021313Y018856D01*
X021313Y018955D02*
X021115Y018955D01*
X021103Y019053D02*
X021313Y019053D01*
X021308Y019152D02*
X021062Y019152D01*
X021021Y019250D02*
X021296Y019250D01*
X021264Y019349D02*
X020980Y019349D01*
X020893Y019447D02*
X021232Y019447D01*
X021180Y019546D02*
X020794Y019546D01*
X020678Y019644D02*
X021108Y019644D01*
X021019Y019743D02*
X020440Y019743D01*
X020640Y019940D02*
X002568Y019940D01*
X002331Y019841D02*
X020883Y019841D01*
X019916Y019743D02*
X003340Y019743D01*
X003264Y019774D02*
X003609Y019631D01*
X003872Y019368D01*
X004015Y019023D01*
X004015Y018650D01*
X003872Y018306D01*
X003609Y018042D01*
X003264Y017899D01*
X002891Y017899D01*
X002547Y018042D01*
X002283Y018306D01*
X002140Y018650D01*
X002140Y019023D01*
X002283Y019368D01*
X002547Y019631D01*
X002891Y019774D01*
X003264Y019774D01*
X003578Y019644D02*
X009849Y019644D01*
X009750Y019546D02*
X003694Y019546D01*
X003793Y019447D02*
X009652Y019447D01*
X009628Y019349D02*
X003880Y019349D01*
X003921Y019250D02*
X006416Y019250D01*
X006264Y019152D02*
X003962Y019152D01*
X004003Y019053D02*
X006185Y019053D01*
X006144Y018955D02*
X004015Y018955D01*
X004015Y018856D02*
X006131Y018856D01*
X006131Y018758D02*
X004015Y018758D01*
X004015Y018659D02*
X006131Y018659D01*
X006131Y018561D02*
X003978Y018561D01*
X003937Y018462D02*
X006131Y018462D01*
X006131Y018364D02*
X003896Y018364D01*
X003832Y018265D02*
X006131Y018265D01*
X006131Y018167D02*
X003733Y018167D01*
X003635Y018068D02*
X006165Y018068D01*
X006216Y017970D02*
X003434Y017970D01*
X002721Y017970D02*
X001928Y017970D01*
X001928Y018068D02*
X002520Y018068D01*
X002422Y018167D02*
X001928Y018167D01*
X001928Y018265D02*
X002323Y018265D01*
X002259Y018364D02*
X001928Y018364D01*
X001928Y018462D02*
X002218Y018462D01*
X002177Y018561D02*
X001928Y018561D01*
X001928Y018659D02*
X002140Y018659D01*
X002140Y018758D02*
X001928Y018758D01*
X001928Y018856D02*
X002140Y018856D01*
X002140Y018955D02*
X001928Y018955D01*
X001928Y019053D02*
X002153Y019053D01*
X002194Y019152D02*
X001929Y019152D01*
X001937Y019250D02*
X002234Y019250D01*
X002275Y019349D02*
X001965Y019349D01*
X001997Y019447D02*
X002363Y019447D01*
X002461Y019546D02*
X002042Y019546D01*
X002114Y019644D02*
X002578Y019644D01*
X002816Y019743D02*
X002196Y019743D01*
X001928Y017871D02*
X006314Y017871D01*
X006378Y017773D02*
X001928Y017773D01*
X001928Y017674D02*
X006378Y017674D01*
X006378Y017576D02*
X001928Y017576D01*
X001928Y017477D02*
X006378Y017477D01*
X006378Y017379D02*
X001928Y017379D01*
X001928Y017280D02*
X006378Y017280D01*
X006378Y017182D02*
X001928Y017182D01*
X001928Y017083D02*
X002940Y017083D01*
X002962Y017087D02*
X002892Y017076D01*
X002825Y017054D01*
X002762Y017022D01*
X002705Y016980D01*
X002654Y016930D01*
X002613Y016873D01*
X002581Y016809D01*
X002559Y016742D01*
X002550Y016687D01*
X003248Y016687D01*
X003248Y017087D01*
X002962Y017087D01*
X002711Y016985D02*
X001928Y016985D01*
X001928Y016886D02*
X002623Y016886D01*
X002574Y016788D02*
X001928Y016788D01*
X001928Y016689D02*
X002550Y016689D01*
X002550Y016587D02*
X002559Y016531D01*
X002581Y016464D01*
X002613Y016401D01*
X002654Y016344D01*
X002705Y016293D01*
X002762Y016252D01*
X002825Y016220D01*
X002892Y016198D01*
X002962Y016187D01*
X003248Y016187D01*
X003248Y016587D01*
X003348Y016587D01*
X003348Y016687D01*
X003248Y016687D01*
X003248Y016587D01*
X002550Y016587D01*
X002572Y016492D02*
X001928Y016492D01*
X001928Y016394D02*
X002618Y016394D01*
X002703Y016295D02*
X001928Y016295D01*
X001928Y016197D02*
X002899Y016197D01*
X002908Y016087D02*
X002743Y016018D01*
X002616Y015892D01*
X002548Y015726D01*
X002548Y015547D01*
X002616Y015382D01*
X002743Y015255D01*
X002908Y015187D01*
X003687Y015187D01*
X003853Y015255D01*
X003979Y015382D01*
X004048Y015547D01*
X004048Y015726D01*
X003979Y015892D01*
X003853Y016018D01*
X003687Y016087D01*
X002908Y016087D01*
X002724Y016000D02*
X001928Y016000D01*
X001928Y016098D02*
X006378Y016098D01*
X006378Y016000D02*
X003871Y016000D01*
X003970Y015901D02*
X006378Y015901D01*
X006378Y015803D02*
X004016Y015803D01*
X004048Y015704D02*
X006362Y015704D01*
X006264Y015606D02*
X004048Y015606D01*
X004031Y015507D02*
X006165Y015507D01*
X006067Y015409D02*
X003990Y015409D01*
X003908Y015310D02*
X005968Y015310D01*
X005870Y015212D02*
X003748Y015212D01*
X003687Y015087D02*
X003853Y015018D01*
X003979Y014892D01*
X004048Y014726D01*
X004048Y014547D01*
X003979Y014382D01*
X003853Y014255D01*
X003687Y014187D01*
X002908Y014187D01*
X002743Y014255D01*
X002616Y014382D01*
X002548Y014547D01*
X002548Y014726D01*
X002616Y014892D01*
X002743Y015018D01*
X002908Y015087D01*
X003687Y015087D01*
X003856Y015015D02*
X005673Y015015D01*
X005771Y015113D02*
X001928Y015113D01*
X001928Y015015D02*
X002739Y015015D01*
X002641Y014916D02*
X001928Y014916D01*
X001928Y014818D02*
X002586Y014818D01*
X002548Y014719D02*
X001928Y014719D01*
X001928Y014621D02*
X002548Y014621D01*
X002558Y014522D02*
X001928Y014522D01*
X001928Y014424D02*
X002599Y014424D01*
X002673Y014325D02*
X001928Y014325D01*
X001928Y014227D02*
X002812Y014227D01*
X002771Y014030D02*
X001928Y014030D01*
X001928Y014128D02*
X004786Y014128D01*
X004688Y014030D02*
X003825Y014030D01*
X003940Y013931D02*
X004589Y013931D01*
X004578Y013637D02*
X003298Y013637D01*
X002775Y013242D02*
X001928Y013242D01*
X001928Y013340D02*
X002658Y013340D01*
X002593Y013439D02*
X001928Y013439D01*
X001928Y013537D02*
X002552Y013537D01*
X002548Y013636D02*
X001928Y013636D01*
X001928Y013734D02*
X002551Y013734D01*
X002592Y013833D02*
X001928Y013833D01*
X001928Y013931D02*
X002656Y013931D01*
X001928Y013143D02*
X005578Y013143D01*
X005578Y013045D02*
X001928Y013045D01*
X001928Y012946D02*
X005578Y012946D01*
X005578Y012848D02*
X005061Y012848D01*
X005133Y012818D02*
X004967Y012887D01*
X004788Y012887D01*
X004623Y012818D01*
X004496Y012692D01*
X004428Y012526D01*
X004428Y011747D01*
X004496Y011582D01*
X004623Y011455D01*
X004788Y011387D01*
X004967Y011387D01*
X005133Y011455D01*
X005259Y011582D01*
X005328Y011747D01*
X005328Y012526D01*
X005259Y012692D01*
X005133Y012818D01*
X005202Y012749D02*
X005578Y012749D01*
X005578Y012651D02*
X005276Y012651D01*
X005317Y012552D02*
X005578Y012552D01*
X005578Y012454D02*
X005328Y012454D01*
X005328Y012355D02*
X005578Y012355D01*
X005578Y012257D02*
X005328Y012257D01*
X005328Y012158D02*
X005578Y012158D01*
X005578Y012060D02*
X005328Y012060D01*
X005328Y011961D02*
X005578Y011961D01*
X005578Y011863D02*
X005328Y011863D01*
X005328Y011764D02*
X005578Y011764D01*
X005578Y011666D02*
X005294Y011666D01*
X005245Y011567D02*
X005578Y011567D01*
X005578Y011469D02*
X005146Y011469D01*
X005578Y011370D02*
X001928Y011370D01*
X001928Y011272D02*
X005578Y011272D01*
X005578Y011173D02*
X001928Y011173D01*
X001928Y011075D02*
X005578Y011075D01*
X005578Y010976D02*
X004993Y010976D01*
X004967Y010987D02*
X004788Y010987D01*
X004623Y010918D01*
X004496Y010792D01*
X004428Y010626D01*
X004428Y009847D01*
X004496Y009682D01*
X004623Y009555D01*
X004788Y009487D01*
X004967Y009487D01*
X005133Y009555D01*
X005259Y009682D01*
X005328Y009847D01*
X005328Y010626D01*
X005259Y010792D01*
X005133Y010918D01*
X004967Y010987D01*
X004763Y010976D02*
X003993Y010976D01*
X003967Y010987D02*
X003788Y010987D01*
X003623Y010918D01*
X003496Y010792D01*
X003428Y010626D01*
X003428Y009847D01*
X003496Y009682D01*
X003623Y009555D01*
X003788Y009487D01*
X003967Y009487D01*
X004133Y009555D01*
X004259Y009682D01*
X004328Y009847D01*
X004328Y010626D01*
X004259Y010792D01*
X004133Y010918D01*
X003967Y010987D01*
X003763Y010976D02*
X002993Y010976D01*
X002967Y010987D02*
X002788Y010987D01*
X002623Y010918D01*
X002496Y010792D01*
X002428Y010626D01*
X002428Y009847D01*
X002496Y009682D01*
X002623Y009555D01*
X002788Y009487D01*
X002967Y009487D01*
X003133Y009555D01*
X003259Y009682D01*
X003328Y009847D01*
X003328Y010626D01*
X003259Y010792D01*
X003133Y010918D01*
X002967Y010987D01*
X002763Y010976D02*
X001928Y010976D01*
X001928Y010878D02*
X002582Y010878D01*
X002491Y010779D02*
X001928Y010779D01*
X001928Y010681D02*
X002450Y010681D01*
X002428Y010582D02*
X001928Y010582D01*
X001928Y010484D02*
X002428Y010484D01*
X002428Y010385D02*
X001928Y010385D01*
X001928Y010287D02*
X002428Y010287D01*
X002428Y010188D02*
X001928Y010188D01*
X001928Y010090D02*
X002428Y010090D01*
X002428Y009991D02*
X001928Y009991D01*
X001928Y009893D02*
X002428Y009893D01*
X002450Y009794D02*
X001928Y009794D01*
X001928Y009696D02*
X002490Y009696D01*
X002581Y009597D02*
X001928Y009597D01*
X001928Y009499D02*
X002759Y009499D01*
X002996Y009499D02*
X003759Y009499D01*
X003581Y009597D02*
X003175Y009597D01*
X003265Y009696D02*
X003490Y009696D01*
X003450Y009794D02*
X003306Y009794D01*
X003328Y009893D02*
X003428Y009893D01*
X003428Y009991D02*
X003328Y009991D01*
X003328Y010090D02*
X003428Y010090D01*
X003428Y010188D02*
X003328Y010188D01*
X003328Y010287D02*
X003428Y010287D01*
X003428Y010385D02*
X003328Y010385D01*
X003328Y010484D02*
X003428Y010484D01*
X003428Y010582D02*
X003328Y010582D01*
X003305Y010681D02*
X003450Y010681D01*
X003491Y010779D02*
X003264Y010779D01*
X003173Y010878D02*
X003582Y010878D01*
X003788Y011387D02*
X003623Y011455D01*
X003496Y011582D01*
X003428Y011747D01*
X003428Y012526D01*
X003496Y012692D01*
X003623Y012818D01*
X003788Y012887D01*
X003967Y012887D01*
X004133Y012818D01*
X004259Y012692D01*
X004328Y012526D01*
X004328Y011747D01*
X004259Y011582D01*
X004133Y011455D01*
X003967Y011387D01*
X003788Y011387D01*
X003609Y011469D02*
X003146Y011469D01*
X003133Y011455D02*
X003259Y011582D01*
X003328Y011747D01*
X003328Y012526D01*
X003259Y012692D01*
X003133Y012818D01*
X002967Y012887D01*
X002788Y012887D01*
X002623Y012818D01*
X002496Y012692D01*
X002428Y012526D01*
X002428Y011747D01*
X002496Y011582D01*
X002623Y011455D01*
X002788Y011387D01*
X002967Y011387D01*
X003133Y011455D01*
X003245Y011567D02*
X003511Y011567D01*
X003461Y011666D02*
X003294Y011666D01*
X003328Y011764D02*
X003428Y011764D01*
X003428Y011863D02*
X003328Y011863D01*
X003328Y011961D02*
X003428Y011961D01*
X003428Y012060D02*
X003328Y012060D01*
X003328Y012158D02*
X003428Y012158D01*
X003428Y012257D02*
X003328Y012257D01*
X003328Y012355D02*
X003428Y012355D01*
X003428Y012454D02*
X003328Y012454D01*
X003317Y012552D02*
X003439Y012552D01*
X003479Y012651D02*
X003276Y012651D01*
X003202Y012749D02*
X003554Y012749D01*
X003694Y012848D02*
X003061Y012848D01*
X002694Y012848D02*
X001928Y012848D01*
X001928Y012749D02*
X002554Y012749D01*
X002479Y012651D02*
X001928Y012651D01*
X001928Y012552D02*
X002439Y012552D01*
X002428Y012454D02*
X001928Y012454D01*
X001928Y012355D02*
X002428Y012355D01*
X002428Y012257D02*
X001928Y012257D01*
X001928Y012158D02*
X002428Y012158D01*
X002428Y012060D02*
X001928Y012060D01*
X001928Y011961D02*
X002428Y011961D01*
X002428Y011863D02*
X001928Y011863D01*
X001928Y011764D02*
X002428Y011764D01*
X002461Y011666D02*
X001928Y011666D01*
X001928Y011567D02*
X002511Y011567D01*
X002609Y011469D02*
X001928Y011469D01*
X001928Y009400D02*
X005578Y009400D01*
X005578Y009302D02*
X001928Y009302D01*
X001928Y009203D02*
X005578Y009203D01*
X005578Y009105D02*
X001928Y009105D01*
X001928Y009006D02*
X002611Y009006D01*
X002623Y009018D02*
X002496Y008892D01*
X002428Y008726D01*
X002428Y007947D01*
X002496Y007782D01*
X002623Y007655D01*
X002788Y007587D01*
X002967Y007587D01*
X003133Y007655D01*
X003259Y007782D01*
X003328Y007947D01*
X003328Y008726D01*
X003259Y008892D01*
X003133Y009018D01*
X002967Y009087D01*
X002788Y009087D01*
X002623Y009018D01*
X002512Y008908D02*
X001928Y008908D01*
X001928Y008809D02*
X002462Y008809D01*
X002428Y008711D02*
X001928Y008711D01*
X001928Y008612D02*
X002428Y008612D01*
X002428Y008514D02*
X001928Y008514D01*
X001928Y008415D02*
X002428Y008415D01*
X002428Y008317D02*
X001928Y008317D01*
X001928Y008218D02*
X002428Y008218D01*
X002428Y008120D02*
X001928Y008120D01*
X001928Y008021D02*
X002428Y008021D01*
X002438Y007923D02*
X001928Y007923D01*
X001928Y007824D02*
X002479Y007824D01*
X002552Y007726D02*
X001928Y007726D01*
X001928Y007627D02*
X002690Y007627D01*
X003065Y007627D02*
X003690Y007627D01*
X003623Y007655D02*
X003788Y007587D01*
X003967Y007587D01*
X004133Y007655D01*
X004259Y007782D01*
X004328Y007947D01*
X004328Y008726D01*
X004259Y008892D01*
X004133Y009018D01*
X003967Y009087D01*
X003788Y009087D01*
X003623Y009018D01*
X003496Y008892D01*
X003428Y008726D01*
X003428Y007947D01*
X003496Y007782D01*
X003623Y007655D01*
X003552Y007726D02*
X003203Y007726D01*
X003277Y007824D02*
X003479Y007824D01*
X003438Y007923D02*
X003318Y007923D01*
X003328Y008021D02*
X003428Y008021D01*
X003428Y008120D02*
X003328Y008120D01*
X003328Y008218D02*
X003428Y008218D01*
X003428Y008317D02*
X003328Y008317D01*
X003328Y008415D02*
X003428Y008415D01*
X003428Y008514D02*
X003328Y008514D01*
X003328Y008612D02*
X003428Y008612D01*
X003428Y008711D02*
X003328Y008711D01*
X003293Y008809D02*
X003462Y008809D01*
X003512Y008908D02*
X003243Y008908D01*
X003145Y009006D02*
X003611Y009006D01*
X004145Y009006D02*
X004611Y009006D01*
X004623Y009018D02*
X004496Y008892D01*
X004428Y008726D01*
X004428Y007947D01*
X004496Y007782D01*
X004623Y007655D01*
X004788Y007587D01*
X004967Y007587D01*
X005133Y007655D01*
X005259Y007782D01*
X005328Y007947D01*
X005328Y008726D01*
X005259Y008892D01*
X005133Y009018D01*
X004967Y009087D01*
X004788Y009087D01*
X004623Y009018D01*
X004512Y008908D02*
X004243Y008908D01*
X004293Y008809D02*
X004462Y008809D01*
X004428Y008711D02*
X004328Y008711D01*
X004328Y008612D02*
X004428Y008612D01*
X004428Y008514D02*
X004328Y008514D01*
X004328Y008415D02*
X004428Y008415D01*
X004428Y008317D02*
X004328Y008317D01*
X004328Y008218D02*
X004428Y008218D01*
X004428Y008120D02*
X004328Y008120D01*
X004328Y008021D02*
X004428Y008021D01*
X004438Y007923D02*
X004318Y007923D01*
X004277Y007824D02*
X004479Y007824D01*
X004552Y007726D02*
X004203Y007726D01*
X004065Y007627D02*
X004690Y007627D01*
X004788Y007287D02*
X004623Y007218D01*
X004496Y007092D01*
X004428Y006926D01*
X004428Y006147D01*
X004496Y005982D01*
X004623Y005855D01*
X004788Y005787D01*
X004967Y005787D01*
X005133Y005855D01*
X005259Y005982D01*
X005328Y006147D01*
X005328Y006926D01*
X005259Y007092D01*
X005133Y007218D01*
X004967Y007287D01*
X004788Y007287D01*
X004659Y007233D02*
X004096Y007233D01*
X004133Y007218D02*
X003967Y007287D01*
X003788Y007287D01*
X003623Y007218D01*
X003496Y007092D01*
X003428Y006926D01*
X003428Y006147D01*
X003496Y005982D01*
X003623Y005855D01*
X003788Y005787D01*
X003967Y005787D01*
X004133Y005855D01*
X004259Y005982D01*
X004328Y006147D01*
X004328Y006926D01*
X004259Y007092D01*
X004133Y007218D01*
X004216Y007135D02*
X004539Y007135D01*
X004473Y007036D02*
X004282Y007036D01*
X004323Y006938D02*
X004432Y006938D01*
X004428Y006839D02*
X004328Y006839D01*
X004328Y006741D02*
X004428Y006741D01*
X004428Y006642D02*
X004328Y006642D01*
X004328Y006544D02*
X004428Y006544D01*
X004428Y006445D02*
X004328Y006445D01*
X004328Y006347D02*
X004428Y006347D01*
X004428Y006248D02*
X004328Y006248D01*
X004328Y006150D02*
X004428Y006150D01*
X004467Y006051D02*
X004288Y006051D01*
X004230Y005953D02*
X004525Y005953D01*
X004625Y005854D02*
X004130Y005854D01*
X003625Y005854D02*
X003117Y005854D01*
X003114Y005852D02*
X003171Y005893D01*
X003221Y005944D01*
X003263Y006001D01*
X003295Y006064D01*
X003317Y006131D01*
X003328Y006201D01*
X003328Y006487D01*
X002928Y006487D01*
X002928Y006587D01*
X002828Y006587D01*
X002828Y007284D01*
X002772Y007276D01*
X002705Y007254D01*
X002642Y007222D01*
X002585Y007180D01*
X002534Y007130D01*
X002493Y007073D01*
X002461Y007009D01*
X002439Y006942D01*
X002428Y006872D01*
X002428Y006587D01*
X002828Y006587D01*
X002828Y006487D01*
X002928Y006487D01*
X002928Y005789D01*
X002983Y005798D01*
X003050Y005820D01*
X003114Y005852D01*
X003228Y005953D02*
X003525Y005953D01*
X003467Y006051D02*
X003288Y006051D01*
X003320Y006150D02*
X003428Y006150D01*
X003428Y006248D02*
X003328Y006248D01*
X003328Y006347D02*
X003428Y006347D01*
X003428Y006445D02*
X003328Y006445D01*
X003428Y006544D02*
X002928Y006544D01*
X002928Y006587D02*
X003328Y006587D01*
X003328Y006872D01*
X003317Y006942D01*
X003295Y007009D01*
X003263Y007073D01*
X003221Y007130D01*
X003171Y007180D01*
X003114Y007222D01*
X003050Y007254D01*
X002983Y007276D01*
X002928Y007284D01*
X002928Y006587D01*
X002928Y006642D02*
X002828Y006642D01*
X002828Y006544D02*
X001928Y006544D01*
X001928Y006642D02*
X002428Y006642D01*
X002428Y006741D02*
X001928Y006741D01*
X001928Y006839D02*
X002428Y006839D01*
X002438Y006938D02*
X001928Y006938D01*
X001928Y007036D02*
X002474Y007036D01*
X002539Y007135D02*
X001928Y007135D01*
X001928Y007233D02*
X002665Y007233D01*
X002828Y007233D02*
X002928Y007233D01*
X002928Y007135D02*
X002828Y007135D01*
X002828Y007036D02*
X002928Y007036D01*
X002928Y006938D02*
X002828Y006938D01*
X002828Y006839D02*
X002928Y006839D01*
X002928Y006741D02*
X002828Y006741D01*
X002828Y006487D02*
X002428Y006487D01*
X002428Y006201D01*
X002439Y006131D01*
X002461Y006064D01*
X002493Y006001D01*
X002534Y005944D01*
X002585Y005893D01*
X002642Y005852D01*
X002705Y005820D01*
X002772Y005798D01*
X002828Y005789D01*
X002828Y006487D01*
X002828Y006445D02*
X002928Y006445D01*
X002928Y006347D02*
X002828Y006347D01*
X002828Y006248D02*
X002928Y006248D01*
X002928Y006150D02*
X002828Y006150D01*
X002828Y006051D02*
X002928Y006051D01*
X002928Y005953D02*
X002828Y005953D01*
X002828Y005854D02*
X002928Y005854D01*
X002639Y005854D02*
X001928Y005854D01*
X001928Y005756D02*
X005578Y005756D01*
X005578Y005854D02*
X005130Y005854D01*
X005230Y005953D02*
X005578Y005953D01*
X005578Y006051D02*
X005288Y006051D01*
X005328Y006150D02*
X005578Y006150D01*
X005578Y006248D02*
X005328Y006248D01*
X005328Y006347D02*
X005578Y006347D01*
X005578Y006445D02*
X005328Y006445D01*
X005328Y006544D02*
X005578Y006544D01*
X005578Y006642D02*
X005328Y006642D01*
X005328Y006741D02*
X005578Y006741D01*
X005578Y006839D02*
X005328Y006839D01*
X005323Y006938D02*
X005578Y006938D01*
X005578Y007036D02*
X005282Y007036D01*
X005216Y007135D02*
X005578Y007135D01*
X005578Y007233D02*
X005096Y007233D01*
X005065Y007627D02*
X005578Y007627D01*
X005578Y007529D02*
X001928Y007529D01*
X001928Y007430D02*
X005578Y007430D01*
X005578Y007332D02*
X001928Y007332D01*
X001928Y006445D02*
X002428Y006445D01*
X002428Y006347D02*
X001928Y006347D01*
X001928Y006248D02*
X002428Y006248D01*
X002436Y006150D02*
X001928Y006150D01*
X001928Y006051D02*
X002467Y006051D01*
X002528Y005953D02*
X001928Y005953D01*
X001928Y005657D02*
X005578Y005657D01*
X005578Y005559D02*
X001928Y005559D01*
X001928Y005460D02*
X005578Y005460D01*
X005578Y005362D02*
X001928Y005362D01*
X001928Y005263D02*
X005578Y005263D01*
X005578Y005165D02*
X001928Y005165D01*
X001928Y005066D02*
X005578Y005066D01*
X005526Y004968D02*
X001928Y004968D01*
X001928Y004869D02*
X005427Y004869D01*
X005329Y004771D02*
X001928Y004771D01*
X001928Y004672D02*
X005230Y004672D01*
X005132Y004574D02*
X001928Y004574D01*
X001928Y004475D02*
X005033Y004475D01*
X004935Y004377D02*
X001928Y004377D01*
X001928Y004278D02*
X004836Y004278D01*
X004738Y004180D02*
X001928Y004180D01*
X001928Y004081D02*
X004639Y004081D01*
X004541Y003983D02*
X001928Y003983D01*
X001928Y003884D02*
X004442Y003884D01*
X004344Y003786D02*
X001928Y003786D01*
X001928Y003687D02*
X004245Y003687D01*
X003991Y003589D02*
X001928Y003589D01*
X001928Y003490D02*
X003906Y003490D01*
X003868Y003392D02*
X001928Y003392D01*
X001928Y003293D02*
X003868Y003293D01*
X003901Y003195D02*
X001928Y003195D01*
X001928Y003096D02*
X003980Y003096D01*
X004178Y003337D02*
X005778Y004937D01*
X005778Y014837D01*
X006578Y015637D01*
X006578Y018537D01*
X007025Y018561D02*
X007529Y018561D01*
X007529Y018585D02*
X007529Y018488D01*
X007626Y018488D01*
X007626Y017795D01*
X007682Y017804D01*
X007749Y017826D01*
X007812Y017858D01*
X007869Y017899D01*
X007919Y017949D01*
X007960Y018006D01*
X007992Y018068D01*
X008165Y018068D01*
X008199Y017987D02*
X008325Y017861D01*
X008489Y017793D01*
X008667Y017793D01*
X008831Y017861D01*
X008957Y017987D01*
X009025Y018151D01*
X009025Y018922D01*
X008957Y019087D01*
X008831Y019212D01*
X008667Y019280D01*
X008489Y019280D01*
X008325Y019212D01*
X008199Y019087D01*
X008131Y018922D01*
X008131Y018151D01*
X008199Y017987D01*
X008216Y017970D02*
X007934Y017970D01*
X007992Y018068D02*
X008014Y018135D01*
X008025Y018205D01*
X008025Y018488D01*
X007626Y018488D01*
X007626Y018585D01*
X007529Y018585D01*
X007131Y018585D01*
X007131Y018869D01*
X007142Y018938D01*
X007164Y019005D01*
X007196Y019068D01*
X007237Y019125D01*
X007287Y019174D01*
X007344Y019216D01*
X007406Y019248D01*
X007473Y019269D01*
X007529Y019278D01*
X007529Y018585D01*
X007529Y018659D02*
X007626Y018659D01*
X007626Y018585D02*
X007626Y019278D01*
X007682Y019269D01*
X007749Y019248D01*
X007812Y019216D01*
X007869Y019174D01*
X007919Y019125D01*
X007960Y019068D01*
X007992Y019005D01*
X008014Y018938D01*
X008025Y018869D01*
X008025Y018585D01*
X007626Y018585D01*
X007626Y018561D02*
X008131Y018561D01*
X008131Y018659D02*
X008025Y018659D01*
X008025Y018758D02*
X008131Y018758D01*
X008131Y018856D02*
X008025Y018856D01*
X008008Y018955D02*
X008144Y018955D01*
X008185Y019053D02*
X007967Y019053D01*
X007891Y019152D02*
X008264Y019152D01*
X008416Y019250D02*
X007741Y019250D01*
X007626Y019250D02*
X007529Y019250D01*
X007529Y019152D02*
X007626Y019152D01*
X007626Y019053D02*
X007529Y019053D01*
X007529Y018955D02*
X007626Y018955D01*
X007626Y018856D02*
X007529Y018856D01*
X007529Y018758D02*
X007626Y018758D01*
X007529Y018488D02*
X007131Y018488D01*
X007131Y018205D01*
X007142Y018135D01*
X007164Y018068D01*
X006990Y018068D01*
X007025Y018167D02*
X007137Y018167D01*
X007131Y018265D02*
X007025Y018265D01*
X007025Y018364D02*
X007131Y018364D01*
X007131Y018462D02*
X007025Y018462D01*
X007025Y018659D02*
X007131Y018659D01*
X007131Y018758D02*
X007025Y018758D01*
X007025Y018856D02*
X007131Y018856D01*
X007147Y018955D02*
X007011Y018955D01*
X006970Y019053D02*
X007188Y019053D01*
X007264Y019152D02*
X006891Y019152D01*
X006739Y019250D02*
X007414Y019250D01*
X007529Y018488D02*
X007529Y017795D01*
X007473Y017804D01*
X007406Y017826D01*
X007344Y017858D01*
X007287Y017899D01*
X007237Y017949D01*
X007196Y018006D01*
X007164Y018068D01*
X007222Y017970D02*
X006940Y017970D01*
X006841Y017871D02*
X007325Y017871D01*
X007529Y017871D02*
X007626Y017871D01*
X007626Y017970D02*
X007529Y017970D01*
X007529Y018068D02*
X007626Y018068D01*
X007626Y018167D02*
X007529Y018167D01*
X007529Y018265D02*
X007626Y018265D01*
X007626Y018364D02*
X007529Y018364D01*
X007529Y018462D02*
X007626Y018462D01*
X008025Y018462D02*
X008131Y018462D01*
X008131Y018364D02*
X008025Y018364D01*
X008025Y018265D02*
X008131Y018265D01*
X008131Y018167D02*
X008019Y018167D01*
X007831Y017871D02*
X008314Y017871D01*
X008841Y017871D02*
X009278Y017871D01*
X009278Y017773D02*
X006778Y017773D01*
X006778Y017674D02*
X009278Y017674D01*
X009278Y017576D02*
X006778Y017576D01*
X006778Y017477D02*
X009278Y017477D01*
X009278Y017379D02*
X006778Y017379D01*
X006778Y017280D02*
X009278Y017280D01*
X009278Y017182D02*
X006778Y017182D01*
X006778Y017083D02*
X009278Y017083D01*
X009278Y016985D02*
X006778Y016985D01*
X006778Y016886D02*
X009278Y016886D01*
X009278Y016788D02*
X006778Y016788D01*
X006778Y016689D02*
X009278Y016689D01*
X009278Y016591D02*
X006778Y016591D01*
X006778Y016492D02*
X009278Y016492D01*
X009278Y016394D02*
X006778Y016394D01*
X006778Y016295D02*
X009278Y016295D01*
X009278Y016197D02*
X006778Y016197D01*
X006778Y016098D02*
X009278Y016098D01*
X009278Y016000D02*
X006778Y016000D01*
X006778Y015901D02*
X009278Y015901D01*
X009278Y015803D02*
X006778Y015803D01*
X006778Y015704D02*
X009278Y015704D01*
X009278Y015606D02*
X006778Y015606D01*
X006731Y015507D02*
X009278Y015507D01*
X009278Y015409D02*
X006633Y015409D01*
X006534Y015310D02*
X009278Y015310D01*
X009278Y015212D02*
X006436Y015212D01*
X006337Y015113D02*
X009278Y015113D01*
X009278Y015015D02*
X006239Y015015D01*
X006140Y014916D02*
X009278Y014916D01*
X009278Y014818D02*
X006042Y014818D01*
X005978Y014719D02*
X009278Y014719D01*
X009278Y014621D02*
X005978Y014621D01*
X005978Y014522D02*
X009278Y014522D01*
X009278Y014424D02*
X005978Y014424D01*
X005978Y014325D02*
X009278Y014325D01*
X009185Y014227D02*
X005978Y014227D01*
X005978Y014128D02*
X009086Y014128D01*
X008988Y014030D02*
X005978Y014030D01*
X005978Y013931D02*
X008889Y013931D01*
X008791Y013833D02*
X005978Y013833D01*
X005978Y013734D02*
X008692Y013734D01*
X008594Y013636D02*
X005978Y013636D01*
X005978Y013537D02*
X008495Y013537D01*
X008397Y013439D02*
X005978Y013439D01*
X005978Y013340D02*
X008298Y013340D01*
X008200Y013242D02*
X005978Y013242D01*
X005978Y013143D02*
X008101Y013143D01*
X008003Y013045D02*
X005978Y013045D01*
X005978Y012946D02*
X007904Y012946D01*
X007806Y012848D02*
X005978Y012848D01*
X005978Y012749D02*
X007707Y012749D01*
X007609Y012651D02*
X005978Y012651D01*
X005978Y012552D02*
X007510Y012552D01*
X007412Y012454D02*
X005978Y012454D01*
X005978Y012355D02*
X007313Y012355D01*
X007215Y012257D02*
X005978Y012257D01*
X005978Y012158D02*
X007116Y012158D01*
X007018Y012060D02*
X005978Y012060D01*
X005978Y011961D02*
X006919Y011961D01*
X006821Y011863D02*
X005978Y011863D01*
X005978Y011764D02*
X006722Y011764D01*
X006624Y011666D02*
X005978Y011666D01*
X005978Y011567D02*
X006525Y011567D01*
X006427Y011469D02*
X005978Y011469D01*
X005978Y011370D02*
X006328Y011370D01*
X006230Y011272D02*
X005978Y011272D01*
X005978Y011173D02*
X006131Y011173D01*
X006078Y011075D02*
X005978Y011075D01*
X005978Y010976D02*
X006078Y010976D01*
X006078Y010878D02*
X005978Y010878D01*
X005978Y010779D02*
X006078Y010779D01*
X006078Y010681D02*
X005978Y010681D01*
X005978Y010582D02*
X006078Y010582D01*
X006078Y010484D02*
X005978Y010484D01*
X005978Y010385D02*
X006078Y010385D01*
X006078Y010287D02*
X005978Y010287D01*
X005978Y010188D02*
X006078Y010188D01*
X006078Y010090D02*
X005978Y010090D01*
X005978Y009991D02*
X006078Y009991D01*
X006078Y009893D02*
X005978Y009893D01*
X005978Y009794D02*
X006078Y009794D01*
X006078Y009696D02*
X005978Y009696D01*
X005978Y009597D02*
X006078Y009597D01*
X006078Y009499D02*
X005978Y009499D01*
X005978Y009400D02*
X006078Y009400D01*
X006078Y009302D02*
X005978Y009302D01*
X005978Y009203D02*
X006078Y009203D01*
X006078Y009105D02*
X005978Y009105D01*
X005978Y009006D02*
X006078Y009006D01*
X006078Y008908D02*
X005978Y008908D01*
X005978Y008809D02*
X006078Y008809D01*
X006078Y008711D02*
X005978Y008711D01*
X005978Y008612D02*
X006078Y008612D01*
X006078Y008514D02*
X005978Y008514D01*
X005978Y008415D02*
X006078Y008415D01*
X006078Y008317D02*
X005978Y008317D01*
X005978Y008218D02*
X006078Y008218D01*
X006078Y008120D02*
X005978Y008120D01*
X005978Y008021D02*
X006078Y008021D01*
X006078Y007923D02*
X005978Y007923D01*
X005978Y007824D02*
X006078Y007824D01*
X006078Y007726D02*
X005978Y007726D01*
X005978Y007627D02*
X006078Y007627D01*
X006078Y007529D02*
X005978Y007529D01*
X005978Y007430D02*
X006078Y007430D01*
X006034Y007332D02*
X005978Y007332D01*
X005978Y007233D02*
X005982Y007233D01*
X005978Y007036D02*
X005984Y007036D01*
X005978Y006938D02*
X006038Y006938D01*
X006278Y007137D02*
X006278Y011037D01*
X009478Y014237D01*
X009478Y018537D01*
X009678Y018737D01*
X010578Y018737D01*
X011078Y019237D01*
X011432Y018955D02*
X011723Y018955D01*
X011628Y019050D02*
X011891Y018787D01*
X012028Y018787D01*
X012028Y019187D01*
X012128Y019187D01*
X012128Y019287D01*
X012028Y019287D01*
X012028Y019687D01*
X011891Y019687D01*
X011628Y019423D01*
X011628Y019287D01*
X012028Y019287D01*
X012028Y019187D01*
X011628Y019187D01*
X011628Y019050D01*
X011628Y019053D02*
X011528Y019053D01*
X011528Y019152D02*
X011628Y019152D01*
X011528Y019250D02*
X012028Y019250D01*
X012028Y019152D02*
X012128Y019152D01*
X012128Y019187D02*
X012128Y018787D01*
X012264Y018787D01*
X012528Y019050D01*
X012528Y019187D01*
X012128Y019187D01*
X012128Y019250D02*
X013003Y019250D01*
X013037Y019331D02*
X012958Y019140D01*
X012958Y018933D01*
X013037Y018742D01*
X013183Y018596D01*
X013374Y018517D01*
X013581Y018517D01*
X013772Y018596D01*
X013919Y018742D01*
X013978Y018885D01*
X014037Y018742D01*
X014183Y018596D01*
X014374Y018517D01*
X014581Y018517D01*
X014772Y018596D01*
X014919Y018742D01*
X014978Y018885D01*
X015037Y018742D01*
X015183Y018596D01*
X015374Y018517D01*
X015581Y018517D01*
X015772Y018596D01*
X015919Y018742D01*
X015978Y018885D01*
X016037Y018742D01*
X016183Y018596D01*
X016374Y018517D01*
X016581Y018517D01*
X016772Y018596D01*
X016919Y018742D01*
X016978Y018885D01*
X017037Y018742D01*
X017183Y018596D01*
X017374Y018517D01*
X017581Y018517D01*
X017772Y018596D01*
X017919Y018742D01*
X017979Y018888D01*
X017996Y018837D01*
X018033Y018764D01*
X018081Y018698D01*
X018139Y018640D01*
X018205Y018592D01*
X018278Y018555D01*
X018356Y018529D01*
X018428Y018518D01*
X018428Y018987D01*
X018528Y018987D01*
X018528Y019087D01*
X018428Y019087D01*
X018428Y019555D01*
X018356Y019544D01*
X018278Y019519D01*
X018205Y019481D01*
X018139Y019433D01*
X018081Y019375D01*
X018033Y019309D01*
X017996Y019236D01*
X017979Y019185D01*
X017919Y019331D01*
X017772Y019478D01*
X017581Y019557D01*
X017374Y019557D01*
X017183Y019478D01*
X017037Y019331D01*
X016978Y019188D01*
X016919Y019331D01*
X016772Y019478D01*
X016581Y019557D01*
X016374Y019557D01*
X016183Y019478D01*
X016037Y019331D01*
X015978Y019188D01*
X015919Y019331D01*
X015772Y019478D01*
X015581Y019557D01*
X015374Y019557D01*
X015183Y019478D01*
X015037Y019331D01*
X014978Y019188D01*
X014919Y019331D01*
X014772Y019478D01*
X014581Y019557D01*
X014374Y019557D01*
X014183Y019478D01*
X014037Y019331D01*
X013978Y019188D01*
X013919Y019331D01*
X013772Y019478D01*
X013581Y019557D01*
X013374Y019557D01*
X013183Y019478D01*
X013037Y019331D01*
X013054Y019349D02*
X012528Y019349D01*
X012528Y019287D02*
X012528Y019423D01*
X012264Y019687D01*
X012128Y019687D01*
X012128Y019287D01*
X012528Y019287D01*
X012528Y019152D02*
X012963Y019152D01*
X012958Y019053D02*
X012528Y019053D01*
X012432Y018955D02*
X012958Y018955D01*
X012990Y018856D02*
X012334Y018856D01*
X012292Y018659D02*
X013120Y018659D01*
X013030Y018758D02*
X010882Y018758D01*
X010864Y018659D02*
X010783Y018659D01*
X010765Y018561D02*
X010685Y018561D01*
X010667Y018462D02*
X010528Y018462D01*
X010528Y018364D02*
X010628Y018364D01*
X010628Y018265D02*
X010528Y018265D01*
X010528Y018167D02*
X010628Y018167D01*
X010628Y018068D02*
X010528Y018068D01*
X010528Y017970D02*
X010708Y017970D01*
X010807Y017871D02*
X010524Y017871D01*
X010278Y017773D02*
X010878Y017773D01*
X010878Y017674D02*
X010278Y017674D01*
X010278Y017576D02*
X010878Y017576D01*
X010878Y017477D02*
X010278Y017477D01*
X010278Y017379D02*
X010878Y017379D01*
X010878Y017280D02*
X010278Y017280D01*
X010278Y017182D02*
X010878Y017182D01*
X010878Y017083D02*
X010278Y017083D01*
X010278Y016985D02*
X010878Y016985D01*
X010878Y016886D02*
X010278Y016886D01*
X010278Y016788D02*
X010878Y016788D01*
X010878Y016689D02*
X010278Y016689D01*
X010278Y016591D02*
X010878Y016591D01*
X010878Y016492D02*
X010278Y016492D01*
X010278Y016394D02*
X010878Y016394D01*
X010878Y016295D02*
X010278Y016295D01*
X010278Y016197D02*
X010878Y016197D01*
X010878Y016098D02*
X010278Y016098D01*
X010278Y016000D02*
X010878Y016000D01*
X010878Y015901D02*
X010278Y015901D01*
X010278Y015803D02*
X010878Y015803D01*
X010878Y015704D02*
X010278Y015704D01*
X010278Y015606D02*
X010878Y015606D01*
X010878Y015507D02*
X010278Y015507D01*
X010278Y015409D02*
X010878Y015409D01*
X010878Y015310D02*
X010278Y015310D01*
X010278Y015212D02*
X010878Y015212D01*
X010878Y015113D02*
X010278Y015113D01*
X010278Y015015D02*
X010878Y015015D01*
X010878Y014916D02*
X010278Y014916D01*
X010278Y014818D02*
X010446Y014818D01*
X010322Y014719D02*
X010278Y014719D01*
X010278Y014424D02*
X010289Y014424D01*
X010278Y014325D02*
X010351Y014325D01*
X010378Y014227D02*
X010278Y014227D01*
X010278Y014128D02*
X010378Y014128D01*
X010378Y014030D02*
X010278Y014030D01*
X010255Y013931D02*
X010378Y013931D01*
X010378Y013833D02*
X010157Y013833D01*
X010058Y013734D02*
X010378Y013734D01*
X010378Y013636D02*
X009960Y013636D01*
X009861Y013537D02*
X010295Y013537D01*
X010197Y013439D02*
X009763Y013439D01*
X009664Y013340D02*
X010098Y013340D01*
X010000Y013242D02*
X009566Y013242D01*
X009467Y013143D02*
X009901Y013143D01*
X009803Y013045D02*
X009369Y013045D01*
X009270Y012946D02*
X009704Y012946D01*
X009606Y012848D02*
X009172Y012848D01*
X009073Y012749D02*
X009507Y012749D01*
X009409Y012651D02*
X008975Y012651D01*
X008876Y012552D02*
X009310Y012552D01*
X009212Y012454D02*
X008778Y012454D01*
X008679Y012355D02*
X009113Y012355D01*
X009015Y012257D02*
X008581Y012257D01*
X008482Y012158D02*
X008916Y012158D01*
X008818Y012060D02*
X008384Y012060D01*
X008285Y011961D02*
X008719Y011961D01*
X008621Y011863D02*
X008187Y011863D01*
X008088Y011764D02*
X008522Y011764D01*
X008424Y011666D02*
X007990Y011666D01*
X007891Y011567D02*
X008325Y011567D01*
X008227Y011469D02*
X007793Y011469D01*
X007694Y011370D02*
X008128Y011370D01*
X008030Y011272D02*
X007596Y011272D01*
X007497Y011173D02*
X007978Y011173D01*
X007978Y011075D02*
X007399Y011075D01*
X007300Y010976D02*
X007978Y010976D01*
X007978Y010878D02*
X007202Y010878D01*
X007103Y010779D02*
X007978Y010779D01*
X007978Y010681D02*
X007005Y010681D01*
X006906Y010582D02*
X007978Y010582D01*
X007903Y010484D02*
X006878Y010484D01*
X006878Y010385D02*
X007868Y010385D01*
X007868Y010287D02*
X006878Y010287D01*
X006878Y010188D02*
X007904Y010188D01*
X007986Y010090D02*
X006878Y010090D01*
X006478Y010090D02*
X006478Y010090D01*
X006478Y010188D02*
X006478Y010188D01*
X006478Y010287D02*
X006478Y010287D01*
X006478Y010385D02*
X006478Y010385D01*
X006478Y010484D02*
X006478Y010484D01*
X006478Y010582D02*
X006478Y010582D01*
X006478Y010681D02*
X006478Y010681D01*
X006478Y010779D02*
X006537Y010779D01*
X006478Y010878D02*
X006636Y010878D01*
X006734Y010976D02*
X006500Y010976D01*
X006599Y011075D02*
X006833Y011075D01*
X006931Y011173D02*
X006697Y011173D01*
X006796Y011272D02*
X007030Y011272D01*
X007128Y011370D02*
X006894Y011370D01*
X006993Y011469D02*
X007227Y011469D01*
X007325Y011567D02*
X007091Y011567D01*
X007190Y011666D02*
X007424Y011666D01*
X007522Y011764D02*
X007288Y011764D01*
X007387Y011863D02*
X007621Y011863D01*
X007719Y011961D02*
X007485Y011961D01*
X007584Y012060D02*
X007818Y012060D01*
X007916Y012158D02*
X007682Y012158D01*
X007781Y012257D02*
X008015Y012257D01*
X008113Y012355D02*
X007879Y012355D01*
X007978Y012454D02*
X008212Y012454D01*
X008310Y012552D02*
X008076Y012552D01*
X008175Y012651D02*
X008409Y012651D01*
X008507Y012749D02*
X008273Y012749D01*
X008372Y012848D02*
X008606Y012848D01*
X008704Y012946D02*
X008470Y012946D01*
X008569Y013045D02*
X008803Y013045D01*
X008901Y013143D02*
X008667Y013143D01*
X008766Y013242D02*
X009000Y013242D01*
X009098Y013340D02*
X008864Y013340D01*
X008963Y013439D02*
X009197Y013439D01*
X009295Y013537D02*
X009061Y013537D01*
X009160Y013636D02*
X009394Y013636D01*
X009492Y013734D02*
X009258Y013734D01*
X009357Y013833D02*
X009591Y013833D01*
X009689Y013931D02*
X009455Y013931D01*
X009554Y014030D02*
X009788Y014030D01*
X009878Y014128D02*
X009652Y014128D01*
X009678Y014227D02*
X009878Y014227D01*
X009878Y014325D02*
X009678Y014325D01*
X009678Y014424D02*
X009878Y014424D01*
X009878Y014522D02*
X009678Y014522D01*
X009678Y014621D02*
X009878Y014621D01*
X009878Y014719D02*
X009678Y014719D01*
X009678Y014818D02*
X009878Y014818D01*
X009878Y014916D02*
X009678Y014916D01*
X009678Y015015D02*
X009878Y015015D01*
X009878Y015113D02*
X009678Y015113D01*
X009678Y015212D02*
X009878Y015212D01*
X009878Y015310D02*
X009678Y015310D01*
X009678Y015409D02*
X009878Y015409D01*
X009878Y015507D02*
X009678Y015507D01*
X009678Y015606D02*
X009878Y015606D01*
X009878Y015704D02*
X009678Y015704D01*
X009678Y015803D02*
X009878Y015803D01*
X009878Y015901D02*
X009678Y015901D01*
X009678Y016000D02*
X009878Y016000D01*
X009878Y016098D02*
X009678Y016098D01*
X009678Y016197D02*
X009878Y016197D01*
X009878Y016295D02*
X009678Y016295D01*
X009678Y016394D02*
X009878Y016394D01*
X009878Y016492D02*
X009678Y016492D01*
X009678Y016591D02*
X009878Y016591D01*
X009878Y016689D02*
X009678Y016689D01*
X009678Y016788D02*
X009878Y016788D01*
X009878Y016886D02*
X009678Y016886D01*
X009678Y016985D02*
X009878Y016985D01*
X009878Y017083D02*
X009678Y017083D01*
X009678Y017182D02*
X009878Y017182D01*
X009878Y017280D02*
X009678Y017280D01*
X009678Y017379D02*
X009878Y017379D01*
X009878Y017477D02*
X009678Y017477D01*
X009678Y017576D02*
X009878Y017576D01*
X009878Y017674D02*
X009678Y017674D01*
X009678Y017773D02*
X009878Y017773D01*
X010078Y018237D02*
X010078Y014037D01*
X006678Y010637D01*
X006678Y007737D01*
X006778Y007637D01*
X007278Y007637D01*
X007046Y007430D02*
X006478Y007430D01*
X006478Y007529D02*
X006603Y007529D01*
X006504Y007627D02*
X006478Y007627D01*
X006478Y007726D02*
X006478Y007726D01*
X006478Y007824D02*
X006478Y007824D01*
X006478Y007923D02*
X006478Y007923D01*
X006478Y008021D02*
X006478Y008021D01*
X006478Y008120D02*
X006478Y008120D01*
X006478Y008218D02*
X006478Y008218D01*
X006478Y008317D02*
X006478Y008317D01*
X006478Y008415D02*
X006478Y008415D01*
X006478Y008514D02*
X006478Y008514D01*
X006478Y008612D02*
X006478Y008612D01*
X006478Y008711D02*
X006478Y008711D01*
X006478Y008809D02*
X006478Y008809D01*
X006478Y008908D02*
X006478Y008908D01*
X006478Y009006D02*
X006478Y009006D01*
X006478Y009105D02*
X006478Y009105D01*
X006478Y009203D02*
X006478Y009203D01*
X006478Y009302D02*
X006478Y009302D01*
X006478Y009400D02*
X006478Y009400D01*
X006478Y009499D02*
X006478Y009499D01*
X006478Y009597D02*
X006478Y009597D01*
X006478Y009696D02*
X006478Y009696D01*
X006478Y009794D02*
X006478Y009794D01*
X006478Y009893D02*
X006478Y009893D01*
X006478Y009991D02*
X006478Y009991D01*
X005578Y009991D02*
X005328Y009991D01*
X005328Y009893D02*
X005578Y009893D01*
X005578Y009794D02*
X005306Y009794D01*
X005265Y009696D02*
X005578Y009696D01*
X005578Y009597D02*
X005175Y009597D01*
X004996Y009499D02*
X005578Y009499D01*
X005578Y009006D02*
X005145Y009006D01*
X005243Y008908D02*
X005578Y008908D01*
X005578Y008809D02*
X005293Y008809D01*
X005328Y008711D02*
X005578Y008711D01*
X005578Y008612D02*
X005328Y008612D01*
X005328Y008514D02*
X005578Y008514D01*
X005578Y008415D02*
X005328Y008415D01*
X005328Y008317D02*
X005578Y008317D01*
X005578Y008218D02*
X005328Y008218D01*
X005328Y008120D02*
X005578Y008120D01*
X005578Y008021D02*
X005328Y008021D01*
X005318Y007923D02*
X005578Y007923D01*
X005578Y007824D02*
X005277Y007824D01*
X005203Y007726D02*
X005578Y007726D01*
X006521Y007332D02*
X007204Y007332D01*
X009478Y009105D02*
X009563Y009105D01*
X009618Y009203D02*
X009478Y009203D01*
X009478Y009302D02*
X009640Y009302D01*
X009703Y009400D02*
X009478Y009400D01*
X009720Y009696D02*
X010030Y009696D01*
X008978Y010437D02*
X008978Y010537D01*
X011278Y011863D02*
X011478Y011863D01*
X011478Y011961D02*
X011278Y011961D01*
X011278Y012060D02*
X011416Y012060D01*
X011375Y012158D02*
X011278Y012158D01*
X011278Y012257D02*
X011368Y012257D01*
X011391Y012355D02*
X011278Y012355D01*
X011278Y012454D02*
X011456Y012454D01*
X011278Y012552D02*
X013610Y012552D01*
X013709Y012651D02*
X011278Y012651D01*
X011278Y012749D02*
X013807Y012749D01*
X013906Y012848D02*
X011278Y012848D01*
X011278Y012946D02*
X014004Y012946D01*
X014103Y013045D02*
X011278Y013045D01*
X011278Y013143D02*
X014201Y013143D01*
X014300Y013242D02*
X011278Y013242D01*
X011278Y013340D02*
X014398Y013340D01*
X014497Y013439D02*
X011278Y013439D01*
X011278Y013537D02*
X014595Y013537D01*
X014694Y013636D02*
X011278Y013636D01*
X011278Y013734D02*
X014792Y013734D01*
X014891Y013833D02*
X011278Y013833D01*
X011278Y013931D02*
X014989Y013931D01*
X015088Y014030D02*
X011278Y014030D01*
X011278Y014128D02*
X015186Y014128D01*
X015285Y014227D02*
X011639Y014227D01*
X011753Y014274D01*
X011816Y014337D01*
X014661Y014337D01*
X015961Y015637D01*
X016641Y015637D01*
X016723Y015555D01*
X016888Y015487D01*
X017667Y015487D01*
X017833Y015555D01*
X017959Y015682D01*
X018028Y015847D01*
X018028Y016026D01*
X017959Y016192D01*
X017833Y016318D01*
X017667Y016387D01*
X016888Y016387D01*
X016723Y016318D01*
X016596Y016192D01*
X016532Y016037D01*
X015795Y016037D01*
X015678Y015920D01*
X014495Y014737D01*
X011816Y014737D01*
X011753Y014799D01*
X011639Y014847D01*
X011516Y014847D01*
X011402Y014799D01*
X011315Y014712D01*
X011278Y014622D01*
X011278Y014719D02*
X011322Y014719D01*
X011278Y014818D02*
X011446Y014818D01*
X011278Y014916D02*
X014674Y014916D01*
X014576Y014818D02*
X011709Y014818D01*
X011578Y014537D02*
X014578Y014537D01*
X015878Y015837D01*
X017178Y015837D01*
X017278Y015937D01*
X017717Y015507D02*
X018078Y015507D01*
X018078Y015409D02*
X015733Y015409D01*
X015831Y015507D02*
X016839Y015507D01*
X016672Y015606D02*
X015930Y015606D01*
X015659Y015901D02*
X011278Y015901D01*
X011278Y015803D02*
X015561Y015803D01*
X015462Y015704D02*
X011278Y015704D01*
X011278Y015606D02*
X015364Y015606D01*
X015265Y015507D02*
X011278Y015507D01*
X011278Y015409D02*
X015167Y015409D01*
X015068Y015310D02*
X011278Y015310D01*
X011278Y015212D02*
X014970Y015212D01*
X014871Y015113D02*
X011278Y015113D01*
X011278Y015015D02*
X014773Y015015D01*
X015043Y014719D02*
X015777Y014719D01*
X015679Y014621D02*
X014945Y014621D01*
X014846Y014522D02*
X015580Y014522D01*
X015482Y014424D02*
X014748Y014424D01*
X015142Y014818D02*
X015876Y014818D01*
X015974Y014916D02*
X015240Y014916D01*
X015339Y015015D02*
X016073Y015015D01*
X016171Y015113D02*
X015437Y015113D01*
X015536Y015212D02*
X016616Y015212D01*
X016715Y015310D02*
X015634Y015310D01*
X015758Y016000D02*
X011278Y016000D01*
X011278Y016098D02*
X016558Y016098D01*
X016601Y016197D02*
X011278Y016197D01*
X011278Y016295D02*
X016700Y016295D01*
X016805Y016520D02*
X016872Y016498D01*
X016942Y016487D01*
X017228Y016487D01*
X017228Y016887D01*
X017328Y016887D01*
X017328Y016987D01*
X017228Y016987D01*
X017228Y017387D01*
X016942Y017387D01*
X016872Y017376D01*
X016805Y017354D01*
X016742Y017322D01*
X016685Y017280D01*
X016478Y017280D01*
X016478Y017182D02*
X016600Y017182D01*
X016593Y017173D02*
X016561Y017109D01*
X016539Y017042D01*
X016530Y016987D01*
X017228Y016987D01*
X017228Y016887D01*
X016530Y016887D01*
X016539Y016831D01*
X016561Y016764D01*
X016593Y016701D01*
X016634Y016644D01*
X016685Y016593D01*
X016742Y016552D01*
X016805Y016520D01*
X016907Y016492D02*
X016016Y016492D01*
X016115Y016591D02*
X016688Y016591D01*
X016601Y016689D02*
X016213Y016689D01*
X016312Y016788D02*
X016553Y016788D01*
X016530Y016886D02*
X016410Y016886D01*
X016478Y016985D02*
X017228Y016985D01*
X017228Y017083D02*
X017328Y017083D01*
X017328Y016987D02*
X017328Y017387D01*
X017613Y017387D01*
X017683Y017376D01*
X017750Y017354D01*
X017814Y017322D01*
X017871Y017280D01*
X017921Y017230D01*
X017963Y017173D01*
X017995Y017109D01*
X018017Y017042D01*
X018025Y016987D01*
X017328Y016987D01*
X017328Y016985D02*
X018078Y016985D01*
X018078Y017083D02*
X018003Y017083D01*
X017956Y017182D02*
X018078Y017182D01*
X018078Y017280D02*
X017870Y017280D01*
X017663Y017379D02*
X018078Y017379D01*
X018054Y017477D02*
X016501Y017477D01*
X016478Y017379D02*
X016892Y017379D01*
X016685Y017280D02*
X016634Y017230D01*
X016593Y017173D01*
X016552Y017083D02*
X016478Y017083D01*
X016278Y017037D02*
X016278Y017537D01*
X016578Y017837D01*
X016600Y017576D02*
X017956Y017576D01*
X018128Y017970D02*
X019821Y017970D01*
X019620Y018068D02*
X012528Y018068D01*
X012528Y018167D02*
X019522Y018167D01*
X019423Y018265D02*
X012528Y018265D01*
X012528Y018364D02*
X019359Y018364D01*
X019318Y018462D02*
X012489Y018462D01*
X012390Y018561D02*
X013268Y018561D01*
X013687Y018561D02*
X014268Y018561D01*
X014120Y018659D02*
X013836Y018659D01*
X013925Y018758D02*
X014030Y018758D01*
X013990Y018856D02*
X013966Y018856D01*
X013952Y019250D02*
X014003Y019250D01*
X014054Y019349D02*
X013901Y019349D01*
X013803Y019447D02*
X014153Y019447D01*
X014348Y019546D02*
X013608Y019546D01*
X013348Y019546D02*
X012405Y019546D01*
X012307Y019644D02*
X019678Y019644D01*
X019561Y019546D02*
X018588Y019546D01*
X018599Y019544D02*
X018528Y019555D01*
X018528Y019087D01*
X018996Y019087D01*
X018985Y019158D01*
X018960Y019236D01*
X018922Y019309D01*
X018874Y019375D01*
X018816Y019433D01*
X018750Y019481D01*
X018677Y019519D01*
X018599Y019544D01*
X018528Y019546D02*
X018428Y019546D01*
X018368Y019546D02*
X017608Y019546D01*
X017803Y019447D02*
X018158Y019447D01*
X018062Y019349D02*
X017901Y019349D01*
X017952Y019250D02*
X018003Y019250D01*
X017990Y018856D02*
X017966Y018856D01*
X017925Y018758D02*
X018038Y018758D01*
X018120Y018659D02*
X017836Y018659D01*
X017687Y018561D02*
X018266Y018561D01*
X018428Y018561D02*
X018528Y018561D01*
X018528Y018518D02*
X018599Y018529D01*
X018677Y018555D01*
X018750Y018592D01*
X018816Y018640D01*
X018874Y018698D01*
X018922Y018764D01*
X018960Y018837D01*
X018985Y018915D01*
X018996Y018987D01*
X018528Y018987D01*
X018528Y018518D01*
X018528Y018659D02*
X018428Y018659D01*
X018428Y018758D02*
X018528Y018758D01*
X018528Y018856D02*
X018428Y018856D01*
X018428Y018955D02*
X018528Y018955D01*
X018528Y019053D02*
X019253Y019053D01*
X019240Y018955D02*
X018991Y018955D01*
X018966Y018856D02*
X019240Y018856D01*
X019240Y018758D02*
X018918Y018758D01*
X018836Y018659D02*
X019240Y018659D01*
X019277Y018561D02*
X018689Y018561D01*
X018528Y019152D02*
X018428Y019152D01*
X018428Y019250D02*
X018528Y019250D01*
X018528Y019349D02*
X018428Y019349D01*
X018428Y019447D02*
X018528Y019447D01*
X018797Y019447D02*
X019463Y019447D01*
X019375Y019349D02*
X018894Y019349D01*
X018953Y019250D02*
X019334Y019250D01*
X019294Y019152D02*
X018986Y019152D01*
X017348Y019546D02*
X016608Y019546D01*
X016803Y019447D02*
X017153Y019447D01*
X017054Y019349D02*
X016901Y019349D01*
X016952Y019250D02*
X017003Y019250D01*
X016990Y018856D02*
X016966Y018856D01*
X016925Y018758D02*
X017030Y018758D01*
X017120Y018659D02*
X016836Y018659D01*
X016687Y018561D02*
X017268Y018561D01*
X016268Y018561D02*
X015687Y018561D01*
X015836Y018659D02*
X016120Y018659D01*
X016030Y018758D02*
X015925Y018758D01*
X015966Y018856D02*
X015990Y018856D01*
X016003Y019250D02*
X015952Y019250D01*
X015901Y019349D02*
X016054Y019349D01*
X016153Y019447D02*
X015803Y019447D01*
X015608Y019546D02*
X016348Y019546D01*
X015348Y019546D02*
X014608Y019546D01*
X014803Y019447D02*
X015153Y019447D01*
X015054Y019349D02*
X014901Y019349D01*
X014952Y019250D02*
X015003Y019250D01*
X014990Y018856D02*
X014966Y018856D01*
X014925Y018758D02*
X015030Y018758D01*
X015120Y018659D02*
X014836Y018659D01*
X014687Y018561D02*
X015268Y018561D01*
X016132Y017674D02*
X011278Y017674D01*
X011278Y017576D02*
X016078Y017576D01*
X016078Y017477D02*
X011278Y017477D01*
X011278Y017379D02*
X016078Y017379D01*
X016078Y017280D02*
X011278Y017280D01*
X011278Y017182D02*
X016078Y017182D01*
X016041Y017083D02*
X011278Y017083D01*
X011278Y016985D02*
X015943Y016985D01*
X015844Y016886D02*
X011767Y016886D01*
X011578Y016637D02*
X015878Y016637D01*
X016278Y017037D01*
X017228Y017182D02*
X017328Y017182D01*
X017328Y017280D02*
X017228Y017280D01*
X017228Y017379D02*
X017328Y017379D01*
X017328Y016887D02*
X018025Y016887D01*
X018017Y016831D01*
X017995Y016764D01*
X017963Y016701D01*
X017921Y016644D01*
X017871Y016593D01*
X017814Y016552D01*
X017750Y016520D01*
X017683Y016498D01*
X017613Y016487D01*
X017328Y016487D01*
X017328Y016887D01*
X017328Y016886D02*
X017228Y016886D01*
X017228Y016788D02*
X017328Y016788D01*
X017328Y016689D02*
X017228Y016689D01*
X017228Y016591D02*
X017328Y016591D01*
X017328Y016492D02*
X017228Y016492D01*
X017648Y016492D02*
X018078Y016492D01*
X018078Y016394D02*
X011773Y016394D01*
X011382Y016394D02*
X011278Y016394D01*
X011278Y016492D02*
X011302Y016492D01*
X011278Y016788D02*
X011305Y016788D01*
X011278Y016886D02*
X011389Y016886D01*
X011292Y018659D02*
X011864Y018659D01*
X011822Y018856D02*
X011334Y018856D01*
X011528Y019349D02*
X011628Y019349D01*
X011652Y019447D02*
X011504Y019447D01*
X011405Y019546D02*
X011750Y019546D01*
X011849Y019644D02*
X011307Y019644D01*
X010849Y019644D02*
X010307Y019644D01*
X010405Y019546D02*
X010750Y019546D01*
X010652Y019447D02*
X010504Y019447D01*
X010528Y019349D02*
X010628Y019349D01*
X010628Y019250D02*
X010528Y019250D01*
X010528Y019152D02*
X010628Y019152D01*
X010611Y019053D02*
X010528Y019053D01*
X010513Y018955D02*
X010432Y018955D01*
X009723Y018955D02*
X009011Y018955D01*
X009025Y018856D02*
X009514Y018856D01*
X009416Y018758D02*
X009025Y018758D01*
X009025Y018659D02*
X009317Y018659D01*
X009278Y018561D02*
X009025Y018561D01*
X009025Y018462D02*
X009278Y018462D01*
X009278Y018364D02*
X009025Y018364D01*
X009025Y018265D02*
X009278Y018265D01*
X009278Y018167D02*
X009025Y018167D01*
X008990Y018068D02*
X009278Y018068D01*
X009278Y017970D02*
X008940Y017970D01*
X008970Y019053D02*
X009628Y019053D01*
X009628Y019152D02*
X008891Y019152D01*
X008739Y019250D02*
X009628Y019250D01*
X012028Y019349D02*
X012128Y019349D01*
X012128Y019447D02*
X012028Y019447D01*
X012028Y019546D02*
X012128Y019546D01*
X012128Y019644D02*
X012028Y019644D01*
X012504Y019447D02*
X013153Y019447D01*
X012128Y019053D02*
X012028Y019053D01*
X012028Y018955D02*
X012128Y018955D01*
X012128Y018856D02*
X012028Y018856D01*
X010878Y014818D02*
X010709Y014818D01*
X010834Y014719D02*
X010878Y014719D01*
X011516Y014227D02*
X011639Y014227D01*
X011805Y014325D02*
X015383Y014325D01*
X016778Y013937D02*
X014278Y011437D01*
X014396Y011272D02*
X016530Y011272D01*
X016628Y011370D02*
X014494Y011370D01*
X014593Y011469D02*
X016727Y011469D01*
X016825Y011567D02*
X014691Y011567D01*
X014790Y011666D02*
X016924Y011666D01*
X017022Y011764D02*
X014888Y011764D01*
X014987Y011863D02*
X017121Y011863D01*
X017419Y011961D02*
X015085Y011961D01*
X015184Y012060D02*
X017518Y012060D01*
X017616Y012158D02*
X015282Y012158D01*
X015381Y012257D02*
X017715Y012257D01*
X017813Y012355D02*
X015479Y012355D01*
X016431Y011173D02*
X013797Y011173D01*
X013699Y011075D02*
X016333Y011075D01*
X016234Y010976D02*
X013600Y010976D01*
X013502Y010878D02*
X016136Y010878D01*
X016037Y010779D02*
X013403Y010779D01*
X013305Y010681D02*
X015939Y010681D01*
X015840Y010582D02*
X013206Y010582D01*
X013108Y010484D02*
X015742Y010484D01*
X015643Y010385D02*
X013009Y010385D01*
X012978Y009597D02*
X015855Y009597D01*
X015757Y009499D02*
X012978Y009499D01*
X012978Y009400D02*
X015658Y009400D01*
X015560Y009302D02*
X012926Y009302D01*
X012827Y009203D02*
X015461Y009203D01*
X015363Y009105D02*
X012729Y009105D01*
X012630Y009006D02*
X015264Y009006D01*
X015166Y008908D02*
X012532Y008908D01*
X012433Y008809D02*
X015067Y008809D01*
X014969Y008711D02*
X012335Y008711D01*
X012236Y008612D02*
X014870Y008612D01*
X014772Y008514D02*
X012138Y008514D01*
X012039Y008415D02*
X014673Y008415D01*
X014575Y008317D02*
X011941Y008317D01*
X011842Y008218D02*
X012623Y008218D01*
X012785Y007950D02*
X012798Y007937D01*
X014478Y007937D01*
X019278Y012737D01*
X019278Y014437D01*
X019778Y014937D01*
X020078Y014937D01*
X020553Y014522D02*
X021313Y014522D01*
X021313Y014424D02*
X019548Y014424D01*
X019540Y014325D02*
X019478Y014325D01*
X019478Y013537D02*
X019566Y013537D01*
X019478Y013439D02*
X021313Y013439D01*
X021313Y013537D02*
X020589Y013537D01*
X020713Y013636D02*
X021313Y013636D01*
X021313Y013734D02*
X020781Y013734D01*
X020822Y013833D02*
X021313Y013833D01*
X021313Y013931D02*
X020828Y013931D01*
X020826Y014030D02*
X021313Y014030D01*
X021313Y014128D02*
X020785Y014128D01*
X020724Y014227D02*
X021313Y014227D01*
X021313Y014325D02*
X020616Y014325D01*
X020698Y014621D02*
X021313Y014621D01*
X021313Y014719D02*
X020775Y014719D01*
X020816Y014818D02*
X021313Y014818D01*
X021313Y014916D02*
X020828Y014916D01*
X020828Y015015D02*
X021313Y015015D01*
X021313Y015113D02*
X020792Y015113D01*
X020739Y015212D02*
X021313Y015212D01*
X021313Y015310D02*
X020641Y015310D01*
X020078Y015937D02*
X018878Y015937D01*
X019078Y015704D02*
X019387Y015704D01*
X019472Y015606D02*
X019078Y015606D01*
X019078Y015507D02*
X019639Y015507D01*
X019401Y016197D02*
X018478Y016197D01*
X018478Y016295D02*
X019500Y016295D01*
X018078Y016295D02*
X017856Y016295D01*
X017954Y016197D02*
X018078Y016197D01*
X018078Y016098D02*
X017998Y016098D01*
X018028Y016000D02*
X018078Y016000D01*
X018078Y015901D02*
X018028Y015901D01*
X018009Y015803D02*
X018078Y015803D01*
X018078Y015704D02*
X017969Y015704D01*
X017883Y015606D02*
X018078Y015606D01*
X018078Y015310D02*
X017841Y015310D01*
X017939Y015212D02*
X018078Y015212D01*
X018078Y015113D02*
X017992Y015113D01*
X018028Y015015D02*
X018078Y015015D01*
X018078Y014916D02*
X018028Y014916D01*
X018016Y014818D02*
X018078Y014818D01*
X018078Y014719D02*
X017975Y014719D01*
X017898Y014621D02*
X018078Y014621D01*
X018078Y014325D02*
X017816Y014325D01*
X017924Y014227D02*
X018078Y014227D01*
X018078Y014128D02*
X017985Y014128D01*
X018026Y014030D02*
X018078Y014030D01*
X018078Y013931D02*
X018028Y013931D01*
X018022Y013833D02*
X018078Y013833D01*
X018078Y013734D02*
X017981Y013734D01*
X017913Y013636D02*
X018078Y013636D01*
X018078Y013537D02*
X017789Y013537D01*
X017909Y013242D02*
X018000Y013242D01*
X017278Y013937D02*
X016778Y013937D01*
X018785Y011961D02*
X019878Y011961D01*
X019878Y011863D02*
X018687Y011863D01*
X018588Y011764D02*
X019878Y011764D01*
X019966Y011666D02*
X018490Y011666D01*
X018391Y011567D02*
X020064Y011567D01*
X020163Y011469D02*
X018293Y011469D01*
X018194Y011370D02*
X020261Y011370D01*
X020360Y011272D02*
X018096Y011272D01*
X017997Y011173D02*
X020458Y011173D01*
X020557Y011075D02*
X017899Y011075D01*
X017800Y010976D02*
X020655Y010976D01*
X020754Y010878D02*
X017702Y010878D01*
X017603Y010779D02*
X020778Y010779D01*
X020778Y010681D02*
X017505Y010681D01*
X017406Y010582D02*
X020778Y010582D01*
X020778Y010484D02*
X017308Y010484D01*
X017209Y010385D02*
X020778Y010385D01*
X020778Y010287D02*
X017111Y010287D01*
X017012Y010188D02*
X020778Y010188D01*
X020778Y010090D02*
X016914Y010090D01*
X016815Y009991D02*
X020778Y009991D01*
X020778Y009893D02*
X016717Y009893D01*
X016618Y009794D02*
X020778Y009794D01*
X020778Y009696D02*
X019057Y009696D01*
X019147Y009597D02*
X020778Y009597D01*
X020778Y009499D02*
X019188Y009499D01*
X019188Y009400D02*
X020778Y009400D01*
X020778Y009302D02*
X019157Y009302D01*
X019083Y009203D02*
X020778Y009203D01*
X020778Y009105D02*
X018829Y009105D01*
X018730Y009006D02*
X020778Y009006D01*
X020778Y008908D02*
X018632Y008908D01*
X018533Y008809D02*
X020778Y008809D01*
X020778Y008711D02*
X018435Y008711D01*
X018378Y008612D02*
X020778Y008612D01*
X020778Y008514D02*
X018378Y008514D01*
X018378Y008415D02*
X020778Y008415D01*
X020778Y008317D02*
X018378Y008317D01*
X018378Y008218D02*
X020778Y008218D01*
X020778Y008120D02*
X018378Y008120D01*
X018378Y008021D02*
X020778Y008021D01*
X020778Y007923D02*
X018378Y007923D01*
X018378Y007824D02*
X020778Y007824D01*
X020778Y007726D02*
X018378Y007726D01*
X018378Y007627D02*
X020778Y007627D01*
X020778Y007529D02*
X018378Y007529D01*
X018378Y007430D02*
X020778Y007430D01*
X020778Y007332D02*
X018421Y007332D01*
X018473Y007233D02*
X020778Y007233D01*
X020778Y007135D02*
X018488Y007135D01*
X018472Y007036D02*
X020778Y007036D01*
X020778Y006938D02*
X018417Y006938D01*
X018378Y006839D02*
X020778Y006839D01*
X020778Y006741D02*
X018378Y006741D01*
X018378Y006642D02*
X020778Y006642D01*
X020778Y006544D02*
X018378Y006544D01*
X018378Y006445D02*
X020778Y006445D01*
X020778Y006347D02*
X018378Y006347D01*
X018378Y006248D02*
X020778Y006248D01*
X020778Y006150D02*
X018378Y006150D01*
X018378Y006051D02*
X020778Y006051D01*
X020778Y005953D02*
X018378Y005953D01*
X018378Y005854D02*
X020778Y005854D01*
X020778Y005756D02*
X018378Y005756D01*
X018496Y005657D02*
X020778Y005657D01*
X020778Y005559D02*
X018563Y005559D01*
X018588Y005460D02*
X020778Y005460D01*
X020778Y005362D02*
X018582Y005362D01*
X018541Y005263D02*
X019500Y005263D01*
X019393Y005165D02*
X018431Y005165D01*
X018190Y005066D02*
X019334Y005066D01*
X019305Y004968D02*
X018092Y004968D01*
X018078Y004869D02*
X019998Y004869D01*
X019998Y004837D02*
X019300Y004837D01*
X019309Y004781D01*
X019331Y004714D01*
X019363Y004651D01*
X019404Y004594D01*
X019455Y004543D01*
X019512Y004502D01*
X019575Y004470D01*
X019642Y004448D01*
X019712Y004437D01*
X019998Y004437D01*
X019998Y004837D01*
X019998Y004771D02*
X020098Y004771D01*
X020098Y004672D02*
X019998Y004672D01*
X019998Y004574D02*
X020098Y004574D01*
X020098Y004475D02*
X019998Y004475D01*
X019564Y004475D02*
X018078Y004475D01*
X018078Y004377D02*
X020778Y004377D01*
X020778Y004475D02*
X020531Y004475D01*
X020671Y004574D02*
X020778Y004574D01*
X020778Y004672D02*
X020743Y004672D01*
X020761Y005066D02*
X020778Y005066D01*
X020778Y005165D02*
X020702Y005165D01*
X020778Y005263D02*
X020595Y005263D01*
X020098Y005263D02*
X019998Y005263D01*
X019998Y005165D02*
X020098Y005165D01*
X020098Y005066D02*
X019998Y005066D01*
X019998Y004968D02*
X020098Y004968D01*
X019424Y004574D02*
X018078Y004574D01*
X018078Y004672D02*
X019352Y004672D01*
X019312Y004771D02*
X018078Y004771D01*
X017878Y005037D02*
X018278Y005437D01*
X018178Y005537D01*
X018178Y007137D01*
X018178Y008737D01*
X018878Y009437D01*
X018609Y009597D02*
X016421Y009597D01*
X016323Y009499D02*
X018568Y009499D01*
X018558Y009400D02*
X016224Y009400D01*
X016126Y009302D02*
X018460Y009302D01*
X018361Y009203D02*
X016027Y009203D01*
X015929Y009105D02*
X018263Y009105D01*
X018164Y009006D02*
X015830Y009006D01*
X015732Y008908D02*
X018066Y008908D01*
X017978Y008809D02*
X015633Y008809D01*
X015535Y008711D02*
X017978Y008711D01*
X017978Y008612D02*
X015436Y008612D01*
X015338Y008514D02*
X017978Y008514D01*
X017978Y008415D02*
X015239Y008415D01*
X015141Y008317D02*
X017978Y008317D01*
X017978Y008218D02*
X015042Y008218D01*
X014944Y008120D02*
X017978Y008120D01*
X017978Y008021D02*
X014845Y008021D01*
X014747Y007923D02*
X017978Y007923D01*
X017978Y007824D02*
X014648Y007824D01*
X014476Y008218D02*
X012947Y008218D01*
X012999Y007726D02*
X017978Y007726D01*
X018698Y009696D02*
X016520Y009696D01*
X018884Y012060D02*
X019878Y012060D01*
X019818Y012158D02*
X018982Y012158D01*
X019081Y012257D02*
X019775Y012257D01*
X019768Y012355D02*
X019179Y012355D01*
X019278Y012454D02*
X019791Y012454D01*
X019855Y012552D02*
X019376Y012552D01*
X019475Y012651D02*
X021313Y012651D01*
X021313Y012749D02*
X019478Y012749D01*
X019478Y012848D02*
X021313Y012848D01*
X021313Y012946D02*
X019478Y012946D01*
X019478Y013045D02*
X021313Y013045D01*
X021313Y013143D02*
X019478Y013143D01*
X019478Y013242D02*
X021313Y013242D01*
X021313Y013340D02*
X019478Y013340D01*
X018078Y016591D02*
X017867Y016591D01*
X017954Y016689D02*
X018078Y016689D01*
X018078Y016788D02*
X018002Y016788D01*
X018025Y016886D02*
X018078Y016886D01*
X011863Y008120D02*
X011744Y008120D01*
X011764Y008021D02*
X011645Y008021D01*
X011666Y007923D02*
X011547Y007923D01*
X011567Y007824D02*
X011448Y007824D01*
X005578Y010090D02*
X005328Y010090D01*
X005328Y010188D02*
X005578Y010188D01*
X005578Y010287D02*
X005328Y010287D01*
X005328Y010385D02*
X005578Y010385D01*
X005578Y010484D02*
X005328Y010484D01*
X005328Y010582D02*
X005578Y010582D01*
X005578Y010681D02*
X005305Y010681D01*
X005264Y010779D02*
X005578Y010779D01*
X005578Y010878D02*
X005173Y010878D01*
X004582Y010878D02*
X004173Y010878D01*
X004264Y010779D02*
X004491Y010779D01*
X004450Y010681D02*
X004305Y010681D01*
X004328Y010582D02*
X004428Y010582D01*
X004428Y010484D02*
X004328Y010484D01*
X004328Y010385D02*
X004428Y010385D01*
X004428Y010287D02*
X004328Y010287D01*
X004328Y010188D02*
X004428Y010188D01*
X004428Y010090D02*
X004328Y010090D01*
X004328Y009991D02*
X004428Y009991D01*
X004428Y009893D02*
X004328Y009893D01*
X004306Y009794D02*
X004450Y009794D01*
X004490Y009696D02*
X004265Y009696D01*
X004175Y009597D02*
X004581Y009597D01*
X004759Y009499D02*
X003996Y009499D01*
X004146Y011469D02*
X004609Y011469D01*
X004511Y011567D02*
X004245Y011567D01*
X004294Y011666D02*
X004461Y011666D01*
X004428Y011764D02*
X004328Y011764D01*
X004328Y011863D02*
X004428Y011863D01*
X004428Y011961D02*
X004328Y011961D01*
X004328Y012060D02*
X004428Y012060D01*
X004428Y012158D02*
X004328Y012158D01*
X004328Y012257D02*
X004428Y012257D01*
X004428Y012355D02*
X004328Y012355D01*
X004328Y012454D02*
X004428Y012454D01*
X004439Y012552D02*
X004317Y012552D01*
X004276Y012651D02*
X004479Y012651D01*
X004554Y012749D02*
X004202Y012749D01*
X004061Y012848D02*
X004694Y012848D01*
X004663Y013439D02*
X005578Y013439D01*
X005578Y013537D02*
X004761Y013537D01*
X004860Y013636D02*
X005578Y013636D01*
X005578Y013734D02*
X004958Y013734D01*
X005057Y013833D02*
X005578Y013833D01*
X005578Y013931D02*
X005155Y013931D01*
X005254Y014030D02*
X005578Y014030D01*
X005578Y014128D02*
X005352Y014128D01*
X005451Y014227D02*
X005578Y014227D01*
X005578Y014325D02*
X005549Y014325D01*
X005279Y014621D02*
X004048Y014621D01*
X004048Y014719D02*
X005377Y014719D01*
X005476Y014818D02*
X004010Y014818D01*
X003955Y014916D02*
X005574Y014916D01*
X005778Y014837D02*
X004578Y013637D01*
X004885Y014227D02*
X003784Y014227D01*
X003923Y014325D02*
X004983Y014325D01*
X005082Y014424D02*
X003997Y014424D01*
X004037Y014522D02*
X005180Y014522D01*
X005578Y013340D02*
X003938Y013340D01*
X003820Y013242D02*
X005578Y013242D01*
X006378Y016197D02*
X003697Y016197D01*
X003703Y016198D02*
X003770Y016220D01*
X003834Y016252D01*
X003891Y016293D01*
X003941Y016344D01*
X003983Y016401D01*
X004015Y016464D01*
X004037Y016531D01*
X004045Y016587D01*
X003348Y016587D01*
X003348Y016187D01*
X003633Y016187D01*
X003703Y016198D01*
X003893Y016295D02*
X006378Y016295D01*
X006378Y016394D02*
X003977Y016394D01*
X004024Y016492D02*
X006378Y016492D01*
X006378Y016591D02*
X003348Y016591D01*
X003348Y016687D02*
X004045Y016687D01*
X004037Y016742D01*
X004015Y016809D01*
X003983Y016873D01*
X003941Y016930D01*
X003891Y016980D01*
X003834Y017022D01*
X003770Y017054D01*
X003703Y017076D01*
X003633Y017087D01*
X003348Y017087D01*
X003348Y016687D01*
X003348Y016689D02*
X003248Y016689D01*
X003248Y016591D02*
X001928Y016591D01*
X001928Y015901D02*
X002626Y015901D01*
X002579Y015803D02*
X001928Y015803D01*
X001928Y015704D02*
X002548Y015704D01*
X002548Y015606D02*
X001928Y015606D01*
X001928Y015507D02*
X002564Y015507D01*
X002605Y015409D02*
X001928Y015409D01*
X001928Y015310D02*
X002688Y015310D01*
X002848Y015212D02*
X001928Y015212D01*
X003248Y016197D02*
X003348Y016197D01*
X003348Y016295D02*
X003248Y016295D01*
X003248Y016394D02*
X003348Y016394D01*
X003348Y016492D02*
X003248Y016492D01*
X003248Y016788D02*
X003348Y016788D01*
X003348Y016886D02*
X003248Y016886D01*
X003248Y016985D02*
X003348Y016985D01*
X003348Y017083D02*
X003248Y017083D01*
X003655Y017083D02*
X006378Y017083D01*
X006378Y016985D02*
X003884Y016985D01*
X003973Y016886D02*
X006378Y016886D01*
X006378Y016788D02*
X004022Y016788D01*
X004045Y016689D02*
X006378Y016689D01*
X003659Y007233D02*
X003091Y007233D01*
X003216Y007135D02*
X003539Y007135D01*
X003473Y007036D02*
X003281Y007036D01*
X003317Y006938D02*
X003432Y006938D01*
X003428Y006839D02*
X003328Y006839D01*
X003328Y006741D02*
X003428Y006741D01*
X003428Y006642D02*
X003328Y006642D01*
X005205Y004081D02*
X017678Y004081D01*
X017678Y003983D02*
X005107Y003983D01*
X005008Y003884D02*
X017678Y003884D01*
X017604Y003786D02*
X004910Y003786D01*
X004811Y003687D02*
X017568Y003687D01*
X017568Y003589D02*
X004713Y003589D01*
X004614Y003490D02*
X017603Y003490D01*
X017684Y003392D02*
X004516Y003392D01*
X004488Y003293D02*
X020751Y003293D01*
X020778Y003392D02*
X018071Y003392D01*
X018153Y003490D02*
X019529Y003490D01*
X019409Y003589D02*
X018188Y003589D01*
X018188Y003687D02*
X019343Y003687D01*
X019302Y003786D02*
X018152Y003786D01*
X018078Y003884D02*
X019298Y003884D01*
X019300Y003983D02*
X018078Y003983D01*
X018078Y004081D02*
X019341Y004081D01*
X019404Y004180D02*
X018078Y004180D01*
X018078Y004278D02*
X019517Y004278D01*
X020578Y004278D02*
X020778Y004278D01*
X020778Y004180D02*
X020691Y004180D01*
X020754Y004081D02*
X020778Y004081D01*
X020752Y003687D02*
X020778Y003687D01*
X020778Y003589D02*
X020686Y003589D01*
X020778Y003490D02*
X020566Y003490D01*
X020653Y003195D02*
X004454Y003195D01*
X004376Y003096D02*
X020554Y003096D01*
X017878Y003637D02*
X017878Y005037D01*
D16*
X018278Y005437D03*
X018178Y007137D03*
X017028Y007387D03*
X018278Y009437D03*
X018878Y009437D03*
X020078Y008637D03*
X020253Y006103D03*
X017878Y003637D03*
X015939Y002107D03*
X013378Y002237D03*
X015909Y005255D03*
X012785Y007950D03*
X013335Y008485D03*
X013278Y009987D03*
X011478Y009737D03*
X010228Y009937D03*
X009928Y009187D03*
X008978Y010537D03*
X008178Y010337D03*
X007278Y007637D03*
X006278Y007137D03*
X007978Y006037D03*
X009210Y006197D03*
X008653Y003872D03*
X009046Y002511D03*
X012620Y005691D03*
X011487Y007462D03*
X011678Y012237D03*
X011578Y014537D03*
X010578Y014537D03*
X011578Y016637D03*
X007846Y013479D03*
X015278Y013037D03*
X016728Y011747D03*
X020078Y012337D03*
X004178Y003337D03*
M02*
