%
M48
M72
T01C0.0200
T02C0.0394
T03C0.0400
T04C0.1575
%
T01
X13335Y8485
X9046Y2511
X9210Y6197
X8653Y3872
X15939Y2107
X15909Y5255
X20253Y6103
X12620Y5691
X7846Y13479
X18278Y9437
X17028Y7387
X20078Y8637
X15278Y13037
X16728Y11747
X8978Y10537
X20078Y12337
X13378Y2237
X11578Y16637
X4178Y3337
X11678Y12237
X11478Y9737
X7978Y6037
X18278Y5437
X17878Y3637
X18178Y7137
X18878Y9437
X6278Y7137
X7278Y7637
X13278Y9987
X12785Y7950
X11487Y7462
X10228Y9937
X9928Y9187
X8178Y10337
X10578Y14537
X11578Y14537
T02
X6578Y18537
X7578Y18537
X8578Y18537
T03
X13478Y19037
X14478Y19037
X15478Y19037
X16478Y19037
X17478Y19037
X18478Y19037
X10078Y18237
X10078Y19237
X11078Y18237
X11078Y19237
X12078Y18237
X12078Y19237
X3298Y16637
X3298Y15637
X3298Y14637
X3298Y13637
X20048Y4887
X20048Y3887
X17278Y14937
X17278Y13937
X17278Y12937
X17278Y15937
X17278Y16937
X20078Y16937
X20078Y15937
X20078Y14937
X20078Y13937
X2878Y6537
X3878Y6537
X4878Y6537
X2878Y8337
X3878Y8337
X4878Y8337
X2878Y10237
X3878Y10237
X4878Y10237
X2878Y12137
X3878Y12137
X4878Y12137
T04
X20178Y18837
X20078Y1737
X3078Y1662
X3078Y18837
M30
